<svg xmlns="http://www.w3.org/2000/svg" width="979" height="758" viewBox="0 0 979 758"><title>parking-scheme</title><g id="places" style="fill:#d8d8d8"><path id="place-62" d="M495,661h50v90H495Z" /><path id="place-61" d="M434,661h50v90H434Z" /><path id="place-60" d="M373,661h50v90H373Z" /><path id="place-59" d="M312,661h50v90H312Z" /><path id="place-58" d="M922,7h50V97H922Z" /><path id="place-57" d="M861,7h50V97H861Z" /><path id="place-56" d="M800,7h50V97H800Z" /><path id="place-55" d="M739,7h50V97H739Z" /><path id="place-54" d="M678,7h50V97H678Z" /><path id="place-53" d="M617,7h50V97H617Z" /><path id="place-52" d="M556,7h50V97H556Z" /><path id="place-51" d="M495,7h50V97H495Z" /><path id="place-50" d="M373,7h50V97H373Z" /><path id="place-49" d="M312,7h50V97H312Z" /><path id="place-48" d="M251,7h50V97H251Z" /><path id="place-47" d="M190,7h50V97H190Z" /><path id="place-46" d="M129,7h50V97H129Z" /><path id="place-45" d="M68,7h50V97H68Z" /><path id="place-44" d="M7,7H57V97H7Z" /><path id="place-43" d="M861,157h50v90H861Z" /><path id="place-42" d="M800,157h50v90H800Z" /><path id="place-41" d="M739,157h50v90H739Z" /><path id="place-40" d="M678,157h50v90H678Z" /><path id="place-39" d="M617,157h50v90H617Z"/><path id="place-38" d="M556,157h50v90H556Z" /><path id="place-37" d="M495,157h50v90H495Z" /><path id="place-36" d="M434,157h50v90H434Z" /><path id="place-35" d="M373,157h50v90H373Z" /><path id="place-34" d="M312,157h50v90H312Z" /><path id="place-33" d="M312,259h50v90H312Z" /><path id="place-32" d="M373,259h50v90H373Z" /><path id="place-31" d="M434,259h50v90H434Z" /><path id="place-30" d="M495,259h50v90H495Z" /><path id="place-29" d="M556,259h50v90H556Z" /><path id="place-28" d="M617,259h50v90H617Z" /><path id="place-27" d="M678,259h50v90H678Z" /><path id="place-26" d="M739,259h50v90H739Z" /><path id="place-25" d="M800,259h50v90H800Z" /><path id="place-24" d="M861,259h50v90H861Z" /><path id="place-23" d="M861,409h50v90H861Z" /><path id="place-22" d="M800,409h50v90H800Z" /><path id="place-21" d="M739,409h50v90H739Z" /><path id="place-20" d="M678,409h50v90H678Z" /><path id="place-19" d="M617,409h50v90H617Z" /><path id="place-18" d="M556,409h50v90H556Z" /><path id="place-17" d="M495,409h50v90H495Z" /><path id="place-16" d="M434,409h50v90H434Z" /><path id="place-15" d="M373,409h50v90H373Z" /><path id="place-14" d="M312,409h50v90H312Z" /><path id="place-13" d="M861,511h50v90H861Z" /><path id="place-12" d="M800,511h50v90H800Z" /><path id="place-11" d="M739,511h50v90H739Z" /><path id="place-10" d="M678,511h50v90H678Z" /><path id="place-09" d="M617,511h50v90H617Z" /><path id="place-08" d="M556,511h50v90H556Z" /><path id="place-07" d="M495,511h50v90H495Z" /><path id="place-06" d="M434,511h50v90H434Z" /><path id="place-05" d="M373,511h50v90H373Z" /><path id="place-04" d="M312,511h50v90H312Z" /><path id="place-03" d="M130,258h50v90H130Z" /><path id="place-02" d="M130,359h50v90H130Z" /><path id="place-01" d="M130,460h50v90H130Z" /></g><g id="frame"><path id="path1_fill" data-name="path1 fill" d="M855,259h1v85h-1Z" style="fill:#303030"/><path id="path2_fill" data-name="path2 fill" d="M916,157h2V599h-2Z" style="fill:#303030"/><path id="path1_fill-2" data-name="path1 fill" d="M794,259h1v85h-1Z" style="fill:#303030"/><path id="path1_fill-3" data-name="path1 fill" d="M733,259h1v85h-1Z" style="fill:#303030"/><path id="path1_fill-4" data-name="path1 fill" d="M672,259h1v85h-1Z" style="fill:#303030"/><path id="path1_fill-5" data-name="path1 fill" d="M611,259h1v85h-1Z" style="fill:#303030"/><path id="path1_fill-6" data-name="path1 fill" d="M550,259h1v85h-1Z" style="fill:#303030"/><path id="path1_fill-7" data-name="path1 fill" d="M489,259h1v85h-1Z" style="fill:#303030"/><path id="path1_fill-8" data-name="path1 fill" d="M428,259h1v85h-1Z" style="fill:#303030"/><path id="path1_fill-9" data-name="path1 fill" d="M367,259h1v85h-1Z" style="fill:#303030"/><path id="path1_fill-10" data-name="path1 fill" d="M855,162h1v85h-1Z" style="fill:#303030"/><path id="path1_fill-11" data-name="path1 fill" d="M794,162h1v85h-1Z" style="fill:#303030"/><path id="path1_fill-12" data-name="path1 fill" d="M733,162h1v85h-1Z" style="fill:#303030"/><path id="path1_fill-13" data-name="path1 fill" d="M672,162h1v85h-1Z" style="fill:#303030"/><path id="path1_fill-14" data-name="path1 fill" d="M611,162h1v85h-1Z" style="fill:#303030"/><path id="path1_fill-15" data-name="path1 fill" d="M550,162h1v85h-1Z" style="fill:#303030"/><path id="path1_fill-16" data-name="path1 fill" d="M489,162h1v85h-1Z" style="fill:#303030"/><path id="path1_fill-17" data-name="path1 fill" d="M428,162h1v85h-1Z" style="fill:#303030"/><path id="path1_fill-18" data-name="path1 fill" d="M489,511h1v85h-1Z" style="fill:#303030"/><path id="path1_fill-19" data-name="path1 fill" d="M428,511h1v85h-1Z" style="fill:#303030"/><path id="path1_fill-20" data-name="path1 fill" d="M367,511h1v85h-1Z" style="fill:#303030"/><path id="path1_fill-21" data-name="path1 fill" d="M855,414h1v85h-1Z" style="fill:#303030"/><path id="path1_fill-22" data-name="path1 fill" d="M794,414h1v85h-1Z" style="fill:#303030"/><path id="path1_fill-23" data-name="path1 fill" d="M733,414h1v85h-1Z" style="fill:#303030"/><path id="path1_fill-24" data-name="path1 fill" d="M672,414h1v85h-1Z" style="fill:#303030"/><path id="path1_fill-25" data-name="path1 fill" d="M611,414h1v85h-1Z" style="fill:#303030"/><path id="path1_fill-26" data-name="path1 fill" d="M550,414h1v85h-1Z" style="fill:#303030"/><path id="path1_fill-27" data-name="path1 fill" d="M489,414h1v85h-1Z" style="fill:#303030"/><path id="path1_fill-28" data-name="path1 fill" d="M428,414h1v85h-1Z" style="fill:#303030"/><path id="path1_fill-29" data-name="path1 fill" d="M367,414h1v85h-1Z" style="fill:#303030"/><path id="path3_fill" data-name="path3 fill" d="M305,409h2V601h-2Z" style="fill:#303030"/><path id="path4_fill" data-name="path4 fill" d="M314,504H911v2H314Z" style="fill:#303030"/><path id="path5_fill" data-name="path5 fill" d="M7,0H972V2H7Z" style="fill:#303030"/><path id="path6_fill" data-name="path6 fill" d="M312,756H545v2H312Z" style="fill:#303030"/><path id="path7_fill" data-name="path7 fill" d="M550,661h2v90h-2Z" style="fill:#303030"/><path id="path8_fill" data-name="path8 fill" d="M489,661h1v90h-1Z" style="fill:#303030"/><path id="path8_fill-2" data-name="path8 fill" d="M428,661h1v90h-1Z" style="fill:#303030"/><path id="path8_fill-3" data-name="path8 fill" d="M367,661h1v90h-1Z" style="fill:#303030"/><path id="path7_fill-2" data-name="path7 fill" d="M305,661h2v90h-2Z" style="fill:#303030"/><path id="path1_fill-30" data-name="path1 fill" d="M367,162h1v85h-1Z" style="fill:#303030"/><path id="path3_fill-2" data-name="path3 fill" d="M305,157h2V349h-2Z" style="fill:#303030"/><path id="path1_fill-31" data-name="path1 fill" d="M916,7h1V92h-1Z" style="fill:#303030"/><path id="path1_fill-32" data-name="path1 fill" d="M855,7h1V92h-1Z" style="fill:#303030"/><path id="path1_fill-33" data-name="path1 fill" d="M794,7h1V92h-1Z" style="fill:#303030"/><path id="path1_fill-34" data-name="path1 fill" d="M733,7h1V92h-1Z" style="fill:#303030"/><path id="path1_fill-35" data-name="path1 fill" d="M672,7h1V92h-1Z" style="fill:#303030"/><path id="path1_fill-36" data-name="path1 fill" d="M611,7h1V92h-1Z" style="fill:#303030"/><path id="path1_fill-37" data-name="path1 fill" d="M550,7h1V92h-1Z" style="fill:#303030"/><path id="path9_fill" data-name="path9 fill" d="M488,7h2V92h-2Z" style="fill:#303030"/><path id="path9_fill-2" data-name="path9 fill" d="M428,7h2V92h-2Z" style="fill:#303030"/><path id="path1_fill-38" data-name="path1 fill" d="M367,7h1V92h-1Z" style="fill:#303030"/><path id="path1_fill-39" data-name="path1 fill" d="M306,7h1V92h-1Z" style="fill:#303030"/><path id="path1_fill-40" data-name="path1 fill" d="M245,7h1V92h-1Z" style="fill:#303030"/><path id="path1_fill-41" data-name="path1 fill" d="M184,7h1V92h-1Z" style="fill:#303030"/><path id="path1_fill-42" data-name="path1 fill" d="M123,7h1V92h-1Z" style="fill:#303030"/><path id="path1_fill-43" data-name="path1 fill" d="M60,12h1V97H60Z" style="fill:#303030"/><path id="path7_fill-3" data-name="path7 fill" d="M0,7H2V97H0Z" style="fill:#303030"/><path id="path7_fill-4" data-name="path7 fill" d="M977,7h2V97h-2Z" style="fill:#303030"/><path id="path4_fill-2" data-name="path4 fill" d="M314,252H911v2H314Z" style="fill:#303030"/><path id="path10_fill" data-name="path10 fill" d="M123,258h2V550h-2Z" style="fill:#303030"/><path id="path11_fill" data-name="path11 fill" d="M130,353h45v1H130Z" style="fill:#303030"/><path id="path12_fill" data-name="path12 fill" d="M130,251h50v2H130Z" style="fill:#303030"/><path id="path11_fill-2" data-name="path11 fill" d="M130,454h45v1H130Z" style="fill:#303030"/><path id="path12_fill-2" data-name="path12 fill" d="M130,555h50v2H130Z" style="fill:#303030"/><path id="path1_fill-44" data-name="path1 fill" d="M855,511h1v85h-1Z" style="fill:#303030"/><path id="path1_fill-45" data-name="path1 fill" d="M794,511h1v85h-1Z" style="fill:#303030"/><path id="path1_fill-46" data-name="path1 fill" d="M733,511h1v85h-1Z" style="fill:#303030"/><path id="path1_fill-47" data-name="path1 fill" d="M672,511h1v85h-1Z" style="fill:#303030"/><path id="path1_fill-48" data-name="path1 fill" d="M611,511h1v85h-1Z" style="fill:#303030"/><path id="path1_fill-49" data-name="path1 fill" d="M550,511h1v85h-1Z" style="fill:#303030"/><path id="path13_fill" data-name="path13 fill" d="M156.47,540V529.33H155.3l-2.67,2.75.8.82,1.71-1.81V540Z" style="fill:#fff"/><path id="path14_fill" data-name="path14 fill" d="M340,531v-2.7h1.5v-1.17H340v-6.8h-1.82l-4.58,6.86v1.1h5.07V531Zm-1.33-3.87h-3.74l3.74-5.57Z" style="fill:#fff"/><path id="path15_fill" data-name="path15 fill" d="M334.5,489V478.33h-1.17l-2.67,2.75.8.82,1.71-1.81V489Zm8.16,0v-2.7h1.5v-1.17h-1.5v-6.8h-1.82l-4.58,6.86v1.1h5.07V489Zm-1.33-3.87h-3.74l3.74-5.57Z" style="fill:#fff"/><path id="path16_fill" data-name="path16 fill" d="M398.1,531.19a3.49,3.49,0,0,0,3.79-3.52,3.27,3.27,0,0,0-3.39-3.41,3.61,3.61,0,0,0-2.5,1v-3.71h5.2v-1.18h-6.53v5.76l1,.34a3.35,3.35,0,0,1,2.46-1,2.25,2.25,0,0,1,2.45,2.3A2.3,2.3,0,0,1,398.1,530a3.51,3.51,0,0,1-2.94-1.41l-.82.88A4.36,4.36,0,0,0,398.1,531.19Z" style="fill:#fff"/><path id="path17_fill" data-name="path17 fill" d="M395.25,489V478.33h-1.17l-2.67,2.75.8.82,1.71-1.81V489Zm6.06.19a3.49,3.49,0,0,0,3.79-3.52,3.27,3.27,0,0,0-3.39-3.41,3.61,3.61,0,0,0-2.5,1v-3.71h5.2v-1.18h-6.53v5.76l1,.34a3.35,3.35,0,0,1,2.46-1,2.25,2.25,0,0,1,2.45,2.3,2.3,2.3,0,0,1-2.46,2.29,3.51,3.51,0,0,1-2.94-1.41l-.82.88A4.36,4.36,0,0,0,401.31,489.19Z" style="fill:#fff"/><path id="path18_fill" data-name="path18 fill" d="M456.24,489V478.33h-1.17l-2.67,2.75.8.82,1.71-1.81V489Zm6.17.19a3.5,3.5,0,0,0,3.74-3.49,3.23,3.23,0,0,0-3.49-3.41,3.83,3.83,0,0,0-3,1.66,3.62,3.62,0,0,1,0-.42c0-2.1.94-4.19,3-4.19a2.73,2.73,0,0,1,2.29,1.09l.67-1a3.71,3.71,0,0,0-3-1.28c-3,0-4.34,2.62-4.34,5.52S459.44,489.19,462.41,489.19Zm0-1.18c-1.86,0-2.56-1.63-2.69-3a3.28,3.28,0,0,1,2.67-1.6,2.21,2.21,0,0,1,2.46,2.3A2.31,2.31,0,0,1,462.36,488Z" style="fill:#fff"/><path id="path19_fill" data-name="path19 fill" d="M517.35,489V478.33h-1.17l-2.67,2.75.8.82,1.71-1.81V489Zm4.65,0,4.37-9.76v-.91h-7.28v1.18h5.74l-4.3,9.49Z" style="fill:#fff"/><path id="path20_fill" data-name="path20 fill" d="M578.32,489V478.33h-1.17l-2.67,2.75.8.82,1.71-1.81V489Zm5.9.19c2.1,0,3.82-1.09,3.82-2.9a3.17,3.17,0,0,0-2.54-2.8,2.82,2.82,0,0,0,2.38-2.56c0-1.92-1.9-2.77-3.66-2.77s-3.65.85-3.65,2.77a2.8,2.8,0,0,0,2.37,2.56,3.17,3.17,0,0,0-2.54,2.8C580.39,488.12,582.11,489.19,584.22,489.19Zm0-6.24c-.64-.11-2.32-.54-2.32-1.84,0-1.1,1-1.76,2.32-1.76s2.32.66,2.32,1.76C586.54,482.41,584.87,482.84,584.22,483Zm0,5.06c-1.33,0-2.5-.7-2.5-1.86,0-1.39,1.84-2,2.5-2.06.66.08,2.48.67,2.48,2.06C586.7,487.3,585.53,488,584.22,488Z" style="fill:#fff"/><path id="path21_fill" data-name="path21 fill" d="M639.24,489V478.33h-1.17l-2.67,2.75.8.82,1.71-1.81V489Zm5.55.18c3,0,4.34-2.62,4.34-5.5s-1.14-5.52-4.13-5.52a3.51,3.51,0,0,0-3.73,3.49,3.24,3.24,0,0,0,3.5,3.41,3.83,3.83,0,0,0,3-1.66,3.9,3.9,0,0,1,0,.43c0,2-.85,4.18-3,4.18a2.76,2.76,0,0,1-2.29-1.09l-.67,1A3.71,3.71,0,0,0,644.79,489.18Zm.29-5.28a2.21,2.21,0,0,1-2.46-2.3,2.33,2.33,0,0,1,2.45-2.26c1.86,0,2.56,1.65,2.67,3A3.19,3.19,0,0,1,645.08,483.9Z" style="fill:#fff"/><path id="path22_fill" data-name="path22 fill" d="M701.59,489v-1.18h-5.23c3-2.35,5.18-4.34,5.18-6.51s-1.81-3.14-3.58-3.14a4.62,4.62,0,0,0-3.71,1.68l.82.85a3.57,3.57,0,0,1,2.9-1.34,2,2,0,0,1,2.22,2c0,1.84-2.08,3.62-5.92,6.64V489Zm6.11.19c2.91,0,4.08-2.93,4.08-5.52s-1.17-5.5-4.08-5.5-4.08,2.9-4.08,5.5S704.77,489.19,707.7,489.19Zm0-1.18c-2,0-2.72-2.21-2.72-4.34s.69-4.32,2.72-4.32,2.72,2.19,2.72,4.32S709.73,488,707.7,488Z" style="fill:#fff"/><path id="path23_fill" data-name="path23 fill" d="M765.28,489v-1.18H760c3-2.35,5.18-4.34,5.18-6.51s-1.81-3.14-3.58-3.14a4.62,4.62,0,0,0-3.71,1.68l.82.85a3.57,3.57,0,0,1,2.9-1.34,2,2,0,0,1,2.22,2c0,1.84-2.08,3.62-5.92,6.64V489Zm5.39,0V478.33H769.5l-2.67,2.75.8.82,1.71-1.81V489Z" style="fill:#fff"/><path id="path24_fill" data-name="path24 fill" d="M824.29,489v-1.18h-5.23c3-2.35,5.18-4.34,5.18-6.51s-1.81-3.14-3.58-3.14a4.62,4.62,0,0,0-3.71,1.68l.82.85a3.57,3.57,0,0,1,2.9-1.34,2,2,0,0,1,2.22,2c0,1.84-2.08,3.62-5.92,6.64V489Zm9.41,0v-1.18h-5.23c3-2.35,5.18-4.34,5.18-6.51s-1.81-3.14-3.58-3.14a4.62,4.62,0,0,0-3.71,1.68l.82.85a3.57,3.57,0,0,1,2.9-1.34,2,2,0,0,1,2.22,2c0,1.84-2.08,3.62-5.92,6.64V489Z" style="fill:#fff"/><path id="path25_fill" data-name="path25 fill" d="M885.54,489v-1.18H880.3c3-2.35,5.18-4.34,5.18-6.51s-1.81-3.14-3.58-3.14a4.62,4.62,0,0,0-3.71,1.68l.82.85a3.57,3.57,0,0,1,2.9-1.34,2,2,0,0,1,2.22,2c0,1.84-2.08,3.62-5.92,6.64V489Zm5.47.19c2.35,0,3.78-1.3,3.78-3.07a2.68,2.68,0,0,0-2.46-2.62,2.6,2.6,0,0,0,2.3-2.48c0-1.81-1.57-2.85-3.62-2.85a4.62,4.62,0,0,0-3.65,1.65l.74.83a3.62,3.62,0,0,1,2.82-1.3c1.3,0,2.38.64,2.38,1.82s-1.14,1.76-2.48,1.76c-.43,0-.93,0-1.1,0v1.22c.16,0,.66,0,1.1,0,1.57,0,2.66.56,2.66,1.89s-.94,2-2.5,2a3.71,3.71,0,0,1-3-1.41l-.78.83A4.5,4.5,0,0,0,891,489.19Z" style="fill:#fff"/><path id="path26_fill" data-name="path26 fill" d="M885.53,279v-1.18H880.3c3-2.35,5.18-4.34,5.18-6.51s-1.81-3.14-3.58-3.14a4.62,4.62,0,0,0-3.71,1.68l.82.85a3.57,3.57,0,0,1,2.9-1.34,2,2,0,0,1,2.22,2c0,1.84-2.08,3.62-5.92,6.64V279Zm8.13,0v-2.7h1.5v-1.17h-1.5v-6.8h-1.82l-4.58,6.86v1.1h5.07V279Zm-1.33-3.87h-3.74l3.74-5.57Z" style="fill:#fff"/><path id="path27_fill" data-name="path27 fill" d="M824.27,279v-1.18H819c3-2.35,5.18-4.34,5.18-6.51s-1.81-3.14-3.58-3.14a4.62,4.62,0,0,0-3.71,1.68l.82.85a3.57,3.57,0,0,1,2.9-1.34,2,2,0,0,1,2.22,2c0,1.84-2.08,3.62-5.92,6.64V279Zm6,.19a3.49,3.49,0,0,0,3.79-3.52,3.27,3.27,0,0,0-3.39-3.41,3.61,3.61,0,0,0-2.5,1v-3.71h5.2v-1.18h-6.53v5.76l1,.34a3.35,3.35,0,0,1,2.46-1,2.25,2.25,0,0,1,2.45,2.3A2.3,2.3,0,0,1,830.3,278a3.51,3.51,0,0,1-2.94-1.41l-.82.88A4.36,4.36,0,0,0,830.3,279.19Z" style="fill:#fff"/><path id="path28_fill" data-name="path28 fill" d="M763.26,279v-1.18H758c3-2.35,5.18-4.34,5.18-6.51s-1.81-3.14-3.58-3.14a4.62,4.62,0,0,0-3.71,1.68l.82.85a3.57,3.57,0,0,1,2.9-1.34,2,2,0,0,1,2.22,2c0,1.84-2.08,3.62-5.92,6.64V279Zm6.14.19a3.5,3.5,0,0,0,3.74-3.49,3.23,3.23,0,0,0-3.49-3.41,3.83,3.83,0,0,0-3,1.66,3.62,3.62,0,0,1,0-.42c0-2.1.94-4.19,3-4.19a2.73,2.73,0,0,1,2.29,1.09l.67-1a3.71,3.71,0,0,0-3-1.28c-3,0-4.34,2.62-4.34,5.52S766.43,279.19,769.4,279.19Zm0-1.18c-1.86,0-2.56-1.63-2.69-3a3.28,3.28,0,0,1,2.67-1.6,2.21,2.21,0,0,1,2.46,2.3A2.31,2.31,0,0,1,769.36,278Z" style="fill:#fff"/><path id="path29_fill" data-name="path29 fill" d="M702.37,279v-1.18h-5.23c3-2.35,5.18-4.34,5.18-6.51s-1.81-3.14-3.58-3.14a4.62,4.62,0,0,0-3.71,1.68l.82.85a3.57,3.57,0,0,1,2.9-1.34,2,2,0,0,1,2.22,2c0,1.84-2.08,3.62-5.92,6.64V279Zm4.62,0,4.37-9.76v-.91h-7.28v1.18h5.74l-4.3,9.49Z" style="fill:#fff"/><path id="path30_fill" data-name="path30 fill" d="M641.34,279v-1.18h-5.23c3-2.35,5.18-4.34,5.18-6.51s-1.81-3.14-3.58-3.14a4.62,4.62,0,0,0-3.71,1.68l.82.85a3.57,3.57,0,0,1,2.9-1.34,2,2,0,0,1,2.22,2c0,1.84-2.08,3.62-5.92,6.64V279Zm5.87.19c2.1,0,3.82-1.09,3.82-2.9a3.17,3.17,0,0,0-2.54-2.8,2.82,2.82,0,0,0,2.38-2.56c0-1.92-1.9-2.77-3.66-2.77s-3.65.85-3.65,2.77a2.8,2.8,0,0,0,2.37,2.56,3.17,3.17,0,0,0-2.54,2.8C643.39,278.12,645.1,279.19,647.21,279.19Zm0-6.24c-.64-.11-2.32-.54-2.32-1.84,0-1.1,1-1.76,2.32-1.76s2.32.66,2.32,1.76C649.53,272.41,647.87,272.84,647.21,273Zm0,5.06c-1.33,0-2.5-.7-2.5-1.86,0-1.39,1.84-2,2.5-2.06.66.08,2.48.67,2.48,2.06C649.69,277.3,648.52,278,647.21,278Z" style="fill:#fff"/><path id="path31_fill" data-name="path31 fill" d="M580.26,279v-1.18H575c3-2.35,5.18-4.34,5.18-6.51s-1.81-3.14-3.58-3.14a4.62,4.62,0,0,0-3.71,1.68l.82.85a3.57,3.57,0,0,1,2.9-1.34,2,2,0,0,1,2.22,2c0,1.84-2.08,3.62-5.92,6.64V279Zm5.52.18c3,0,4.34-2.62,4.34-5.5s-1.14-5.52-4.13-5.52a3.51,3.51,0,0,0-3.73,3.49,3.24,3.24,0,0,0,3.5,3.41,3.83,3.83,0,0,0,3-1.66,3.9,3.9,0,0,1,0,.43c0,2-.85,4.18-3,4.18a2.76,2.76,0,0,1-2.29-1.09l-.67,1A3.71,3.71,0,0,0,585.78,279.18Zm.29-5.28a2.21,2.21,0,0,1-2.46-2.3,2.33,2.33,0,0,1,2.45-2.26c1.86,0,2.56,1.65,2.67,3A3.19,3.19,0,0,1,586.07,273.9Z" style="fill:#fff"/><path id="path32_fill" data-name="path32 fill" d="M515.4,279.19c2.35,0,3.78-1.3,3.78-3.07a2.68,2.68,0,0,0-2.46-2.62A2.6,2.6,0,0,0,519,271c0-1.81-1.57-2.85-3.62-2.85a4.62,4.62,0,0,0-3.65,1.65l.74.83a3.62,3.62,0,0,1,2.82-1.3c1.3,0,2.38.64,2.38,1.82s-1.14,1.76-2.48,1.76c-.43,0-.93,0-1.1,0v1.22c.16,0,.66,0,1.1,0,1.57,0,2.66.56,2.66,1.89s-.94,2-2.5,2a3.71,3.71,0,0,1-3-1.41l-.78.83A4.5,4.5,0,0,0,515.4,279.19Zm9.55,0c2.91,0,4.08-2.93,4.08-5.52s-1.17-5.5-4.08-5.5-4.08,2.9-4.08,5.5S522,279.19,525,279.19Zm0-1.18c-2,0-2.72-2.21-2.72-4.34s.69-4.32,2.72-4.32,2.72,2.19,2.72,4.32S527,278,525,278Z" style="fill:#fff"/><path id="path33_fill" data-name="path33 fill" d="M454.59,279.19c2.35,0,3.78-1.3,3.78-3.07a2.68,2.68,0,0,0-2.46-2.62,2.6,2.6,0,0,0,2.3-2.48c0-1.81-1.57-2.85-3.62-2.85a4.62,4.62,0,0,0-3.65,1.65l.74.83a3.62,3.62,0,0,1,2.82-1.3c1.3,0,2.38.64,2.38,1.82s-1.14,1.76-2.48,1.76c-.43,0-.93,0-1.1,0v1.22c.16,0,.66,0,1.1,0,1.57,0,2.66.56,2.66,1.89s-.94,2-2.5,2a3.71,3.71,0,0,1-3-1.41l-.78.83A4.5,4.5,0,0,0,454.59,279.19Zm8.83-.19V268.33h-1.17l-2.67,2.75.8.82,1.71-1.81V279Z" style="fill:#fff"/><path id="path34_fill" data-name="path34 fill" d="M393.6,279.19c2.35,0,3.78-1.3,3.78-3.07a2.68,2.68,0,0,0-2.46-2.62,2.6,2.6,0,0,0,2.3-2.48c0-1.81-1.57-2.85-3.62-2.85a4.62,4.62,0,0,0-3.65,1.65l.74.83a3.62,3.62,0,0,1,2.82-1.3c1.3,0,2.38.64,2.38,1.82s-1.14,1.76-2.48,1.76c-.43,0-.93,0-1.1,0v1.22c.16,0,.66,0,1.1,0,1.57,0,2.66.56,2.66,1.89s-.94,2-2.5,2a3.71,3.71,0,0,1-3-1.41l-.78.83A4.5,4.5,0,0,0,393.6,279.19Zm12.84-.19v-1.18h-5.23c3-2.35,5.18-4.34,5.18-6.51s-1.81-3.14-3.58-3.14a4.62,4.62,0,0,0-3.71,1.68l.82.85a3.57,3.57,0,0,1,2.9-1.34,2,2,0,0,1,2.22,2c0,1.84-2.08,3.62-5.92,6.64V279Z" style="fill:#fff"/><path id="path35_fill" data-name="path35 fill" d="M332.35,279.19c2.35,0,3.78-1.3,3.78-3.07a2.68,2.68,0,0,0-2.46-2.62A2.6,2.6,0,0,0,336,271c0-1.81-1.57-2.85-3.62-2.85a4.62,4.62,0,0,0-3.65,1.65l.74.83a3.62,3.62,0,0,1,2.82-1.3c1.3,0,2.38.64,2.38,1.82s-1.14,1.76-2.48,1.76c-.43,0-.93,0-1.1,0v1.22c.16,0,.66,0,1.1,0,1.57,0,2.66.56,2.66,1.89s-.94,2-2.5,2a3.71,3.71,0,0,1-3-1.41l-.78.83A4.5,4.5,0,0,0,332.35,279.19Zm8.91,0c2.35,0,3.78-1.3,3.78-3.07a2.68,2.68,0,0,0-2.46-2.62,2.6,2.6,0,0,0,2.3-2.48c0-1.81-1.57-2.85-3.62-2.85a4.62,4.62,0,0,0-3.65,1.65l.74.83a3.62,3.62,0,0,1,2.82-1.3c1.3,0,2.38.64,2.38,1.82s-1.14,1.76-2.48,1.76c-.43,0-.93,0-1.1,0v1.22c.16,0,.66,0,1.1,0,1.57,0,2.66.56,2.66,1.89s-.94,2-2.5,2a3.71,3.71,0,0,1-3-1.41l-.78.83A4.5,4.5,0,0,0,341.26,279.19Z" style="fill:#fff"/><path id="path36_fill" data-name="path36 fill" d="M332.34,237.19c2.35,0,3.78-1.3,3.78-3.07a2.68,2.68,0,0,0-2.46-2.62A2.6,2.6,0,0,0,336,229c0-1.81-1.57-2.85-3.62-2.85a4.62,4.62,0,0,0-3.65,1.65l.74.83a3.62,3.62,0,0,1,2.82-1.3c1.3,0,2.38.64,2.38,1.82s-1.14,1.76-2.48,1.76c-.43,0-.93,0-1.1,0v1.22c.16,0,.66,0,1.1,0,1.57,0,2.66.56,2.66,1.89s-.94,2-2.5,2a3.71,3.71,0,0,1-3-1.41l-.78.83A4.5,4.5,0,0,0,332.34,237.19ZM343.9,237v-2.7h1.5v-1.17h-1.5v-6.8h-1.82l-4.58,6.86v1.1h5.07V237Zm-1.33-3.87h-3.74l3.74-5.57Z" style="fill:#fff"/><path id="path37_fill" data-name="path37 fill" d="M393.58,237.19c2.35,0,3.78-1.3,3.78-3.07a2.68,2.68,0,0,0-2.46-2.62,2.6,2.6,0,0,0,2.3-2.48c0-1.81-1.57-2.85-3.62-2.85a4.62,4.62,0,0,0-3.65,1.65l.74.83a3.62,3.62,0,0,1,2.82-1.3c1.3,0,2.38.64,2.38,1.82s-1.14,1.76-2.48,1.76c-.43,0-.93,0-1.1,0v1.22c.16,0,.66,0,1.1,0,1.57,0,2.66.56,2.66,1.89s-.94,2-2.5,2a3.71,3.71,0,0,1-3-1.41l-.78.83A4.5,4.5,0,0,0,393.58,237.19Zm9.47,0a3.49,3.49,0,0,0,3.79-3.52,3.27,3.27,0,0,0-3.39-3.41,3.61,3.61,0,0,0-2.5,1v-3.71h5.2v-1.18h-6.53v5.76l1,.34a3.35,3.35,0,0,1,2.46-1,2.25,2.25,0,0,1,2.45,2.3,2.3,2.3,0,0,1-2.46,2.29,3.51,3.51,0,0,1-2.94-1.41l-.82.88A4.36,4.36,0,0,0,403.05,237.19Z" style="fill:#fff"/><path id="path38_fill" data-name="path38 fill" d="M454.58,237.19c2.35,0,3.78-1.3,3.78-3.07a2.68,2.68,0,0,0-2.46-2.62,2.6,2.6,0,0,0,2.3-2.48c0-1.81-1.57-2.85-3.62-2.85a4.62,4.62,0,0,0-3.65,1.65l.74.83a3.62,3.62,0,0,1,2.82-1.3c1.3,0,2.38.64,2.38,1.82s-1.14,1.76-2.48,1.76c-.43,0-.93,0-1.1,0v1.22c.16,0,.66,0,1.1,0,1.57,0,2.66.56,2.66,1.89s-.94,2-2.5,2a3.71,3.71,0,0,1-3-1.41l-.78.83A4.5,4.5,0,0,0,454.58,237.19Zm9.58,0a3.5,3.5,0,0,0,3.74-3.49,3.23,3.23,0,0,0-3.49-3.41,3.83,3.83,0,0,0-3,1.66,3.62,3.62,0,0,1,0-.42c0-2.1.94-4.19,3-4.19a2.73,2.73,0,0,1,2.29,1.09l.67-1a3.71,3.71,0,0,0-3-1.28c-3,0-4.34,2.62-4.34,5.52S461.18,237.19,464.15,237.19Zm0-1.18c-1.86,0-2.56-1.63-2.69-3a3.28,3.28,0,0,1,2.67-1.6,2.21,2.21,0,0,1,2.46,2.3A2.31,2.31,0,0,1,464.11,236Z" style="fill:#fff"/><path id="path39_fill" data-name="path39 fill" d="M515.69,237.19c2.35,0,3.78-1.3,3.78-3.07A2.68,2.68,0,0,0,517,231.5a2.6,2.6,0,0,0,2.3-2.48c0-1.81-1.57-2.85-3.62-2.85a4.62,4.62,0,0,0-3.65,1.65l.74.83a3.62,3.62,0,0,1,2.82-1.3c1.3,0,2.38.64,2.38,1.82s-1.14,1.76-2.48,1.76c-.43,0-.93,0-1.1,0v1.22c.16,0,.66,0,1.1,0,1.57,0,2.66.56,2.66,1.89s-.94,2-2.5,2a3.71,3.71,0,0,1-3-1.41l-.78.83A4.5,4.5,0,0,0,515.69,237.19Zm8.06-.19,4.37-9.76v-.91h-7.28v1.18h5.74l-4.3,9.49Z" style="fill:#fff"/><path id="path40_fill" data-name="path40 fill" d="M576.65,237.19c2.35,0,3.78-1.3,3.78-3.07A2.68,2.68,0,0,0,578,231.5a2.6,2.6,0,0,0,2.3-2.48c0-1.81-1.57-2.85-3.62-2.85a4.62,4.62,0,0,0-3.65,1.65l.74.83a3.62,3.62,0,0,1,2.82-1.3c1.3,0,2.38.64,2.38,1.82s-1.14,1.76-2.48,1.76c-.43,0-.93,0-1.1,0v1.22c.16,0,.66,0,1.1,0,1.57,0,2.66.56,2.66,1.89s-.94,2-2.5,2a3.71,3.71,0,0,1-3-1.41l-.78.83A4.5,4.5,0,0,0,576.65,237.19Zm9.31,0c2.1,0,3.82-1.09,3.82-2.9a3.17,3.17,0,0,0-2.54-2.8,2.82,2.82,0,0,0,2.38-2.56c0-1.92-1.9-2.77-3.66-2.77s-3.65.85-3.65,2.77a2.8,2.8,0,0,0,2.37,2.56,3.17,3.17,0,0,0-2.54,2.8C582.14,236.12,583.85,237.19,586,237.19Zm0-6.24c-.64-.11-2.32-.54-2.32-1.84,0-1.1,1-1.76,2.32-1.76s2.32.66,2.32,1.76C588.28,230.41,586.62,230.84,586,231Zm0,5.06c-1.33,0-2.5-.7-2.5-1.86,0-1.39,1.84-2,2.5-2.06.66.08,2.48.67,2.48,2.06C588.44,235.3,587.27,236,586,236Z" style="fill:#fff"/><path id="path41_fill" data-name="path41 fill" d="M152.22,27V24.3h1.5V23.13h-1.5v-6.8H150.4l-4.58,6.86v1.1h5.07V27Zm-1.33-3.87h-3.74l3.74-5.57Zm8.27,4.06a3.5,3.5,0,0,0,3.74-3.49,3.23,3.23,0,0,0-3.49-3.41,3.83,3.83,0,0,0-3,1.66,3.62,3.62,0,0,1,0-.42c0-2.1.94-4.19,3-4.19a2.73,2.73,0,0,1,2.29,1.09l.67-1a3.71,3.71,0,0,0-3-1.28c-3,0-4.34,2.62-4.34,5.52S156.19,27.19,159.16,27.19Zm0-1.18c-1.86,0-2.56-1.63-2.69-3a3.28,3.28,0,0,1,2.67-1.6,2.21,2.21,0,0,1,2.46,2.3A2.31,2.31,0,0,1,159.11,26Z" style="fill:#fff"/><path id="path42_fill" data-name="path42 fill" d="M91.23,27V24.3h1.5V23.13h-1.5v-6.8H89.41l-4.58,6.86v1.1H89.9V27ZM89.9,23.13H86.16l3.74-5.57Zm8.15,4.06a3.49,3.49,0,0,0,3.79-3.52,3.27,3.27,0,0,0-3.39-3.41,3.61,3.61,0,0,0-2.5,1V17.51h5.2V16.33H94.63v5.76l1,.34a3.35,3.35,0,0,1,2.46-1,2.25,2.25,0,0,1,2.45,2.3A2.3,2.3,0,0,1,98.06,26a3.51,3.51,0,0,1-2.94-1.41l-.82.88A4.36,4.36,0,0,0,98.06,27.19Z" style="fill:#fff"/><path id="path43_fill" data-name="path43 fill" d="M30,27V24.3h1.5V23.13H30v-6.8H28.17l-4.58,6.86v1.1h5.07V27Zm-1.33-3.87H24.92l3.74-5.57ZM38.91,27V24.3h1.5V23.13h-1.5v-6.8H37.09l-4.58,6.86v1.1h5.07V27Zm-1.33-3.87H33.84l3.74-5.57Z" style="fill:#fff"/><path id="path44_fill" data-name="path44 fill" d="M213.33,27V24.3h1.5V23.13h-1.5v-6.8h-1.82l-4.58,6.86v1.1H212V27ZM212,23.13h-3.74L212,17.56ZM218.75,27l4.37-9.76v-.91h-7.28v1.18h5.74L217.28,27Z" style="fill:#fff"/><path id="path45_fill" data-name="path45 fill" d="M274.3,27V24.3h1.5V23.13h-1.5v-6.8h-1.82l-4.58,6.86v1.1H273V27ZM273,23.13h-3.74L273,17.56Zm8,4.06c2.1,0,3.82-1.09,3.82-2.9a3.17,3.17,0,0,0-2.54-2.8,2.82,2.82,0,0,0,2.38-2.56c0-1.92-1.9-2.77-3.66-2.77s-3.65.85-3.65,2.77a2.8,2.8,0,0,0,2.37,2.56,3.17,3.17,0,0,0-2.54,2.8C277.14,26.12,278.86,27.19,281,27.19ZM281,21c-.64-.11-2.32-.54-2.32-1.84,0-1.1,1-1.76,2.32-1.76s2.32.66,2.32,1.76C283.29,20.41,281.62,20.84,281,21ZM281,26c-1.33,0-2.5-.7-2.5-1.86,0-1.39,1.84-2,2.5-2.06.66.08,2.48.67,2.48,2.06C283.45,25.3,282.28,26,281,26Z" style="fill:#fff"/><path id="path46_fill" data-name="path46 fill" d="M335.22,27V24.3h1.5V23.13h-1.5v-6.8H333.4l-4.58,6.86v1.1h5.07V27Zm-1.33-3.87h-3.74l3.74-5.57Zm7.64,4c3,0,4.34-2.62,4.34-5.5s-1.14-5.52-4.13-5.52A3.51,3.51,0,0,0,338,19.64a3.24,3.24,0,0,0,3.5,3.41,3.83,3.83,0,0,0,3-1.66,3.9,3.9,0,0,1,0,.43c0,2-.85,4.18-3,4.18a2.76,2.76,0,0,1-2.29-1.09l-.67,1A3.71,3.71,0,0,0,341.54,27.18Zm.29-5.28a2.21,2.21,0,0,1-2.46-2.3,2.33,2.33,0,0,1,2.45-2.26c1.86,0,2.56,1.65,2.67,3A3.19,3.19,0,0,1,341.83,21.9Z" style="fill:#fff"/><path id="path47_fill" data-name="path47 fill" d="M393.2,27.19A3.49,3.49,0,0,0,397,23.67a3.27,3.27,0,0,0-3.39-3.41,3.61,3.61,0,0,0-2.5,1V17.51h5.2V16.33h-6.53v5.76l1,.34a3.35,3.35,0,0,1,2.46-1,2.25,2.25,0,0,1,2.45,2.3A2.3,2.3,0,0,1,393.2,26a3.51,3.51,0,0,1-2.94-1.41l-.82.88A4.36,4.36,0,0,0,393.2,27.19Zm9.52,0c2.91,0,4.08-2.93,4.08-5.52s-1.17-5.5-4.08-5.5-4.08,2.9-4.08,5.5S399.79,27.19,402.72,27.19Zm0-1.18c-2,0-2.72-2.21-2.72-4.34s.69-4.32,2.72-4.32,2.72,2.19,2.72,4.32S404.75,26,402.72,26Z" style="fill:#fff"/><path id="path48_fill" data-name="path48 fill" d="M517.89,27.19a3.49,3.49,0,0,0,3.79-3.52,3.27,3.27,0,0,0-3.39-3.41,3.61,3.61,0,0,0-2.5,1V17.51H521V16.33h-6.53v5.76l1,.34a3.35,3.35,0,0,1,2.46-1,2.25,2.25,0,0,1,2.45,2.3A2.3,2.3,0,0,1,517.89,26a3.51,3.51,0,0,1-2.94-1.41l-.82.88A4.36,4.36,0,0,0,517.89,27.19Zm8.8-.19V16.33h-1.17l-2.67,2.75.8.82,1.71-1.81V27Z" style="fill:#fff"/><path id="path49_fill" data-name="path49 fill" d="M576.89,27.19a3.49,3.49,0,0,0,3.79-3.52,3.27,3.27,0,0,0-3.39-3.41,3.61,3.61,0,0,0-2.5,1V17.51H580V16.33h-6.53v5.76l1,.34a3.35,3.35,0,0,1,2.46-1,2.25,2.25,0,0,1,2.45,2.3A2.3,2.3,0,0,1,576.89,26,3.51,3.51,0,0,1,574,24.6l-.82.88A4.36,4.36,0,0,0,576.89,27.19ZM589.71,27V25.82h-5.23c3-2.35,5.18-4.34,5.18-6.51s-1.81-3.14-3.58-3.14a4.62,4.62,0,0,0-3.71,1.68l.82.85a3.57,3.57,0,0,1,2.9-1.34,2,2,0,0,1,2.22,2c0,1.84-2.08,3.62-5.92,6.64V27Z" style="fill:#fff"/><path id="path50_fill" data-name="path50 fill" d="M638.14,27.19a3.49,3.49,0,0,0,3.79-3.52,3.27,3.27,0,0,0-3.39-3.41,3.61,3.61,0,0,0-2.5,1V17.51h5.2V16.33h-6.53v5.76l1,.34a3.35,3.35,0,0,1,2.46-1,2.25,2.25,0,0,1,2.45,2.3A2.3,2.3,0,0,1,638.14,26a3.51,3.51,0,0,1-2.94-1.41l-.82.88A4.36,4.36,0,0,0,638.14,27.19Zm8.88,0c2.35,0,3.78-1.3,3.78-3.07a2.68,2.68,0,0,0-2.46-2.62,2.6,2.6,0,0,0,2.3-2.48c0-1.81-1.57-2.85-3.62-2.85a4.62,4.62,0,0,0-3.65,1.65l.74.83a3.62,3.62,0,0,1,2.82-1.3c1.3,0,2.38.64,2.38,1.82s-1.14,1.76-2.48,1.76c-.43,0-.93,0-1.1,0v1.22c.16,0,.66,0,1.1,0,1.57,0,2.66.56,2.66,1.89s-.94,2-2.5,2a3.71,3.71,0,0,1-3-1.41l-.78.83A4.5,4.5,0,0,0,647,27.19Z" style="fill:#fff"/><path id="path51_fill" data-name="path51 fill" d="M699.14,27.19a3.49,3.49,0,0,0,3.79-3.52,3.27,3.27,0,0,0-3.39-3.41,3.61,3.61,0,0,0-2.5,1V17.51h5.2V16.33h-6.53v5.76l1,.34a3.35,3.35,0,0,1,2.46-1,2.25,2.25,0,0,1,2.45,2.3A2.3,2.3,0,0,1,699.14,26a3.51,3.51,0,0,1-2.94-1.41l-.82.88A4.36,4.36,0,0,0,699.14,27.19ZM710.67,27V24.3h1.5V23.13h-1.5v-6.8h-1.82l-4.58,6.86v1.1h5.07V27Zm-1.33-3.87H705.6l3.74-5.57Z" style="fill:#fff"/><path id="path52_fill" data-name="path52 fill" d="M759.88,27.19a3.49,3.49,0,0,0,3.79-3.52,3.27,3.27,0,0,0-3.39-3.41,3.61,3.61,0,0,0-2.5,1V17.51H763V16.33h-6.53v5.76l1,.34a3.35,3.35,0,0,1,2.46-1,2.25,2.25,0,0,1,2.45,2.3A2.3,2.3,0,0,1,759.88,26a3.51,3.51,0,0,1-2.94-1.41l-.82.88A4.36,4.36,0,0,0,759.88,27.19Zm9.44,0a3.49,3.49,0,0,0,3.79-3.52,3.27,3.27,0,0,0-3.39-3.41,3.61,3.61,0,0,0-2.5,1V17.51h5.2V16.33h-6.53v5.76l1,.34a3.35,3.35,0,0,1,2.46-1,2.25,2.25,0,0,1,2.45,2.3A2.3,2.3,0,0,1,769.32,26a3.51,3.51,0,0,1-2.94-1.41l-.82.88A4.36,4.36,0,0,0,769.32,27.19Z" style="fill:#fff"/><path id="path53_fill" data-name="path53 fill" d="M820.87,27.19a3.49,3.49,0,0,0,3.79-3.52,3.27,3.27,0,0,0-3.39-3.41,3.61,3.61,0,0,0-2.5,1V17.51H824V16.33h-6.53v5.76l1,.34a3.35,3.35,0,0,1,2.46-1,2.25,2.25,0,0,1,2.45,2.3A2.3,2.3,0,0,1,820.87,26a3.51,3.51,0,0,1-2.94-1.41l-.82.88A4.36,4.36,0,0,0,820.87,27.19Zm9.55,0a3.5,3.5,0,0,0,3.74-3.49,3.23,3.23,0,0,0-3.49-3.41,3.83,3.83,0,0,0-3,1.66,3.62,3.62,0,0,1,0-.42c0-2.1.94-4.19,3-4.19a2.73,2.73,0,0,1,2.29,1.09l.67-1a3.71,3.71,0,0,0-3-1.28c-3,0-4.34,2.62-4.34,5.52S827.44,27.19,830.42,27.19Zm0-1.18c-1.86,0-2.56-1.63-2.69-3a3.28,3.28,0,0,1,2.67-1.6,2.21,2.21,0,0,1,2.46,2.3A2.31,2.31,0,0,1,830.37,26Z" style="fill:#fff"/><path id="path54_fill" data-name="path54 fill" d="M882,27.19a3.49,3.49,0,0,0,3.79-3.52,3.27,3.27,0,0,0-3.39-3.41,3.61,3.61,0,0,0-2.5,1V17.51h5.2V16.33h-6.53v5.76l1,.34a3.35,3.35,0,0,1,2.46-1,2.25,2.25,0,0,1,2.45,2.3A2.3,2.3,0,0,1,882,26,3.51,3.51,0,0,1,879,24.6l-.82.88A4.36,4.36,0,0,0,882,27.19Zm8-.19,4.37-9.76v-.91H887.1v1.18h5.74L888.54,27Z" style="fill:#fff"/><path id="path55_fill" data-name="path55 fill" d="M942.95,27.19a3.49,3.49,0,0,0,3.79-3.52,3.27,3.27,0,0,0-3.39-3.41,3.61,3.61,0,0,0-2.5,1V17.51h5.2V16.33h-6.53v5.76l1,.34a3.35,3.35,0,0,1,2.46-1,2.25,2.25,0,0,1,2.45,2.3A2.3,2.3,0,0,1,942.95,26,3.51,3.51,0,0,1,940,24.6l-.82.88A4.36,4.36,0,0,0,942.95,27.19Zm9.28,0c2.1,0,3.82-1.09,3.82-2.9a3.17,3.17,0,0,0-2.54-2.8,2.82,2.82,0,0,0,2.38-2.56c0-1.92-1.9-2.77-3.66-2.77s-3.65.85-3.65,2.77a2.8,2.8,0,0,0,2.37,2.56,3.17,3.17,0,0,0-2.54,2.8C948.4,26.12,950.11,27.19,952.23,27.19Zm0-6.24c-.64-.11-2.32-.54-2.32-1.84,0-1.1,1-1.76,2.32-1.76s2.32.66,2.32,1.76C954.55,20.41,952.88,20.84,952.23,21Zm0,5.06c-1.33,0-2.5-.7-2.5-1.86,0-1.39,1.84-2,2.5-2.06.66.08,2.48.67,2.48,2.06C954.71,25.3,953.54,26,952.23,26Z" style="fill:#fff"/><path id="path56_fill" data-name="path56 fill" d="M637.58,237.19c2.35,0,3.78-1.3,3.78-3.07a2.68,2.68,0,0,0-2.46-2.62,2.6,2.6,0,0,0,2.3-2.48c0-1.81-1.57-2.85-3.62-2.85a4.62,4.62,0,0,0-3.65,1.65l.74.83a3.62,3.62,0,0,1,2.82-1.3c1.3,0,2.38.64,2.38,1.82s-1.14,1.76-2.48,1.76c-.43,0-.93,0-1.1,0v1.22c.16,0,.66,0,1.1,0,1.57,0,2.66.56,2.66,1.89s-.94,2-2.5,2a3.71,3.71,0,0,1-3-1.41l-.78.83A4.5,4.5,0,0,0,637.58,237.19Zm9,0c3,0,4.34-2.62,4.34-5.5s-1.14-5.52-4.13-5.52a3.51,3.51,0,0,0-3.73,3.49,3.24,3.24,0,0,0,3.5,3.41,3.83,3.83,0,0,0,3-1.66,3.9,3.9,0,0,1,0,.43c0,2-.85,4.18-3,4.18a2.76,2.76,0,0,1-2.29-1.09l-.67,1A3.71,3.71,0,0,0,646.53,237.18Zm.29-5.28a2.21,2.21,0,0,1-2.46-2.3,2.33,2.33,0,0,1,2.45-2.26c1.86,0,2.56,1.65,2.67,3A3.19,3.19,0,0,1,646.82,231.9Z" style="fill:#fff"/><path id="path57_fill" data-name="path57 fill" d="M701.05,237v-2.7h1.5v-1.17h-1.5v-6.8h-1.82l-4.58,6.86v1.1h5.07V237Zm-1.33-3.87H696l3.74-5.57Zm8.23,4.06c2.91,0,4.08-2.93,4.08-5.52s-1.17-5.5-4.08-5.5-4.08,2.9-4.08,5.5S705,237.19,708,237.19Zm0-1.18c-2,0-2.72-2.21-2.72-4.34s.69-4.32,2.72-4.32,2.72,2.19,2.72,4.32S710,236,708,236Z" style="fill:#fff"/><path id="path58_fill" data-name="path58 fill" d="M764.24,237v-2.7h1.5v-1.17h-1.5v-6.8h-1.82l-4.58,6.86v1.1h5.07V237Zm-1.33-3.87h-3.74l3.74-5.57Zm7.51,3.87V226.33h-1.17l-2.67,2.75.8.82,1.71-1.81V237Z" style="fill:#fff"/><path id="path59_fill" data-name="path59 fill" d="M823.25,237v-2.7h1.5v-1.17h-1.5v-6.8h-1.82l-4.58,6.86v1.1h5.07V237Zm-1.33-3.87h-3.74l3.74-5.57ZM833.45,237v-1.18h-5.23c3-2.35,5.18-4.34,5.18-6.51s-1.81-3.14-3.58-3.14a4.62,4.62,0,0,0-3.71,1.68l.82.85a3.57,3.57,0,0,1,2.9-1.34,2,2,0,0,1,2.22,2c0,1.84-2.08,3.62-5.92,6.64V237Z" style="fill:#fff"/><path id="path60_fill" data-name="path60 fill" d="M884,237v-2.7h1.5v-1.17H884v-6.8h-1.82l-4.58,6.86v1.1h5.07V237Zm-1.33-3.87h-3.74l3.74-5.57Zm7.59,4.06c2.35,0,3.78-1.3,3.78-3.07a2.68,2.68,0,0,0-2.46-2.62,2.6,2.6,0,0,0,2.3-2.48c0-1.81-1.57-2.85-3.62-2.85a4.62,4.62,0,0,0-3.65,1.65l.74.83a3.62,3.62,0,0,1,2.82-1.3c1.3,0,2.38.64,2.38,1.82s-1.14,1.76-2.48,1.76c-.43,0-.93,0-1.1,0v1.22c.16,0,.66,0,1.1,0,1.57,0,2.66.56,2.66,1.89s-.94,2-2.5,2a3.71,3.71,0,0,1-3-1.41l-.78.83A4.5,4.5,0,0,0,890.26,237.19Z" style="fill:#fff"/><path id="path61_fill" data-name="path61 fill" d="M459.2,531.19a3.5,3.5,0,0,0,3.74-3.49,3.23,3.23,0,0,0-3.49-3.41,3.83,3.83,0,0,0-3,1.66,3.62,3.62,0,0,1,0-.42c0-2.1.94-4.19,3-4.19a2.73,2.73,0,0,1,2.29,1.09l.67-1a3.71,3.71,0,0,0-3-1.28c-3,0-4.34,2.62-4.34,5.52S456.23,531.19,459.2,531.19Zm0-1.18c-1.86,0-2.56-1.63-2.69-3a3.28,3.28,0,0,1,2.67-1.6,2.21,2.21,0,0,1,2.46,2.3A2.31,2.31,0,0,1,459.15,530Z" style="fill:#fff"/><path id="path62_fill" data-name="path62 fill" d="M518.79,531l4.37-9.76v-.91h-7.28v1.18h5.74l-4.3,9.49Z" style="fill:#fff"/><path id="path63_fill" data-name="path63 fill" d="M332.87,741.19a3.49,3.49,0,0,0,3.79-3.52,3.27,3.27,0,0,0-3.39-3.41,3.61,3.61,0,0,0-2.5,1v-3.71H336v-1.18h-6.53v5.76l1,.34a3.35,3.35,0,0,1,2.46-1,2.25,2.25,0,0,1,2.45,2.3,2.3,2.3,0,0,1-2.46,2.29,3.51,3.51,0,0,1-2.94-1.41l-.82.88A4.36,4.36,0,0,0,332.87,741.19Zm8.93,0c3,0,4.34-2.62,4.34-5.5s-1.14-5.52-4.13-5.52a3.51,3.51,0,0,0-3.73,3.49,3.24,3.24,0,0,0,3.5,3.41,3.83,3.83,0,0,0,3-1.66,3.9,3.9,0,0,1,0,.43c0,2-.85,4.18-3,4.18a2.76,2.76,0,0,1-2.29-1.09l-.67,1A3.71,3.71,0,0,0,341.8,741.18Zm.29-5.28a2.21,2.21,0,0,1-2.46-2.3,2.33,2.33,0,0,1,2.45-2.26c1.86,0,2.56,1.65,2.67,3A3.19,3.19,0,0,1,342.08,735.9Z" style="fill:#fff"/><path id="path64_fill" data-name="path64 fill" d="M393.3,741.19A3.5,3.5,0,0,0,397,737.7a3.23,3.23,0,0,0-3.49-3.41,3.83,3.83,0,0,0-3,1.66,3.62,3.62,0,0,1,0-.42c0-2.1.94-4.19,3-4.19a2.73,2.73,0,0,1,2.29,1.09l.67-1a3.71,3.71,0,0,0-3-1.28c-3,0-4.34,2.62-4.34,5.52S390.33,741.19,393.3,741.19Zm0-1.18c-1.86,0-2.56-1.63-2.69-3a3.28,3.28,0,0,1,2.67-1.6,2.21,2.21,0,0,1,2.46,2.3A2.31,2.31,0,0,1,393.26,740Zm9.47,1.18c2.91,0,4.08-2.93,4.08-5.52s-1.17-5.5-4.08-5.5-4.08,2.9-4.08,5.5S399.8,741.19,402.72,741.19Zm0-1.18c-2,0-2.72-2.21-2.72-4.34s.69-4.32,2.72-4.32,2.72,2.19,2.72,4.32S404.76,740,402.72,740Z" style="fill:#fff"/><path id="path65_fill" data-name="path65 fill" d="M457,741.19a3.5,3.5,0,0,0,3.74-3.49,3.23,3.23,0,0,0-3.49-3.41,3.83,3.83,0,0,0-3,1.66,3.62,3.62,0,0,1,0-.42c0-2.1.94-4.19,3-4.19a2.73,2.73,0,0,1,2.29,1.09l.67-1a3.71,3.71,0,0,0-3-1.28c-3,0-4.34,2.62-4.34,5.52S454,741.19,457,741.19Zm0-1.18c-1.86,0-2.56-1.63-2.69-3a3.28,3.28,0,0,1,2.67-1.6,2.21,2.21,0,0,1,2.46,2.3A2.31,2.31,0,0,1,456.94,740Zm8.75,1V730.33h-1.17l-2.67,2.75.8.82,1.71-1.81V741Z" style="fill:#fff"/><path id="path66_fill" data-name="path66 fill" d="M516,741.19a3.5,3.5,0,0,0,3.74-3.49,3.23,3.23,0,0,0-3.49-3.41,3.83,3.83,0,0,0-3,1.66,3.62,3.62,0,0,1,0-.42c0-2.1.94-4.19,3-4.19a2.73,2.73,0,0,1,2.29,1.09l.67-1a3.71,3.71,0,0,0-3-1.28c-3,0-4.34,2.62-4.34,5.52S513,741.19,516,741.19Zm0-1.18c-1.86,0-2.56-1.63-2.69-3a3.28,3.28,0,0,1,2.67-1.6,2.21,2.21,0,0,1,2.46,2.3A2.31,2.31,0,0,1,516,740Zm12.77,1v-1.18h-5.23c3-2.35,5.18-4.34,5.18-6.51s-1.81-3.14-3.58-3.14a4.62,4.62,0,0,0-3.71,1.68l.82.85a3.57,3.57,0,0,1,2.9-1.34,2,2,0,0,1,2.22,2c0,1.84-2.08,3.62-5.92,6.64V741Z" style="fill:#fff"/><path id="path67_fill" data-name="path67 fill" d="M581,531.19c2.1,0,3.82-1.09,3.82-2.9a3.17,3.17,0,0,0-2.54-2.8,2.82,2.82,0,0,0,2.38-2.56c0-1.92-1.9-2.77-3.66-2.77s-3.65.85-3.65,2.77a2.8,2.8,0,0,0,2.37,2.56,3.17,3.17,0,0,0-2.54,2.8C577.18,530.12,578.9,531.19,581,531.19Zm0-6.24c-.64-.11-2.32-.54-2.32-1.84,0-1.1,1-1.76,2.32-1.76s2.32.66,2.32,1.76C583.33,524.41,581.66,524.84,581,525Zm0,5.06c-1.33,0-2.5-.7-2.5-1.86,0-1.39,1.84-2,2.5-2.06.66.08,2.48.67,2.48,2.06C583.49,529.3,582.32,530,581,530Z" style="fill:#fff"/><path id="path68_fill" data-name="path68 fill" d="M641.58,531.18c3,0,4.34-2.62,4.34-5.5s-1.14-5.52-4.13-5.52a3.51,3.51,0,0,0-3.73,3.49,3.24,3.24,0,0,0,3.5,3.41,3.83,3.83,0,0,0,3-1.66,3.9,3.9,0,0,1,0,.43c0,2-.85,4.18-3,4.18a2.76,2.76,0,0,1-2.29-1.09l-.67,1A3.71,3.71,0,0,0,641.58,531.18Zm.29-5.28a2.21,2.21,0,0,1-2.46-2.3,2.33,2.33,0,0,1,2.45-2.26c1.86,0,2.56,1.65,2.67,3A3.19,3.19,0,0,1,641.87,525.9Z" style="fill:#fff"/><path id="path69_fill" data-name="path69 fill" d="M699.57,531V520.33H698.4l-2.67,2.75.8.82,1.71-1.81V531Zm6.14.19c2.91,0,4.08-2.93,4.08-5.52s-1.17-5.5-4.08-5.5-4.08,2.9-4.08,5.5S702.78,531.19,705.71,531.19Zm0-1.18c-2,0-2.72-2.21-2.72-4.34s.69-4.32,2.72-4.32,2.72,2.19,2.72,4.32S707.74,530,705.71,530Z" style="fill:#fff"/><path id="path70_fill" data-name="path70 fill" d="M763.25,531V520.33h-1.17l-2.67,2.75.8.82,1.71-1.81V531Zm5.42,0V520.33h-1.17l-2.67,2.75.8.82,1.71-1.81V531Z" style="fill:#fff"/><path id="path71_fill" data-name="path71 fill" d="M822.26,531V520.33h-1.17l-2.67,2.75.8.82,1.71-1.81V531Zm9.44,0v-1.18h-5.23c3-2.35,5.18-4.34,5.18-6.51s-1.81-3.14-3.58-3.14a4.62,4.62,0,0,0-3.71,1.68l.82.85a3.57,3.57,0,0,1,2.9-1.34,2,2,0,0,1,2.22,2c0,1.84-2.08,3.62-5.92,6.64V531Z" style="fill:#fff"/><path id="path72_fill" data-name="path72 fill" d="M883.51,531V520.33h-1.17l-2.67,2.75.8.82,1.71-1.81V531Zm5.5.19c2.35,0,3.78-1.3,3.78-3.07a2.68,2.68,0,0,0-2.46-2.62,2.6,2.6,0,0,0,2.3-2.48c0-1.81-1.57-2.85-3.62-2.85a4.62,4.62,0,0,0-3.65,1.65l.74.83a3.62,3.62,0,0,1,2.82-1.3c1.3,0,2.38.64,2.38,1.82s-1.14,1.76-2.48,1.76c-.43,0-.93,0-1.1,0v1.22c.16,0,.66,0,1.1,0,1.57,0,2.66.56,2.66,1.89s-.94,2-2.5,2a3.71,3.71,0,0,1-3-1.41l-.78.83A4.5,4.5,0,0,0,889,531.19Z" style="fill:#fff"/><path id="path73_fill" data-name="path73 fill" d="M158.49,439v-1.18h-5.23c3-2.35,5.18-4.34,5.18-6.51s-1.81-3.14-3.58-3.14a4.62,4.62,0,0,0-3.71,1.68l.82.85a3.57,3.57,0,0,1,2.9-1.34,2,2,0,0,1,2.22,2c0,1.84-2.08,3.62-5.92,6.64V439Z" style="fill:#fff"/><path id="path74_fill" data-name="path74 fill" d="M155.3,338.19c2.35,0,3.78-1.3,3.78-3.07a2.68,2.68,0,0,0-2.46-2.62,2.6,2.6,0,0,0,2.3-2.48c0-1.81-1.57-2.85-3.62-2.85a4.62,4.62,0,0,0-3.65,1.65l.74.83a3.62,3.62,0,0,1,2.82-1.3c1.3,0,2.38.64,2.38,1.82s-1.14,1.76-2.48,1.76c-.43,0-.93,0-1.1,0v1.22c.16,0,.66,0,1.1,0,1.57,0,2.66.56,2.66,1.89s-.94,2-2.5,2a3.71,3.71,0,0,1-3-1.41l-.78.83A4.5,4.5,0,0,0,155.3,338.19Z" style="fill:#fff"/></g></svg>
