<svg xmlns="http://www.w3.org/2000/svg" width="34" height="34" viewBox="0 0 34 34"><title>access-control</title><path d="M34,17A17,17,0,1,1,17,0,17,17,0,0,1,34,17Z" style="fill:#303030"/><path d="M32,17A15,15,0,1,1,17,2,15,15,0,0,1,32,17Z" style="fill:#f6f6f6"/><path d="M25.66,11,17.866,6.5a1,1,0,0,0-1.366.366l-8,13.856a1,1,0,0,0,.366,1.366l7.794,4.5a1,1,0,0,0,1.366-.366l8-13.856A1,1,0,0,0,25.66,11Zm-2.48.3a.5.5,0,0,1-.683.183l-3.464-2a.5.5,0,0,1,.5-.866l3.464,2A.5.5,0,0,1,23.18,11.3Z" style="fill:#303030"/></svg>