<svg xmlns="http://www.w3.org/2000/svg" width="538" height="290" viewBox="0 0 538 290"><title>ochakovski-big-logo</title><path d="M27.261,180.9c8.273-.333,14.991,2.112,20.154,7.225a26.071,26.071,0,0,1,7.773,19.286,27.8,27.8,0,0,1-5.774,17.4c-5.108,6.669-12.326,9.949-21.653,9.949s-16.6-3.168-21.709-9.5A27.182,27.182,0,0,1,0,207.467a25.743,25.743,0,0,1,7.884-19.286C13.1,183.012,19.6,180.622,27.261,180.9Zm.444,2.445c-4.775,0-8.384,2.445-10.827,7.281-2,4-3.054,9.726-3.054,17.174q0,13.339,4.664,19.675a10.7,10.7,0,0,0,9.105,4.446,11.045,11.045,0,0,0,6.607-1.89c2.221-1.612,4-4.224,5.274-7.837s1.888-8.281,1.888-14.062c0-6.892-.611-12-1.888-15.451-1.277-3.39-2.887-5.836-4.886-7.225A12,12,0,0,0,27.705,183.346Z" transform="translate(0 0)" style="fill:#4f302f"/><path d="M85.391,190.57H106.1v1.167c-2.776,0-4.442.278-5.052.834s-.944,1.89-.944,4.057v30.4a14.313,14.313,0,0,0,.278,3.335,2.768,2.768,0,0,0,1.277,1.5,6.022,6.022,0,0,0,2.943.556c.222,0,.722,0,1.444.056v1.167H83.67v-1.167a14.482,14.482,0,0,0,4-.445,2.742,2.742,0,0,0,1.555-1.389,6.863,6.863,0,0,0,.5-2.946V213.8c-5.052,2.612-9.605,3.891-13.658,3.891a13.625,13.625,0,0,1-5.719-1.111,6.753,6.753,0,0,1-3.387-3.168,14.116,14.116,0,0,1-1-6v-10.06c0-2.39-.444-3.946-1.277-4.613s-2.387-1-4.608-1V190.57H80.783v1.167a5.218,5.218,0,0,0-3.276.889c-.777.556-1.166,1.779-1.166,3.613V207.8a9.709,9.709,0,0,0,.333,2.946,3.556,3.556,0,0,0,1.555,1.778,6.134,6.134,0,0,0,3.22.778,18,18,0,0,0,8.328-2.223V197.851a19,19,0,0,0-.278-3.891,2.71,2.71,0,0,0-1.222-1.612,5.669,5.669,0,0,0-2.943-.611V190.57Z" transform="translate(0 0)" style="fill:#4f302f"/><path d="M136.027,221.361H120.814l-1.832,4.168a8.975,8.975,0,0,0-.888,3.446,2.885,2.885,0,0,0,1.444,2.668,12.229,12.229,0,0,0,4.22.778v1.167H109.432v-1.167a6.37,6.37,0,0,0,3.831-1.945,25.272,25.272,0,0,0,3.664-6.5l15.379-34.4h.611l15.546,35.348q2.249,5,3.664,6.336a4.937,4.937,0,0,0,3.054,1.167v1.167h-20.82v-1.167h.833a6.075,6.075,0,0,0,3.5-.722,1.765,1.765,0,0,0,.722-1.445,4.237,4.237,0,0,0-.167-1.167c-.056-.167-.333-1-.944-2.39Zm-1.11-2.334-6.385-14.839-6.607,14.839Z" transform="translate(0 0)" style="fill:#4f302f"/><path d="M184.5,207.017l15.157,18.952a24.658,24.658,0,0,0,5.5,5.447,6.884,6.884,0,0,0,3.553,1v1.167H186.273v-1.167a5.32,5.32,0,0,0,2.721-.667,1.532,1.532,0,0,0,.611-1.167c0-.889-1-2.557-2.943-5l-9.883-12.45-1.61,1.334v11.783a12.262,12.262,0,0,0,.389,4.169A3.188,3.188,0,0,0,177,231.8a7.609,7.609,0,0,0,3.442.611v1.167H158.735v-1.167h1.444a5.846,5.846,0,0,0,3-.667,2.676,2.676,0,0,0,1.277-1.5,13.619,13.619,0,0,0,.333-4V197.9a14.6,14.6,0,0,0-.333-4.113,3.138,3.138,0,0,0-1.388-1.445,6.025,6.025,0,0,0-2.887-.611h-1.444v-1.167h21.431v1.167a7.573,7.573,0,0,0-3.331.611,2.676,2.676,0,0,0-1.277,1.5,11.887,11.887,0,0,0-.389,4.057V211.3l15.99-12.95q3.331-2.668,3.331-4.335a2.079,2.079,0,0,0-1.388-1.89,10.775,10.775,0,0,0-3.442-.445V190.51h16.878v1.167a9.547,9.547,0,0,0-3.553.834,54.732,54.732,0,0,0-5.941,4.391Z" transform="translate(0 0)" style="fill:#4f302f"/><path d="M233.244,232.471v1.167H210.758v-1.167H212.2a5.847,5.847,0,0,0,3-.667,2.675,2.675,0,0,0,1.277-1.5,13.618,13.618,0,0,0,.333-4V197.957a14.6,14.6,0,0,0-.333-4.113,3.138,3.138,0,0,0-1.388-1.445,6.025,6.025,0,0,0-2.887-.611h-1.444V190.62h22.486v1.167H231.8a5.847,5.847,0,0,0-3,.667,2.676,2.676,0,0,0-1.277,1.5,13.618,13.618,0,0,0-.333,4V226.3a12.073,12.073,0,0,0,.389,4.113,3.018,3.018,0,0,0,1.444,1.445,6.025,6.025,0,0,0,2.887.611Z" transform="translate(0 0)" style="fill:#4f302f"/><path d="M265.169,210.8c4.109.945,6.94,2.112,8.606,3.446a9.218,9.218,0,0,1,3.553,7.5,9.948,9.948,0,0,1-3.887,8.059c-3.22,2.557-7.828,3.835-13.936,3.835H237.631v-1.167a9.6,9.6,0,0,0,4.053-.556,3.164,3.164,0,0,0,1.5-1.445,13.354,13.354,0,0,0,.444-4.391V198.129a13.353,13.353,0,0,0-.444-4.391,2.933,2.933,0,0,0-1.5-1.445,10.622,10.622,0,0,0-4.053-.556V190.57h20.654q7.412,0,10.493,1.334a10.6,10.6,0,0,1,4.83,3.946,9.85,9.85,0,0,1,1.777,5.558,8.017,8.017,0,0,1-2.276,5.558C271.61,208.522,268.945,209.856,265.169,210.8Zm-11.548,1.612v13.839l-.055,1.612a3.469,3.469,0,0,0,.888,2.612,3.6,3.6,0,0,0,2.609.889,10.128,10.128,0,0,0,4.664-1.112A7.773,7.773,0,0,0,265,226.974a9.825,9.825,0,0,0,1.166-4.78,10.264,10.264,0,0,0-1.388-5.391,7.433,7.433,0,0,0-3.831-3.335C259.284,212.691,256.841,212.413,253.621,212.413Zm0-2.5a16.733,16.733,0,0,0,6.662-1,7.462,7.462,0,0,0,3.276-2.834,8.63,8.63,0,0,0,1.166-4.724,9.074,9.074,0,0,0-1.11-4.669,7.158,7.158,0,0,0-3.22-2.779,17.94,17.94,0,0,0-6.718-.945v16.952Z" transform="translate(0 0)" style="fill:#4f302f"/><path d="M324.466,189.57v14.951h-1.222a15.84,15.84,0,0,0-5.219-8.948,13.436,13.436,0,0,0-8.606-3.112,12.662,12.662,0,0,0-7.384,2.334,13.857,13.857,0,0,0-4.941,6.058,27.674,27.674,0,0,0-2,10.671,37.067,37.067,0,0,0,1.444,10.56,14.205,14.205,0,0,0,4.553,7.17,12.747,12.747,0,0,0,8.05,2.445,15.979,15.979,0,0,0,7.44-1.778,25.181,25.181,0,0,0,7.107-6.114v3.724a24.243,24.243,0,0,1-7.551,5.5,23.22,23.22,0,0,1-9.161,1.723,26.208,26.208,0,0,1-12.215-2.779,19.686,19.686,0,0,1-8.273-7.948,22.027,22.027,0,0,1-2.887-11,23.42,23.42,0,0,1,11.937-20.231,23.435,23.435,0,0,1,11.66-3.057,27.386,27.386,0,0,1,9.605,1.945,14.182,14.182,0,0,0,3.72,1.167,2.429,2.429,0,0,0,1.777-.723,3.81,3.81,0,0,0,.944-2.39h1.222Z" transform="translate(0 0)" style="fill:#4f302f"/><path d="M347.23,210.134h5.663c6.163,0,10.6,1.056,13.381,3.224a10.414,10.414,0,0,1,4.164,8.615,10.013,10.013,0,0,1-2.11,6.336,12.389,12.389,0,0,1-5.274,3.946c-2.11.889-5.219,1.278-9.328,1.278h-23.1v-1.167c2.665-.055,4.386-.389,5.108-1.056.777-.667,1.11-2.112,1.11-4.391V198.407c0-3.057-.333-4.891-.944-5.613-.611-.667-2.276-1.056-4.941-1.056V190.57h22.153v1.167a10.221,10.221,0,0,0-4.053.556,3.088,3.088,0,0,0-1.444,1.334,10.825,10.825,0,0,0-.444,3.946v12.561Zm0,2.779v13.005a8.236,8.236,0,0,0,.833,4.335,3.545,3.545,0,0,0,3.165,1.278,6.583,6.583,0,0,0,5.608-2.5A11.455,11.455,0,0,0,357,216.692a7.6,7.6,0,0,0-3.831-3.112A20.539,20.539,0,0,0,347.23,212.913Z" transform="translate(0 0)" style="fill:#4f302f"/><path d="M401.085,207.017l15.157,18.952a24.658,24.658,0,0,0,5.5,5.447,6.884,6.884,0,0,0,3.553,1v1.167H402.861v-1.167a5.32,5.32,0,0,0,2.721-.667,1.532,1.532,0,0,0,.611-1.167c0-.889-1-2.557-2.943-5l-9.883-12.45-1.61,1.334v11.783a12.26,12.26,0,0,0,.389,4.169,3.188,3.188,0,0,0,1.444,1.389,7.61,7.61,0,0,0,3.442.611v1.167H375.323v-1.167h1.444a5.846,5.846,0,0,0,3-.667,2.675,2.675,0,0,0,1.277-1.5,13.618,13.618,0,0,0,.333-4V197.9a14.6,14.6,0,0,0-.333-4.113,3.138,3.138,0,0,0-1.388-1.445,6.025,6.025,0,0,0-2.887-.611h-1.444v-1.167h21.431v1.167a7.573,7.573,0,0,0-3.331.611,2.676,2.676,0,0,0-1.277,1.5,11.886,11.886,0,0,0-.389,4.057V211.3l15.99-12.95q3.331-2.668,3.331-4.335a2.079,2.079,0,0,0-1.388-1.89,10.775,10.775,0,0,0-3.442-.445V190.51h16.767v1.167a9.548,9.548,0,0,0-3.553.834,54.735,54.735,0,0,0-5.941,4.391Z" transform="translate(0 0)" style="fill:#4f302f"/><path d="M458.938,197.684c0-2.334-.278-3.891-.833-4.724s-1.888-1.223-4.053-1.223h-1.444V190.57h23.1v1.167h-1.5c-2,0-3.331.389-3.942,1.167-.666.778-.944,2.445-.944,5v28.345c0,2.668.333,4.335,1,5.113s1.943,1.112,3.942,1.112h1.5v1.167h-23.1v-1.167h1.444c2,0,3.331-.389,3.942-1.167s.944-2.445.944-5.058v-23.4L443.836,226.7a9.629,9.629,0,0,0,.777,4.446c.5.889,1.888,1.334,4.109,1.334h1.5v1.167h-23.1v-1.167h1.444c2,0,3.331-.389,3.942-1.167s.944-2.445.944-5.058V197.907c0-2.557-.278-4.28-.777-5q-.75-1.167-4.164-1.167h-1.444V190.57h23.1v1.167h-1.5c-1.943,0-3.276.445-3.886,1.278-.666.834-1,2.5-1,4.891v23.621Z" transform="translate(0 0)" style="fill:#4f302f"/><path d="M517.791,190.236c0-2.834-.389-4.724-1-5.669-.666-1-2.276-1.5-4.886-1.5h-1.721v-1.445H538v1.445h-1.777c-2.387,0-4,.445-4.775,1.39s-1.166,2.946-1.166,6.058v34.181c0,3.224.389,5.224,1.166,6.169.777.889,2.387,1.334,4.775,1.334H538v1.445H510.129V232.2h1.721c2.443,0,4-.5,4.775-1.445s1.111-3,1.111-6.058V196.461l-18.322,28.734a11.262,11.262,0,0,0,.944,5.335c.611,1.112,2.276,1.612,5,1.612h1.777v1.445H479.259v-1.445h1.721c2.443,0,4-.5,4.775-1.445s1.166-3,1.166-6.058V190.458c0-3.112-.333-5.113-.944-6.058s-2.276-1.389-5-1.389h-1.721v-1.445h27.872v1.445h-1.777c-2.332,0-3.942.5-4.719,1.5s-1.166,3-1.166,5.947V218.97Zm-9.272-13.617c-5.219,0-9.05-.723-11.382-2.112s-3.5-3.112-3.5-5.169a3.528,3.528,0,0,1,1.11-2.612,3.962,3.962,0,0,1,2.72-1.056c2.054,0,3.664,1.334,4.775,4a6.222,6.222,0,0,0,2.332,3.057,6.987,6.987,0,0,0,3.831.889,7.483,7.483,0,0,0,4.164-.889,8.146,8.146,0,0,0,2.5-3.279c1.222-2.557,2.776-3.779,4.775-3.779a3.723,3.723,0,0,1,2.721,1.056,3.5,3.5,0,0,1,1.11,2.835q0,3-3.664,5C517.569,175.952,513.738,176.619,508.519,176.619Z" transform="translate(0 0)" style="fill:#4f302f"/><path d="M166.674,271.829a13.748,13.748,0,0,1-.666,4.391,9.235,9.235,0,0,1-5.163,5.613,11.408,11.408,0,0,1-4.22.778,10.789,10.789,0,0,1-4.22-.778,7.408,7.408,0,0,1-2.943-2.279,10.323,10.323,0,0,1-1.721-3.779,22.047,22.047,0,0,1-.555-5.391,43.664,43.664,0,0,1,.278-4.835,25.073,25.073,0,0,1,.722-3.946,15.5,15.5,0,0,1,1.11-3,8.383,8.383,0,0,1,1.333-1.945,6.262,6.262,0,0,1,1.333-1.167c.444-.278.944-.556,1.444-.834.555-.222,1.11-.445,1.832-.667.666-.167,1.444-.333,2.276-.5l7.107-1.112a2.722,2.722,0,0,1,.611-.056.5.5,0,0,1,.389.167.68.68,0,0,1,.167.5,4.821,4.821,0,0,1,.055,1,2.94,2.94,0,0,1-.055.723c-.056.222-.056.389-.167.5a.569.569,0,0,1-.333.278c-.167.056-.333.111-.555.167l-6.663,1.056c-.666.111-1.277.222-1.777.333a7.485,7.485,0,0,0-1.333.445c-.389.167-.722.333-1.055.5a5.074,5.074,0,0,0-.888.723,6.418,6.418,0,0,0-.833,1.112,9.378,9.378,0,0,0-.611,1.5,14.808,14.808,0,0,0-.444,1.834c-.111.667-.222,1.389-.333,2.112a11.623,11.623,0,0,1,1.555-1.334,17.778,17.778,0,0,1,1.721-1.056,9.989,9.989,0,0,1,1.943-.667,8.937,8.937,0,0,1,2.165-.222,9.951,9.951,0,0,1,3.775.667,7.2,7.2,0,0,1,2.665,1.945,7.966,7.966,0,0,1,1.555,3.057A17.474,17.474,0,0,1,166.674,271.829Zm-3.831.278a13.563,13.563,0,0,0-.278-2.668,6.662,6.662,0,0,0-.888-2.223,4.1,4.1,0,0,0-1.666-1.556,5.107,5.107,0,0,0-2.554-.611,5.617,5.617,0,0,0-1.721.222,9.88,9.88,0,0,0-1.61.667,8.986,8.986,0,0,0-1.555,1.112c-.5.445-1.055,1-1.666,1.612v1.667a28.5,28.5,0,0,0,.278,4.057,9.264,9.264,0,0,0,1,2.89,4.347,4.347,0,0,0,1.832,1.778,6.026,6.026,0,0,0,2.776.611,5.4,5.4,0,0,0,2.554-.556,5.651,5.651,0,0,0,1.888-1.5,7.379,7.379,0,0,0,1.166-2.39A9.176,9.176,0,0,0,162.844,272.106Z" transform="translate(0 0)" style="fill:#9b6940"/><path d="M176.335,256.042a2.131,2.131,0,0,1-.5,1.667,3.772,3.772,0,0,1-3.553,0,3.032,3.032,0,0,1,0-3.335,3.772,3.772,0,0,1,3.553,0A2.3,2.3,0,0,1,176.335,256.042Zm-.389,25.622a.425.425,0,0,1-.111.278,1.211,1.211,0,0,1-.278.222,1.391,1.391,0,0,1-.555.111,7.137,7.137,0,0,1-1.777,0,4.8,4.8,0,0,1-.555-.111.391.391,0,0,1-.278-.222.417.417,0,0,1-.056-.278V262.544a.5.5,0,0,1,.056-.278.554.554,0,0,1,.278-.222,1.641,1.641,0,0,1,.555-.111,4.209,4.209,0,0,1,.888-.056,3.946,3.946,0,0,1,.888.056,4.8,4.8,0,0,1,.555.111.554.554,0,0,1,.278.222c.056.111.111.167.111.278Z" transform="translate(0 0)" style="fill:#9b6940"/><path d="M196.545,276.38a5.837,5.837,0,0,1-.611,2.612,5.268,5.268,0,0,1-1.721,1.945,7.659,7.659,0,0,1-2.721,1.223,14.706,14.706,0,0,1-3.664.445,13.173,13.173,0,0,1-2.165-.167,15.091,15.091,0,0,1-1.832-.389,6.561,6.561,0,0,1-1.388-.556,1.859,1.859,0,0,1-.777-.5.943.943,0,0,1-.333-.333l-.167-.333a1.084,1.084,0,0,1-.056-.445c0-.167-.056-.389-.056-.667a1.55,1.55,0,0,1,.056-.556,3.545,3.545,0,0,1,.111-.389.768.768,0,0,1,.167-.222.333.333,0,0,1,.222-.056,1.539,1.539,0,0,1,.666.278,10.574,10.574,0,0,0,1.166.611,16.59,16.59,0,0,0,1.832.667,9.34,9.34,0,0,0,2.665.278,7.6,7.6,0,0,0,2-.222,4.688,4.688,0,0,0,1.5-.667,3.06,3.06,0,0,0,.944-1.111,3.387,3.387,0,0,0,.333-1.556,2.527,2.527,0,0,0-1.388-2.334,6.348,6.348,0,0,0-1.832-.667,12.239,12.239,0,0,0-2.665-.222h-2.221c-.167,0-.278,0-.333-.056a.433.433,0,0,1-.222-.222.862.862,0,0,1-.111-.445c0-.167-.055-.389-.055-.611a2.086,2.086,0,0,1,.055-.611,3.544,3.544,0,0,1,.111-.389.434.434,0,0,1,.222-.222.7.7,0,0,1,.333-.056h2.165a9.964,9.964,0,0,0,2.387-.222,5.806,5.806,0,0,0,1.666-.611,2.619,2.619,0,0,0,1.332-2.39,2.242,2.242,0,0,0-.333-1.223,3.181,3.181,0,0,0-.833-.889,5.5,5.5,0,0,0-1.277-.556,7.53,7.53,0,0,0-1.61-.167,10.062,10.062,0,0,0-2.387.278,7.864,7.864,0,0,0-1.832.667c-.5.222-.944.445-1.277.611a2.356,2.356,0,0,1-.666.278.334.334,0,0,1-.222-.056l-.167-.167a.8.8,0,0,1-.111-.389c0-.167-.056-.333-.056-.611a4.99,4.99,0,0,1,.111-1,1.057,1.057,0,0,1,.389-.611,3.939,3.939,0,0,1,.944-.611,8.246,8.246,0,0,1,1.555-.611,19.908,19.908,0,0,1,1.943-.445,14.206,14.206,0,0,1,2.165-.167,13.044,13.044,0,0,1,3,.333,7.4,7.4,0,0,1,2.332,1,4.3,4.3,0,0,1,1.5,1.667,5.17,5.17,0,0,1,.555,2.334,4.768,4.768,0,0,1-.278,1.5,4.65,4.65,0,0,1-.777,1.334,4.535,4.535,0,0,1-1.221,1.056,5.97,5.97,0,0,1-1.61.723h-.055a5.053,5.053,0,0,1,1.721.5,7.057,7.057,0,0,1,1.5,1,4.876,4.876,0,0,1,1.055,1.5A4.99,4.99,0,0,1,196.545,276.38Z" transform="translate(0 0)" style="fill:#9b6940"/><path d="M219.475,281.666a.425.425,0,0,1-.111.278,1.21,1.21,0,0,1-.278.222,1.393,1.393,0,0,1-.555.111,4.207,4.207,0,0,1-.888.056,3.945,3.945,0,0,1-.888-.056,4.83,4.83,0,0,1-.555-.111.555.555,0,0,1-.278-.222.425.425,0,0,1-.111-.278v-8.392H205.595v8.392a.425.425,0,0,1-.111.278,1.212,1.212,0,0,1-.278.222,1.393,1.393,0,0,1-.555.111,7.125,7.125,0,0,1-1.777,0,4.829,4.829,0,0,1-.555-.111.391.391,0,0,1-.278-.222.417.417,0,0,1-.056-.278V262.547a.417.417,0,0,1,.056-.278,1.211,1.211,0,0,1,.278-.222,1.641,1.641,0,0,1,.555-.111c.222,0,.555-.056.888-.056a3.947,3.947,0,0,1,.888.056,1.392,1.392,0,0,1,.555.111.554.554,0,0,1,.278.222.425.425,0,0,1,.111.278v7.781h10.216v-7.781a.425.425,0,0,1,.111-.278,1.212,1.212,0,0,1,.278-.222,1.392,1.392,0,0,1,.555-.111c.222,0,.555-.056.888-.056a4.209,4.209,0,0,1,.888.056,1.392,1.392,0,0,1,.555.111.554.554,0,0,1,.278.222.425.425,0,0,1,.111.278Z" transform="translate(0 0)" style="fill:#9b6940"/><path d="M243.35,271.272a1.426,1.426,0,0,1-.444,1.167,1.549,1.549,0,0,1-1,.333H228.747a11.8,11.8,0,0,0,.333,2.89,5.737,5.737,0,0,0,1.11,2.168,4.991,4.991,0,0,0,2.054,1.389,8.166,8.166,0,0,0,3.054.5,12.146,12.146,0,0,0,2.554-.222c.722-.167,1.388-.333,1.943-.5a8.558,8.558,0,0,0,1.333-.5,1.857,1.857,0,0,1,.777-.222.416.416,0,0,1,.278.056c.055.055.167.111.167.222a3.563,3.563,0,0,1,.111.389c0,.167.055.389.055.667v.5c0,.111-.055.278-.055.389a.425.425,0,0,1-.111.278.433.433,0,0,1-.222.222,3.359,3.359,0,0,1-.722.389,12.964,12.964,0,0,1-1.555.5,17.369,17.369,0,0,1-2.221.445,19.864,19.864,0,0,1-2.665.222,12.667,12.667,0,0,1-4.331-.667,8.462,8.462,0,0,1-3.109-1.945,7.971,7.971,0,0,1-1.888-3.279,14.078,14.078,0,0,1-.666-4.557,13.853,13.853,0,0,1,.666-4.446,8.966,8.966,0,0,1,1.943-3.335,8.591,8.591,0,0,1,3.054-2.112,10.059,10.059,0,0,1,4-.723,9.7,9.7,0,0,1,4,.723,7.584,7.584,0,0,1,2.72,1.945,7.662,7.662,0,0,1,1.555,2.89,12.13,12.13,0,0,1,.5,3.5v.723Zm-3.664-1.056a6.225,6.225,0,0,0-1.277-4.335,4.915,4.915,0,0,0-4-1.556,5.391,5.391,0,0,0-2.387.5A5.8,5.8,0,0,0,230.3,266.1a5.724,5.724,0,0,0-1.055,1.89,7.535,7.535,0,0,0-.444,2.223Z" transform="translate(0 0)" style="fill:#9b6940"/><path d="M263.281,278.773v.611c0,.167-.056.333-.056.445-.056.111-.056.222-.111.333a1.769,1.769,0,0,1-.333.389,6.2,6.2,0,0,1-.944.667,9.4,9.4,0,0,1-1.5.722,8.826,8.826,0,0,1-1.832.5,12.122,12.122,0,0,1-2,.167,10.249,10.249,0,0,1-3.831-.667,6.747,6.747,0,0,1-2.776-2,9.407,9.407,0,0,1-1.721-3.224,14.972,14.972,0,0,1-.611-4.391,13.861,13.861,0,0,1,.722-4.835,9.877,9.877,0,0,1,2-3.335,8.014,8.014,0,0,1,2.943-1.945,10.887,10.887,0,0,1,5.5-.445,12.029,12.029,0,0,1,1.666.445,7.407,7.407,0,0,1,1.332.611,4.029,4.029,0,0,1,.833.611l.389.389.167.333c.055.111.055.278.111.445v.611a2.054,2.054,0,0,1-.222,1.167.534.534,0,0,1-.5.333,1.323,1.323,0,0,1-.777-.333,12.15,12.15,0,0,0-1.11-.778,8.7,8.7,0,0,0-1.61-.778,6.672,6.672,0,0,0-2.221-.333,4.733,4.733,0,0,0-4.053,1.945,9.492,9.492,0,0,0-1.388,5.669,11.144,11.144,0,0,0,.389,3.223,6.478,6.478,0,0,0,1.055,2.334,4.545,4.545,0,0,0,1.721,1.389,6.306,6.306,0,0,0,2.387.445,5.471,5.471,0,0,0,2.221-.389q.916-.417,1.666-.834a10.61,10.61,0,0,0,1.166-.834c.333-.222.555-.389.722-.389.111,0,.167.056.278.111a1.213,1.213,0,0,1,.167.278,1.11,1.11,0,0,1,.111.5A4.212,4.212,0,0,1,263.281,278.773Z" transform="translate(0 0)" style="fill:#9b6940"/><path d="M277.161,271.489a2.055,2.055,0,0,1-.222,1.167.611.611,0,0,1-.555.333h-9.272a.7.7,0,0,1-.611-.333,2.582,2.582,0,0,1-.222-1.112,1.96,1.96,0,0,1,.222-1.112.638.638,0,0,1,.611-.333h9.272a.7.7,0,0,1,.333.056.434.434,0,0,1,.222.222,3.833,3.833,0,0,1,.167.445A2.293,2.293,0,0,1,277.161,271.489Z" transform="translate(0 0)" style="fill:#9b6940"/><path d="M302.7,288.72c0,.167-.167.278-.389.333a5.264,5.264,0,0,1-1.11.111,6.073,6.073,0,0,1-1.222-.111c-.278-.111-.389-.222-.389-.333v-6.5H283.213a1.129,1.129,0,0,1-.833-.333,1.21,1.21,0,0,1-.278-.945V262.487a.417.417,0,0,1,.056-.278,1.211,1.211,0,0,1,.278-.222,1.641,1.641,0,0,1,.555-.111c.222,0,.555-.056.888-.056a3.947,3.947,0,0,1,.888.056,1.392,1.392,0,0,1,.555.111.554.554,0,0,1,.278.222.425.425,0,0,1,.111.278v16.674h9.605V262.487a.424.424,0,0,1,.111-.278,1.21,1.21,0,0,1,.278-.222,1.641,1.641,0,0,1,.555-.111c.222,0,.555-.056.888-.056a3.947,3.947,0,0,1,.888.056,1.392,1.392,0,0,1,.555.111.554.554,0,0,1,.278.222.425.425,0,0,1,.111.278v16.674h2.776a1.145,1.145,0,0,1,.722.167.967.967,0,0,1,.167.667v8.726Z" transform="translate(0 0)" style="fill:#9b6940"/><path d="M323.411,271.272a1.426,1.426,0,0,1-.444,1.167,1.549,1.549,0,0,1-1,.333H308.808a11.8,11.8,0,0,0,.333,2.89,5.737,5.737,0,0,0,1.11,2.168,4.991,4.991,0,0,0,2.054,1.389,8.166,8.166,0,0,0,3.054.5,12.146,12.146,0,0,0,2.554-.222c.722-.167,1.388-.333,1.943-.5a8.568,8.568,0,0,0,1.333-.5,1.857,1.857,0,0,1,.777-.222.416.416,0,0,1,.278.056c.055.055.167.111.167.222a3.541,3.541,0,0,1,.111.389c0,.167.055.389.055.667v.5c0,.111-.055.278-.055.389a.425.425,0,0,1-.111.278.433.433,0,0,1-.222.222,3.359,3.359,0,0,1-.722.389,12.964,12.964,0,0,1-1.555.5,17.369,17.369,0,0,1-2.221.445,19.864,19.864,0,0,1-2.665.222,12.667,12.667,0,0,1-4.331-.667,8.462,8.462,0,0,1-3.109-1.945,7.971,7.971,0,0,1-1.888-3.279,14.078,14.078,0,0,1-.666-4.557,13.853,13.853,0,0,1,.666-4.446,8.966,8.966,0,0,1,1.943-3.335,8.591,8.591,0,0,1,3.054-2.112,10.059,10.059,0,0,1,4-.723,9.7,9.7,0,0,1,4,.723,7.586,7.586,0,0,1,2.721,1.945,7.663,7.663,0,0,1,1.555,2.89,12.13,12.13,0,0,1,.5,3.5v.723Zm-3.72-1.056a6.226,6.226,0,0,0-1.277-4.335,4.915,4.915,0,0,0-4-1.556,5.391,5.391,0,0,0-2.387.5,5.8,5.8,0,0,0-1.721,1.278,5.724,5.724,0,0,0-1.055,1.89,7.535,7.535,0,0,0-.444,2.223Z" transform="translate(0 0)" style="fill:#9b6940"/><path d="M346.507,281.666a.424.424,0,0,1-.111.278,1.21,1.21,0,0,1-.278.222,1.393,1.393,0,0,1-.555.111,4.207,4.207,0,0,1-.888.056,3.945,3.945,0,0,1-.888-.056,4.83,4.83,0,0,1-.555-.111.555.555,0,0,1-.278-.222.425.425,0,0,1-.111-.278v-8.392H332.627v8.392a.425.425,0,0,1-.111.278,1.212,1.212,0,0,1-.278.222,1.393,1.393,0,0,1-.555.111,7.125,7.125,0,0,1-1.777,0,4.829,4.829,0,0,1-.555-.111.554.554,0,0,1-.278-.222.417.417,0,0,1-.056-.278V262.547a.417.417,0,0,1,.056-.278,1.211,1.211,0,0,1,.278-.222,1.641,1.641,0,0,1,.555-.111c.222,0,.555-.056.888-.056a3.947,3.947,0,0,1,.888.056,1.392,1.392,0,0,1,.555.111.554.554,0,0,1,.278.222.425.425,0,0,1,.111.278v7.781h10.216v-7.781a.425.425,0,0,1,.111-.278,1.212,1.212,0,0,1,.278-.222,1.392,1.392,0,0,1,.555-.111c.222,0,.555-.056.888-.056a4.209,4.209,0,0,1,.888.056,1.392,1.392,0,0,1,.555.111.554.554,0,0,1,.278.222.424.424,0,0,1,.111.278Z" transform="translate(0 0)" style="fill:#9b6940"/><path d="M367.272,263.6a2.94,2.94,0,0,1-.056.723c-.055.222-.055.389-.167.5a1.212,1.212,0,0,1-.222.278.789.789,0,0,1-.333.111h-6v16.507a.425.425,0,0,1-.111.278,1.212,1.212,0,0,1-.278.222,1.392,1.392,0,0,1-.555.111,7.124,7.124,0,0,1-1.777,0,4.786,4.786,0,0,1-.555-.111.391.391,0,0,1-.278-.222.417.417,0,0,1-.056-.278V265.208h-6a.789.789,0,0,1-.333-.111.555.555,0,0,1-.222-.278,2.586,2.586,0,0,1-.167-.5,2.939,2.939,0,0,1-.056-.723,2.292,2.292,0,0,1,.056-.667,2.586,2.586,0,0,1,.167-.5,1.212,1.212,0,0,1,.222-.278.6.6,0,0,1,.333-.111H366.55a.789.789,0,0,1,.333.111.555.555,0,0,1,.222.278,2.586,2.586,0,0,1,.167.5Z" transform="translate(0 0)" style="fill:#9b6940"/><path d="M389.315,271.826a16.126,16.126,0,0,1-.555,4.5,10.183,10.183,0,0,1-1.666,3.39,7.369,7.369,0,0,1-2.721,2.168,8.719,8.719,0,0,1-3.72.778,7.682,7.682,0,0,1-1.666-.167,5.473,5.473,0,0,1-1.5-.556,10.141,10.141,0,0,1-1.444-.889,15.308,15.308,0,0,1-1.5-1.278v9.56a.425.425,0,0,1-.111.278.555.555,0,0,1-.278.222,1.391,1.391,0,0,1-.555.111,7.137,7.137,0,0,1-1.777,0,4.8,4.8,0,0,1-.555-.111.391.391,0,0,1-.278-.222.5.5,0,0,1-.056-.278V262.6a.706.706,0,0,1,.056-.333.6.6,0,0,1,.278-.222,1.108,1.108,0,0,1,.5-.111c.222,0,.444-.056.777-.056a3.174,3.174,0,0,1,.777.056,1.108,1.108,0,0,1,.5.111.554.554,0,0,1,.278.222c.056.056.056.167.056.333v2.557a14.831,14.831,0,0,1,1.777-1.556,11.354,11.354,0,0,1,1.721-1.112,9.737,9.737,0,0,1,1.777-.667,7.029,7.029,0,0,1,1.888-.222,7.821,7.821,0,0,1,3.72.834,7.376,7.376,0,0,1,2.5,2.223,8.746,8.746,0,0,1,1.388,3.279A20.985,20.985,0,0,1,389.315,271.826Zm-3.775.389a15.449,15.449,0,0,0-.222-2.834,8.474,8.474,0,0,0-.833-2.445,4.65,4.65,0,0,0-1.555-1.723,4.137,4.137,0,0,0-2.387-.611,3.83,3.83,0,0,0-1.388.222,5.048,5.048,0,0,0-1.388.611,6.872,6.872,0,0,0-1.5,1.167c-.5.5-1.055,1.056-1.666,1.779v7.614a18.19,18.19,0,0,0,2.887,2.723,5.111,5.111,0,0,0,2.887.945,4.613,4.613,0,0,0,2.387-.611,4.794,4.794,0,0,0,1.61-1.723,8.183,8.183,0,0,0,.888-2.39A15.635,15.635,0,0,0,385.539,272.215Z" transform="translate(0 0)" style="fill:#9b6940"/><path d="M314.638,74.182c-2.887-1.334-7.995-4.446-10.271-5.447-2.776-1.278-9.272-5.836-13.048-6.114s-9.05,1.056-12.936,2.334-14.658,6.169-20.21,5.725-14.436-5.28-14.436-5.28.167,2.668.666,5.836c1.943,12.561,10.438,12.894,21.487,12.505,5.163-.167,18.1-7.781,18.1-7.781,4.108-2.668-25.207,26.289-61.962,17.618-27.372-6.447-35.367-24.677-34.867-38.794A98.121,98.121,0,0,1,189.549,38a14.632,14.632,0,0,0,.333-2.89s-13.769,20.286-13.6,40.183c.167,22.621,11.382,38.961,27.372,44.519,10.938,3.779,25.207,6.614,38.476,2.334,16.99-5.5,31.036-20.731,35.755-25.177,7.662-7.17,13.048-12.505,13.048-12.505S253.176,127.7,231.8,126.7s-45.527-12.116-45.527-12.116a6.566,6.566,0,0,1,1,2.056c4.886,16.563,27.094,37.238,43.584,36.849,26.539-.556,46.582-15.229,62.072-50.021,5.108-11.449,17.045-23.677,21.21-23.9C317.081,79.407,318.192,75.85,314.638,74.182Z" transform="translate(0 0)" style="fill:#9b6940"/><path d="M238.241,73.025a53.27,53.27,0,0,1,3.22-24.177c13.714-34.737,49.636-36.626,76.231-28.234,10.16,3.224,15.879,7.5,15.879,7.5A60.064,60.064,0,0,0,316.081,12c-30.148-18.452-73.232-.389-80.561,31.068C232.133,57.686,237.408,70.58,238.241,73.025Z" transform="translate(0 0)" style="fill:#9b6940"/><path d="M264.78.656c-36.2,4.28-60.185,43.852-42.751,74.364A33.538,33.538,0,0,0,233.966,87.08,34.269,34.269,0,0,1,223.25,80.3c-19.321-18.285-11.16-50.743,5.719-65.583C235.409,9.048,236.8,4.1,236.8,4.1c-1.555-.056-6-1.167-15.324,3.279C190.6,22.053,180,65.627,208.648,86.969c12.048,8.948,35.867,3,38.365,3.5a1.257,1.257,0,0,0-.555-.167h.111c-.444-.667-6.329-5.669-11.271-17.841-11.326-27.789,8.384-55.634,31.814-64.86C275.884,4.157,279.937.822,279.937.822,278.494.267,275.718-.623,264.78.656Z" transform="translate(0 0)" style="fill:#9b6940"/><path d="M337.069,32.22s4.275,18.174,5.163,26.678c2.943,27.234-7.106,45.63-27.76,52.077-11.826,3.724-18.711,3.5-18.711,3.5l1.5,3.724-7.384-1.834.389,4.613-4.275-2.779-.944,6.5-1.277-2.056s-6.663,13.172-15.157,19.452-30.925,16.118-30.925,16.118,10.16,2.39,17.767,3.891,28.482,3.334,35.922-.167c7.384-3.5,9.827-7.225,9.827-7.225a17.835,17.835,0,0,0,18.155-5.169c8.328-8.726,8.328-13.339,8.328-13.339s9.605-.556,16.1-12.783,6.274-22.787,6.274-22.787,6.662-10.727,2.942-35.4S337.069,32.22,337.069,32.22Z" transform="translate(0 0)" style="fill:#4f302f"/></svg>