<?xml version="1.0" standalone="no"?>
<!DOCTYPE svg PUBLIC "-//W3C//DTD SVG 20010904//EN"
 "http://www.w3.org/TR/2001/REC-SVG-20010904/DTD/svg10.dtd">
<svg version="1.0" xmlns="http://www.w3.org/2000/svg"
 width="300.000000pt" height="300.000000pt" viewBox="0 0 300.000000 300.000000"
 preserveAspectRatio="xMidYMid meet">
<metadata>
Created by potrace 1.11, written by Peter Selinger 2001-2013
</metadata>
<g transform="translate(0.000000,300.000000) scale(0.100000,-0.100000)"
fill="#000000" stroke="none">
<path d="M1520 2883 c-232 -30 -415 -116 -574 -271 -123 -120 -216 -285 -253
-447 -2 -11 -7 -31 -10 -45 -12 -54 -6 -226 11 -295 31 -124 90 -231 171 -313
68 -68 70 -71 31 -50 -22 13 -73 55 -112 93 -80 79 -143 193 -165 300 -20 97
-14 236 15 349 46 178 134 323 284 469 54 52 97 115 97 142 0 17 -113 6 -180
-19 -152 -55 -327 -189 -414 -318 -94 -140 -151 -314 -153 -468 -2 -149 17
-233 80 -355 43 -82 174 -221 240 -254 115 -58 331 -73 552 -37 14 3 30 5 37
5 7 1 -2 16 -18 34 -74 78 -151 220 -190 347 -32 107 -32 282 0 395 79 273
289 502 566 617 39 16 103 48 143 70 65 38 71 43 51 50 -20 8 -151 8 -209 1z"/>
<path d="M1878 2815 c-1 -1 -32 -5 -68 -9 -94 -8 -126 -15 -209 -42 -321 -107
-545 -336 -606 -620 -20 -94 -13 -264 15 -369 12 -44 24 -83 28 -87 4 -4 7 28
6 71 -2 189 76 402 203 558 95 116 268 223 425 262 280 70 643 23 906 -119 84
-46 82 -37 -15 64 -164 167 -368 268 -573 282 -47 3 -90 7 -97 9 -6 2 -13 2
-15 0z"/>
<path d="M2715 2331 c7 -13 71 -328 82 -406 15 -113 7 -332 -16 -420 -82 -315
-291 -478 -685 -535 -39 -6 -71 -12 -73 -14 -2 -2 1 -15 7 -30 9 -25 8 -26
-18 -20 -15 4 -37 11 -50 15 -37 14 -42 11 -42 -27 l0 -36 -35 22 -34 21 -7
-51 c-5 -39 -9 -48 -19 -40 -10 8 -20 -1 -41 -37 -41 -72 -126 -183 -175 -230
-62 -58 -185 -132 -393 -233 l-179 -87 54 -11 c30 -6 108 -22 174 -36 66 -13
138 -27 160 -31 77 -11 380 -14 435 -4 69 13 141 49 202 100 43 36 51 39 96
35 64 -5 137 10 182 39 74 47 156 142 195 227 22 47 31 58 58 64 44 9 130 68
173 118 71 82 164 326 164 429 0 17 11 63 25 103 35 102 44 178 41 344 -7 299
-87 540 -234 702 -31 34 -62 53 -47 29z"/>
<path d="M192 2237 c-46 -76 -107 -211 -136 -300 -40 -122 -55 -213 -54 -321
4 -341 159 -613 413 -724 205 -90 505 -117 680 -62 201 63 362 177 659 465 12
11 44 40 71 64 28 24 -11 -17 -86 -91 -324 -320 -600 -501 -774 -510 -126 -6
-456 67 -649 144 -28 11 -72 28 -97 38 l-46 19 14 -40 c74 -217 303 -462 526
-564 61 -28 176 -55 210 -50 12 2 57 6 99 9 43 4 117 18 165 32 305 88 528
301 729 699 99 196 114 222 167 290 92 118 185 201 235 211 38 8 55 26 50 55
-2 17 -40 43 -173 115 -93 51 -188 99 -210 107 -68 24 -145 11 -337 -54 -98
-33 -200 -62 -226 -66 -57 -6 -137 14 -226 58 l-59 29 6 -57 c14 -128 46 -184
127 -225 50 -25 61 -26 175 -25 l121 2 117 57 c64 32 117 54 117 50 -1 -13
-152 -115 -244 -163 -189 -99 -359 -140 -571 -135 -153 4 -162 5 -285 42 -182
56 -318 145 -404 269 -119 168 -139 343 -75 628 6 26 9 50 7 52 -2 3 -18 -19
-36 -48z"/>
</g>
</svg>
