<?xml version="1.0" standalone="no"?>
<!DOCTYPE svg PUBLIC "-//W3C//DTD SVG 20010904//EN"
 "http://www.w3.org/TR/2001/REC-SVG-20010904/DTD/svg10.dtd">
<svg version="1.0" xmlns="http://www.w3.org/2000/svg"
 width="250.000000pt" height="250.000000pt" viewBox="0 0 250.000000 250.000000"
 preserveAspectRatio="xMidYMid meet">
<metadata>
Created by potrace 1.11, written by Peter Selinger 2001-2013
</metadata>
<g transform="translate(0.000000,250.000000) scale(0.100000,-0.100000)"
fill="#000000" stroke="none">
<path d="M1166 2389 c-61 -12 -122 -34 -194 -70 -86 -43 -119 -66 -186 -133
-130 -127 -193 -240 -231 -409 -8 -38 -8 -171 1 -222 16 -104 74 -221 145
-295 39 -41 43 -48 19 -34 -242 144 -299 509 -124 807 25 44 79 113 125 160
44 45 89 98 99 118 19 36 19 37 -1 42 -11 3 -30 4 -42 2 -12 -2 -33 -6 -47 -9
-43 -7 -126 -43 -181 -79 -220 -140 -354 -392 -343 -641 5 -96 16 -140 60
-234 40 -84 142 -196 212 -231 86 -44 214 -55 402 -36 47 5 89 8 93 7 4 -1
-16 28 -44 65 -184 240 -204 517 -56 767 70 119 207 245 332 308 28 13 90 44
139 69 49 24 89 49 88 54 -3 17 -171 14 -266 -6z"/>
<path d="M1468 2304 c-320 -50 -579 -276 -632 -553 -13 -70 -14 -167 -2 -241
8 -46 35 -150 40 -150 1 0 3 32 4 71 6 309 183 568 456 666 159 57 363 63 563
18 87 -20 195 -59 260 -95 31 -16 58 -28 61 -26 2 3 -30 39 -71 80 -194 194
-419 271 -679 230z"/>
<path d="M178 1858 c-27 -41 -90 -171 -115 -238 -122 -319 -44 -679 184 -851
81 -61 195 -104 358 -133 42 -8 182 -8 230 -1 103 16 215 64 337 146 72 49
127 96 259 223 58 55 118 112 134 126 27 23 27 22 -6 -20 -145 -188 -361 -375
-534 -462 -128 -65 -203 -83 -345 -82 -144 1 -278 38 -448 125 -126 65 -125
66 -72 -42 73 -144 261 -318 424 -389 57 -26 166 -49 204 -45 15 2 56 6 90 10
35 3 94 15 130 27 268 82 452 271 635 651 26 54 66 124 89 155 60 83 152 171
204 193 84 38 72 58 -81 139 -55 29 -120 64 -145 78 -37 22 -56 26 -115 25
-69 -1 -89 -6 -275 -71 -123 -43 -152 -45 -240 -16 -41 14 -79 30 -85 35 -5 5
-16 9 -25 9 -15 0 -16 -7 -8 -57 16 -110 64 -170 147 -188 19 -4 68 -7 110 -7
78 0 158 24 239 74 52 32 48 14 -5 -25 -114 -84 -280 -158 -419 -187 -120 -25
-307 -21 -414 10 -213 61 -360 178 -426 340 -36 86 -41 240 -13 375 10 49 17
91 15 92 -2 2 -10 -7 -18 -19z"/>
<path d="M2310 1851 c0 -5 7 -43 15 -83 9 -40 18 -89 21 -108 3 -19 9 -53 14
-75 14 -64 5 -311 -14 -380 -24 -90 -82 -197 -135 -252 -95 -99 -204 -152
-384 -187 -76 -15 -106 -25 -102 -33 3 -7 8 -20 12 -29 5 -14 2 -16 -22 -10
-86 22 -85 22 -85 -18 l0 -37 -30 21 c-33 24 -36 21 -44 -40 -2 -19 -5 -37 -5
-39 -1 -3 -7 3 -14 13 -11 15 -18 10 -62 -55 -98 -144 -180 -207 -430 -329
l-110 -54 75 -18 c139 -33 261 -46 410 -44 80 2 156 5 168 9 35 9 113 57 143
86 23 23 33 26 100 26 62 0 81 4 119 27 68 39 141 129 162 198 9 27 19 40 31
40 34 0 107 43 148 87 66 72 128 225 143 353 3 25 12 65 21 90 81 224 33 588
-103 798 -35 53 -42 60 -42 43z"/>
</g>
</svg>
