<svg xmlns="http://www.w3.org/2000/svg" style="display:none"><symbol id="it-doors-logo" viewBox="0 0 90.001 32"><title>it-doors-logo</title><path d="M43.66 22.8a3.091 3.091 0 0 0-.5.037 1.62 1.62 0 0 0-.416.123.755.755 0 0 0-.318.271.867.867 0 0 0-.11.456v2.306c0 .555.441.839 1.347.839s1.335-.259 1.335-.826V23.7c-.003-.6-.444-.9-1.338-.9zM58.2 11.478a2.448 2.448 0 0 0-1.445.3 1.224 1.224 0 0 0-.367 1.011V16.1a1.165 1.165 0 0 0 .355.962 3.983 3.983 0 0 0 2.89 0A1.071 1.071 0 0 0 60 16.1v-3.315a1.3 1.3 0 0 0-.355-1.011 2.448 2.448 0 0 0-1.445-.296zM48.374 9.371A4.969 4.969 0 0 0 46.3 9.05h-2.138v7.744h2.057a6.885 6.885 0 0 0 2.228-.247c.416-.16.612-.543.612-1.147v-4.845a1.209 1.209 0 0 0-.685-1.184zM68.858 11.478a2.448 2.448 0 0 0-1.445.3 1.221 1.221 0 0 0-.355 1.011V16.1a1.165 1.165 0 0 0 .355.962 2.565 2.565 0 0 0 1.445.271 2.538 2.538 0 0 0 1.445-.271 1.1 1.1 0 0 0 .367-.962v-3.315a1.257 1.257 0 0 0-.367-1.011 2.448 2.448 0 0 0-1.445-.296zM88.117 24.012a1.338 1.338 0 0 0-.722.123.583.583 0 0 0-.171.481v1.64a.562.562 0 0 0 .184.493 1.609 1.609 0 0 0 .735.111 1.579 1.579 0 0 0 .735-.123c.135-.062.208-.222.208-.469v-1.64a.551.551 0 0 0-.184-.481 1.546 1.546 0 0 0-.785-.135zM62.535 24a1.588 1.588 0 0 0-.771.123c-.135.086-.2.284-.2.617v1.467a1.528 1.528 0 0 0 .049.382.365.365 0 0 0 .2.21.859.859 0 0 0 .294.074 7.886 7.886 0 0 0 .882 0 1.284 1.284 0 0 0 .294-.074.365.365 0 0 0 .2-.21 2.982 2.982 0 0 0 .024-.382v-1.463c0-.333-.073-.543-.2-.617a1.755 1.755 0 0 0-.772-.127z" fill="none"/><path d="M50.6 7.78a9.031 9.031 0 0 0-4.261-.74H41.37V18.8h4.983a9.345 9.345 0 0 0 4.3-.7 2.833 2.833 0 0 0 1.224-2.7v-4.784A3.022 3.022 0 0 0 50.6 7.78zm-1.541 7.62c0 .6-.2.987-.612 1.147a6.885 6.885 0 0 1-2.228.247h-2.057V9.05H46.3a4.969 4.969 0 0 1 2.069.321 1.209 1.209 0 0 1 .686 1.184zM62.365 17.249a3.467 3.467 0 0 0 .269-1.455V13.2a3.744 3.744 0 0 0-.282-1.554 2.65 2.65 0 0 0-.686-.987 2.919 2.919 0 0 0-1.053-.53 5.873 5.873 0 0 0-1.162-.229 15.838 15.838 0 0 0-2.5 0 5.873 5.873 0 0 0-1.163.234 2.736 2.736 0 0 0-1.053.53 2.65 2.65 0 0 0-.686.987 3.953 3.953 0 0 0-.279 1.549v2.59a3.506 3.506 0 0 0 .269 1.455 2.469 2.469 0 0 0 .661.937 2.847 2.847 0 0 0 1.041.518 8.063 8.063 0 0 0 1.175.222c.355.037.784.049 1.286.049s.931-.025 1.286-.049a5.721 5.721 0 0 0 1.175-.222 2.848 2.848 0 0 0 1.041-.518 2.649 2.649 0 0 0 .661-.933zM60 16.1a1.071 1.071 0 0 1-.367.962 3.983 3.983 0 0 1-2.89 0 1.165 1.165 0 0 1-.355-.962v-3.315a1.224 1.224 0 0 1 .367-1.011 3.675 3.675 0 0 1 2.89 0A1.3 1.3 0 0 1 60 12.785zM72.347 10.664a2.92 2.92 0 0 0-1.053-.53 5.868 5.868 0 0 0-1.163-.234 15.838 15.838 0 0 0-2.5 0 5.869 5.869 0 0 0-1.163.234 2.737 2.737 0 0 0-1.053.53 2.651 2.651 0 0 0-.686.987 3.953 3.953 0 0 0-.279 1.549v2.59a3.506 3.506 0 0 0 .269 1.455 2.629 2.629 0 0 0 .673.937 2.693 2.693 0 0 0 1.029.518 8.063 8.063 0 0 0 1.175.222c.355.037.784.049 1.286.049s.931-.025 1.286-.049a5.725 5.725 0 0 0 1.175-.222 2.888 2.888 0 0 0 1.029-.518 2.65 2.65 0 0 0 .661-.937 3.467 3.467 0 0 0 .269-1.455V13.2a4.2 4.2 0 0 0-.269-1.554 2.65 2.65 0 0 0-.686-.982zM70.67 16.1a1.1 1.1 0 0 1-.367.962 2.538 2.538 0 0 1-1.445.271 2.565 2.565 0 0 1-1.445-.271 1.165 1.165 0 0 1-.355-.962v-3.315a1.221 1.221 0 0 1 .355-1.011 3.675 3.675 0 0 1 2.89 0 1.257 1.257 0 0 1 .367 1.011zM78.585 10.38a1.542 1.542 0 0 0-.747 1.184v-1.541h-2.5V18.8h2.633v-5.275a1.231 1.231 0 0 1 .551-1.147 3.187 3.187 0 0 1 1.628-.333h.894V9.85H80.1a2.527 2.527 0 0 0-1.515.53zM86.8 13.266h-1.146a1.076 1.076 0 0 1-.7-.185.491.491 0 0 1-.22-.395v-.469a.591.591 0 0 1 .282-.592 3.809 3.809 0 0 1 1.384-.148c.245 0 1.3.074 3.171.222V10.01c-1.494-.111-2.522-.16-3.1-.16a9.069 9.069 0 0 0-3.2.456 1.653 1.653 0 0 0-1.139 1.652v1.073a1.878 1.878 0 0 0 .771 1.628 3.591 3.591 0 0 0 2.13.555h1.147a1.657 1.657 0 0 1 1 .21.8.8 0 0 1 .233.629v.547a.6.6 0 0 1-.429.6 3.809 3.809 0 0 1-1.2.148 26.519 26.519 0 0 1-3.477-.382v1.763a25.823 25.823 0 0 0 3.445.271c.49 0 .918-.025 1.286-.049a6.424 6.424 0 0 0 1.139-.185 2.829 2.829 0 0 0 .967-.407 2.041 2.041 0 0 0 .612-.74A2.3 2.3 0 0 0 90 16.5v-1.11c0-1.409-1.065-2.112-3.2-2.124zM43.66 22.32c-1.347 0-2.02.469-2.02 1.393v2.294c0 .888.673 1.319 2.02 1.319a3.987 3.987 0 0 0 .686-.049 3.208 3.208 0 0 0 .649-.185 1.064 1.064 0 0 0 .514-.407 1.192 1.192 0 0 0 .184-.678v-2.294c0-.913-.674-1.381-2.033-1.393zm1.335 3.687c0 .567-.441.839-1.335.826s-1.347-.284-1.347-.839v-2.305a.867.867 0 0 1 .11-.456.755.755 0 0 1 .318-.271 1.62 1.62 0 0 1 .416-.123 3.091 3.091 0 0 1 .5-.037c.894 0 1.335.3 1.335.9zM50.044 26.365a.389.389 0 0 1-.22.382 2.185 2.185 0 0 1-.771.1 1.329 1.329 0 0 1-.416-.049.393.393 0 0 1-.233-.136.625.625 0 0 1-.086-.185 1.112 1.112 0 0 1-.025-.222V23.64h-.673v2.651a1.063 1.063 0 0 0 .269.777 1.417 1.417 0 0 0 .98.259q1.065 0 1.175-.518v.444h.673V23.64h-.673zM53.858 26.762a.686.686 0 0 1-.147-.518v-2.158h1.273v-.444H53.7V22.52h-.673v1.122h-.8v.444h.8v2.121a1.2 1.2 0 0 0 .269.888 1.428 1.428 0 0 0 .943.234 4.82 4.82 0 0 0 .747-.062H55v-.432c-.282.037-.465.062-.539.062a.948.948 0 0 1-.603-.135zM58.089 25.116h-.416q-.661 0-.661-.37v-.308a.38.38 0 0 1 .2-.345 1.581 1.581 0 0 1 .722-.111 6.633 6.633 0 0 1 1.114.111v-.481c-.612-.037-.967-.062-1.09-.062-1.065 0-1.6.284-1.6.851v.333a.781.781 0 0 0 .294.641 1.318 1.318 0 0 0 .857.234h.416a.994.994 0 0 1 .5.1.357.357 0 0 1 .159.333v.37a.345.345 0 0 1-.22.358 1.9 1.9 0 0 1-.673.086 8.567 8.567 0 0 1-1.249-.136v.518a8.939 8.939 0 0 0 1.237.086 2.47 2.47 0 0 0 1.163-.222.826.826 0 0 0 .4-.8v-.308c-.002-.582-.382-.866-1.153-.878zM63.894 23.868a.67.67 0 0 0-.355-.21 2.129 2.129 0 0 0-.441-.086c-.135-.012-.331-.012-.563-.012s-.429 0-.563.012a2.129 2.129 0 0 0-.441.086.877.877 0 0 0-.367.21 1.111 1.111 0 0 0-.208.382 1.751 1.751 0 0 0-.086.6v1.258a1.741 1.741 0 0 0 .11.678.7.7 0 0 0 .355.37 1.941 1.941 0 0 0 .5.148c.171.012.4.025.7.025.233 0 .416 0 .563-.012a2.129 2.129 0 0 0 .441-.086.894.894 0 0 0 .355-.2.835.835 0 0 0 .208-.358 1.536 1.536 0 0 0 .086-.567v-1.251a1.751 1.751 0 0 0-.086-.6 1.112 1.112 0 0 0-.208-.387zm-.394 2.343a2.982 2.982 0 0 1-.024.382.365.365 0 0 1-.2.21 1.284 1.284 0 0 1-.294.074 7.886 7.886 0 0 1-.882 0 .859.859 0 0 1-.294-.074.365.365 0 0 1-.2-.21 1.528 1.528 0 0 1-.049-.382v-1.467c0-.333.061-.53.2-.617a1.588 1.588 0 0 1 .778-.127 1.755 1.755 0 0 1 .771.123c.122.074.2.284.2.617zM68.537 26.365a.389.389 0 0 1-.22.382 2.185 2.185 0 0 1-.771.1 1.328 1.328 0 0 1-.416-.049.394.394 0 0 1-.233-.136.454.454 0 0 1-.1-.185.615.615 0 0 1-.025-.222V23.64H66.1v2.651a1.015 1.015 0 0 0 .269.777 1.417 1.417 0 0 0 .98.259q1.065 0 1.175-.518v.444h.676V23.64h-.661zM72.165 23.767a.584.584 0 0 0-.318.469v-.592h-.637v3.613h.673V24.7a.46.46 0 0 1 .22-.444 1.366 1.366 0 0 1 .673-.123h.38v-.563h-.331a1.213 1.213 0 0 0-.66.197zM75.342 26.729a.6.6 0 0 1-.2-.53v-1.48a.725.725 0 0 1 .171-.567 1.31 1.31 0 0 1 .722-.136 4.45 4.45 0 0 1 1.1.148v-.493a4.864 4.864 0 0 0-1.029-.111c-.2 0-.343 0-.453.012s-.233.025-.38.049a.8.8 0 0 0-.343.111 1.376 1.376 0 0 0-.245.222.828.828 0 0 0-.171.345 2.144 2.144 0 0 0-.061.518v1.333a1.536 1.536 0 0 0 .086.567.919.919 0 0 0 .208.345.7.7 0 0 0 .355.185 3.326 3.326 0 0 0 .416.074c.122.012.294.012.514.012a5.281 5.281 0 0 0 1.151-.111h.017v-.493a4.878 4.878 0 0 1-1.09.136 1.492 1.492 0 0 1-.768-.136zM78.9 23.637h.661v3.613H78.9zM78.9 22.33h.661v.703H78.9zM83.437 23.55q-1.065 0-1.175.518v-.444H81.6v3.613h.661v-2.614a.515.515 0 0 1 .2-.469 1.614 1.614 0 0 1 .784-.123 1.328 1.328 0 0 1 .416.049.477.477 0 0 1 .233.148.453.453 0 0 1 .1.185 1.111 1.111 0 0 1 .025.222v2.614h.673v-2.663a1.014 1.014 0 0 0-.269-.777 1.4 1.4 0 0 0-.986-.259z" fill="#fff"/><path fill="none" d="M89.758 23.629v.037"/><path d="M89.121 24.012c-.11-.3-.477-.432-1.1-.432a1.8 1.8 0 0 0-1.126.271 1.128 1.128 0 0 0-.343.925v1.467a1.051 1.051 0 0 0 .306.851 1.875 1.875 0 0 0 1.126.247 2.4 2.4 0 0 0 .759-.111c.22-.074.331-.185.343-.358v.863a.616.616 0 0 1-.233.543 1.432 1.432 0 0 1-.747.16 11.076 11.076 0 0 1-1.3-.111v.481a6.741 6.741 0 0 0 1.237.086 2.5 2.5 0 0 0 1.286-.271 1.123 1.123 0 0 0 .429-1.036v-3.921h-.637zm-.037 2.257c0 .247-.073.407-.208.469a1.579 1.579 0 0 1-.735.123 1.609 1.609 0 0 1-.735-.111.562.562 0 0 1-.184-.493v-1.64a.583.583 0 0 1 .171-.481 1.338 1.338 0 0 1 .722-.123 1.546 1.546 0 0 1 .784.136.551.551 0 0 1 .184.481z" fill="#fff"/><g><path d="M0 32l14.362-2.8V2.8L0 0zm6.54-21.94H8.7v11.888H6.54zM17.53 29.2L31.892 32V0L17.53 2.8zm2.29-19.14h8.914v1.813h-3.4v10.062h-2.147V11.873H19.82z"/></g></symbol><symbol id="ochakovski-bc" viewBox="0 0 336.688 73.742"><title>ochakovski-bc</title><path d="M106.707 15.764a11.6 11.6 0 0 1 12.573 11.934 12.472 12.472 0 0 1-2.6 7.83 11.578 11.578 0 0 1-9.745 4.484q-6.312 0-9.762-4.277a12.384 12.384 0 0 1-2.725-8.02 11.664 11.664 0 0 1 3.544-8.684 11.284 11.284 0 0 1 8.715-3.267zm.207 1.1a5.27 5.27 0 0 0-4.881 3.277 17.513 17.513 0 0 0-1.363 7.727q0 5.985 2.1 8.848a4.8 4.8 0 0 0 4.1 2 4.922 4.922 0 0 0 2.966-.862 7.084 7.084 0 0 0 2.363-3.527 19.6 19.6 0 0 0 .845-6.321 21 21 0 0 0-.862-6.942 6.759 6.759 0 0 0-2.2-3.251 5.186 5.186 0 0 0-3.068-.945zM132.884 20.103h9.332v.529a4.094 4.094 0 0 0-2.286.379 2.642 2.642 0 0 0-.414 1.822v13.665a5.631 5.631 0 0 0 .136 1.508 1.177 1.177 0 0 0 .586.672 2.82 2.82 0 0 0 1.336.25q.157 0 .643.014v.529h-10.076v-.529a6.621 6.621 0 0 0 1.793-.2 1.236 1.236 0 0 0 .707-.615 3 3 0 0 0 .229-1.329v-6.25a13.622 13.622 0 0 1-6.144 1.755 6.108 6.108 0 0 1-2.579-.493 3.019 3.019 0 0 1-1.515-1.415 6.334 6.334 0 0 1-.45-2.694v-4.53q0-1.629-.572-2.086a3.474 3.474 0 0 0-2.086-.457v-.525h9.317v.529a2.424 2.424 0 0 0-1.472.393 1.967 1.967 0 0 0-.529 1.636v5.2a4.619 4.619 0 0 0 .143 1.329 1.537 1.537 0 0 0 .7.793 2.676 2.676 0 0 0 1.443.35 8.174 8.174 0 0 0 3.744-1v-5.959a8.113 8.113 0 0 0-.121-1.744 1.213 1.213 0 0 0-.55-.729 2.509 2.509 0 0 0-1.315-.271zM155.678 33.963h-6.845l-.815 1.886a4.2 4.2 0 0 0-.4 1.558 1.294 1.294 0 0 0 .657 1.2 5.525 5.525 0 0 0 1.9.343v.529h-6.445v-.529a2.882 2.882 0 0 0 1.715-.864 11.492 11.492 0 0 0 1.658-2.922l6.932-15.466h.271l6.988 15.9a9.671 9.671 0 0 0 1.643 2.844 2.243 2.243 0 0 0 1.372.514v.529h-9.375v-.529h.392a2.935 2.935 0 0 0 1.586-.314.763.763 0 0 0 .314-.657 1.751 1.751 0 0 0-.086-.529q-.029-.129-.429-1.072zm-.486-1.057l-2.887-6.674-2.971 6.666zM177.5 27.518l6.817 8.531a10.941 10.941 0 0 0 2.483 2.449 3.047 3.047 0 0 0 1.6.457v.529h-10.084v-.529a2.7 2.7 0 0 0 1.236-.3.645.645 0 0 0 .279-.529 5.23 5.23 0 0 0-1.315-2.258l-4.444-5.588-.715.6v5.287a6 6 0 0 0 .172 1.886 1.441 1.441 0 0 0 .657.636 3.425 3.425 0 0 0 1.558.264v.529h-9.775v-.534h.643a2.681 2.681 0 0 0 1.358-.3 1.3 1.3 0 0 0 .572-.686 5.89 5.89 0 0 0 .157-1.8V23.417a6.373 6.373 0 0 0-.157-1.858 1.431 1.431 0 0 0-.636-.65 2.568 2.568 0 0 0-1.293-.279h-.643v-.527h9.646v.529a3.15 3.15 0 0 0-1.5.286 1.368 1.368 0 0 0-.586.672 5.633 5.633 0 0 0-.172 1.829v6.031l7.188-5.816q1.5-1.215 1.5-1.943a.954.954 0 0 0-.614-.858 4.915 4.915 0 0 0-1.558-.2v-.53h7.56v.529a4.258 4.258 0 0 0-1.593.364 22.786 22.786 0 0 0-2.665 1.979zM199.467 38.95v.529h-10.131v-.529h.643a2.681 2.681 0 0 0 1.358-.3 1.3 1.3 0 0 0 .572-.686 5.89 5.89 0 0 0 .157-1.8V23.417a6.374 6.374 0 0 0-.157-1.858 1.431 1.431 0 0 0-.636-.65 2.568 2.568 0 0 0-1.293-.279h-.643v-.527h10.132v.529h-.643a2.68 2.68 0 0 0-1.358.3 1.367 1.367 0 0 0-.586.686 5.881 5.881 0 0 0-.157 1.8v12.746a6.1 6.1 0 0 0 .164 1.858 1.472 1.472 0 0 0 .643.65 2.568 2.568 0 0 0 1.293.279zM213.826 29.198a9.9 9.9 0 0 1 3.873 1.558 4.145 4.145 0 0 1 1.6 3.373 4.465 4.465 0 0 1-1.758 3.615q-2.158 1.729-6.273 1.729h-9.842v-.529a4.45 4.45 0 0 0 1.822-.25 1.46 1.46 0 0 0 .672-.65 5.92 5.92 0 0 0 .193-1.972V23.503a6 6 0 0 0-.193-1.979 1.412 1.412 0 0 0-.679-.65 4.575 4.575 0 0 0-1.815-.243v-.528h9.289a13.193 13.193 0 0 1 4.716.593 4.909 4.909 0 0 1 2.186 1.772 4.388 4.388 0 0 1 .8 2.508 3.563 3.563 0 0 1-1.015 2.494 7.286 7.286 0 0 1-3.576 1.728zm-5.2.729v6.221l-.014.715a1.384 1.384 0 0 0 1.557 1.558 4.457 4.457 0 0 0 2.108-.507 3.472 3.472 0 0 0 1.479-1.472 4.5 4.5 0 0 0 .515-2.151 4.75 4.75 0 0 0-.629-2.437 3.391 3.391 0 0 0-1.729-1.508 9.392 9.392 0 0 0-3.287-.413zm0-1.115a7.367 7.367 0 0 0 2.994-.457 3.4 3.4 0 0 0 1.479-1.286 3.951 3.951 0 0 0 .515-2.115 3.961 3.961 0 0 0-.507-2.108 3.223 3.223 0 0 0-1.451-1.25 7.714 7.714 0 0 0-3.03-.414zM240.541 19.658v6.717h-.557a7.157 7.157 0 0 0-2.344-4.03 5.981 5.981 0 0 0-3.887-1.4 5.746 5.746 0 0 0-3.33 1.043 6.082 6.082 0 0 0-2.215 2.73 12.354 12.354 0 0 0-.9 4.8 16.053 16.053 0 0 0 .657 4.737 6.3 6.3 0 0 0 2.058 3.23 5.728 5.728 0 0 0 3.63 1.093 7.087 7.087 0 0 0 3.351-.8 11.587 11.587 0 0 0 3.208-2.758v1.672a10.582 10.582 0 0 1-3.394 2.465 10.307 10.307 0 0 1-4.123.765 11.836 11.836 0 0 1-5.509-1.243 8.786 8.786 0 0 1-3.716-3.573 9.972 9.972 0 0 1-1.308-4.959 10.576 10.576 0 0 1 10.6-10.489 11.885 11.885 0 0 1 4.316.886 6.643 6.643 0 0 0 1.672.514 1.085 1.085 0 0 0 .793-.336 1.825 1.825 0 0 0 .436-1.065zM250.774 28.898h2.558q4.144 0 6.016 1.458a4.678 4.678 0 0 1 1.872 3.887 4.465 4.465 0 0 1-.95 2.858 5.773 5.773 0 0 1-2.387 1.786 11.6 11.6 0 0 1-4.194.586H243.3v-.529a3.951 3.951 0 0 0 2.308-.479 2.689 2.689 0 0 0 .507-1.965V23.631a4.463 4.463 0 0 0-.422-2.515 3.487 3.487 0 0 0-2.236-.486v-.527h9.975v.529a4.545 4.545 0 0 0-1.822.257 1.522 1.522 0 0 0-.643.6 4.8 4.8 0 0 0-.193 1.772zm0 1.257v5.843a3.622 3.622 0 0 0 .386 1.951 1.612 1.612 0 0 0 1.429.564 2.959 2.959 0 0 0 2.522-1.129 4.547 4.547 0 0 0 .85-2.815 4.671 4.671 0 0 0-.772-2.737 3.34 3.34 0 0 0-1.722-1.393 9.831 9.831 0 0 0-2.693-.282zM275.026 27.518l6.816 8.531a10.941 10.941 0 0 0 2.484 2.444 3.047 3.047 0 0 0 1.6.457v.529h-10.085v-.529a2.706 2.706 0 0 0 1.236-.3.645.645 0 0 0 .279-.529 5.228 5.228 0 0 0-1.315-2.258l-4.441-5.588-.715.6v5.287a6.009 6.009 0 0 0 .171 1.886 1.442 1.442 0 0 0 .657.636 3.424 3.424 0 0 0 1.558.264v.529h-9.775v-.529h.643a2.681 2.681 0 0 0 1.358-.3 1.3 1.3 0 0 0 .572-.686 5.9 5.9 0 0 0 .157-1.8V23.417a6.386 6.386 0 0 0-.157-1.858 1.431 1.431 0 0 0-.636-.65 2.569 2.569 0 0 0-1.293-.279h-.643v-.527h9.646v.529a3.151 3.151 0 0 0-1.5.286 1.37 1.37 0 0 0-.586.672 5.643 5.643 0 0 0-.171 1.829v6.031l7.188-5.816q1.5-1.215 1.5-1.943a.954.954 0 0 0-.614-.858 4.916 4.916 0 0 0-1.558-.2v-.53h7.56v.529a4.26 4.26 0 0 0-1.593.364 22.808 22.808 0 0 0-2.665 1.979zM301.08 23.298a4.294 4.294 0 0 0-.379-2.122q-.364-.55-1.822-.55h-.643v-.528h10.39v.529h-.672a2.309 2.309 0 0 0-1.779.514 3.853 3.853 0 0 0-.436 2.257v12.751a3.869 3.869 0 0 0 .443 2.294 2.333 2.333 0 0 0 1.772.507h.672v.529h-10.39v-.529h.643a2.223 2.223 0 0 0 1.779-.536 4.046 4.046 0 0 0 .422-2.265V25.632l-6.831 10.718a4.279 4.279 0 0 0 .343 1.994q.343.608 1.858.607h.672v.529h-10.39v-.529h.643a2.248 2.248 0 0 0 1.786-.536 3.991 3.991 0 0 0 .429-2.265V23.398a4.733 4.733 0 0 0-.343-2.258q-.343-.515-1.872-.514h-.643v-.528h10.394v.529h-.672a2.159 2.159 0 0 0-1.758.564 3.828 3.828 0 0 0-.447 2.207V34.02zM327.581 19.955a5.181 5.181 0 0 0-.457-2.561q-.44-.664-2.2-.664h-.776v-.638h12.539v.638h-.811a2.787 2.787 0 0 0-2.147.621 4.65 4.65 0 0 0-.526 2.725v15.385a4.67 4.67 0 0 0 .535 2.768 2.816 2.816 0 0 0 2.139.612h.811v.638h-12.54v-.638h.776a2.683 2.683 0 0 0 2.147-.647 4.884 4.884 0 0 0 .509-2.734V22.767l-8.244 12.931a5.163 5.163 0 0 0 .414 2.406q.414.733 2.242.733h.811v.638h-12.538v-.638h.776a2.712 2.712 0 0 0 2.159-.639 4.815 4.815 0 0 0 .518-2.734V20.076a5.712 5.712 0 0 0-.414-2.725q-.414-.621-2.259-.621h-.776v-.638h12.539v.638h-.811a2.606 2.606 0 0 0-2.121.681 4.62 4.62 0 0 0-.535 2.665v12.815zm-4.174-6.123a10.493 10.493 0 0 1-5.122-.94 2.71 2.71 0 0 1-1.587-2.32 1.534 1.534 0 0 1 .5-1.173 1.731 1.731 0 0 1 1.225-.466q1.4 0 2.139 1.811a2.887 2.887 0 0 0 1.043 1.38 3.2 3.2 0 0 0 1.716.4 3.492 3.492 0 0 0 1.88-.4 3.571 3.571 0 0 0 1.125-1.465q.81-1.708 2.156-1.708a1.761 1.761 0 0 1 1.233.466 1.645 1.645 0 0 1 .509 1.276 2.6 2.6 0 0 1-1.639 2.242 11.269 11.269 0 0 1-5.178.9zM103.258 56.648a5.955 5.955 0 0 1-.31 1.97 4.384 4.384 0 0 1-.9 1.535 4.021 4.021 0 0 1-1.436 1 5.414 5.414 0 0 1-3.812.014 3.229 3.229 0 0 1-1.331-1.024 4.533 4.533 0 0 1-.775-1.712 10.307 10.307 0 0 1-.25-2.415 18.83 18.83 0 0 1 .115-2.167 12.584 12.584 0 0 1 .325-1.779 6.542 6.542 0 0 1 .5-1.344 3.986 3.986 0 0 1 .6-.88 3.473 3.473 0 0 1 .6-.521 4.963 4.963 0 0 1 .655-.363 5.151 5.151 0 0 1 .815-.292q.455-.124 1.025-.22l3.212-.507a1.391 1.391 0 0 1 .28-.024.224.224 0 0 1 .17.076.456.456 0 0 1 .08.234 3.908 3.908 0 0 1 .02.45 2.248 2.248 0 0 1-.02.325.621.621 0 0 1-.07.22.337.337 0 0 1-.15.134 1.031 1.031 0 0 1-.26.076l-2.991.478q-.45.067-.79.153a4.931 4.931 0 0 0-.605.191 2.668 2.668 0 0 0-.465.234 2.418 2.418 0 0 0-.4.33 2.246 2.246 0 0 0-.365.5 3.444 3.444 0 0 0-.28.674 6.562 6.562 0 0 0-.19.823q-.075.445-.145.952a5.885 5.885 0 0 1 .7-.607 4.575 4.575 0 0 1 .78-.464 4.161 4.161 0 0 1 .865-.292 4.474 4.474 0 0 1 .965-.1 4.278 4.278 0 0 1 1.7.311 3.134 3.134 0 0 1 1.2.885 3.807 3.807 0 0 1 .71 1.377 6.29 6.29 0 0 1 .228 1.769zm-1.711.134a5.649 5.649 0 0 0-.125-1.205 3.114 3.114 0 0 0-.4-1.009 2.055 2.055 0 0 0-.74-.7 2.3 2.3 0 0 0-1.146-.263 2.839 2.839 0 0 0-1.5.406 4.822 4.822 0 0 0-.7.507q-.35.3-.75.713-.01.153-.01.354v.413a10.83 10.83 0 0 0 .135 1.817 3.857 3.857 0 0 0 .445 1.31 2.045 2.045 0 0 0 .82.794 2.969 2.969 0 0 0 2.411.024 2.37 2.37 0 0 0 .855-.684 3.084 3.084 0 0 0 .525-1.071 5.118 5.118 0 0 0 .18-1.406zM107.62 49.57a1.009 1.009 0 0 1-.22.756 1.222 1.222 0 0 1-.81.2 1.2 1.2 0 0 1-.8-.2.989.989 0 0 1-.215-.741 1.008 1.008 0 0 1 .22-.756 1.222 1.222 0 0 1 .81-.2 1.2 1.2 0 0 1 .8.2.989.989 0 0 1 .215.741zm-.19 11.516a.207.207 0 0 1-.04.129.313.313 0 0 1-.13.091.963.963 0 0 1-.25.057 3.6 3.6 0 0 1-.41.019 3.485 3.485 0 0 1-.4-.019 1.044 1.044 0 0 1-.255-.057.273.273 0 0 1-.13-.091.226.226 0 0 1-.035-.129v-8.608a.234.234 0 0 1 .035-.124.259.259 0 0 1 .13-.1 1.031 1.031 0 0 1 .255-.058 3.485 3.485 0 0 1 .4-.019 3.6 3.6 0 0 1 .41.019.952.952 0 0 1 .25.058.294.294 0 0 1 .13.1.214.214 0 0 1 .04.124zM116.715 58.698a2.483 2.483 0 0 1-.27 1.167 2.554 2.554 0 0 1-.776.885 3.642 3.642 0 0 1-1.235.56 6.576 6.576 0 0 1-1.661.191 6.3 6.3 0 0 1-.976-.072 6.643 6.643 0 0 1-.83-.182 3.746 3.746 0 0 1-.63-.239 2.136 2.136 0 0 1-.36-.215.841.841 0 0 1-.155-.158.448.448 0 0 1-.07-.158 1.926 1.926 0 0 1-.035-.21 2.52 2.52 0 0 1-.015-.3 1.4 1.4 0 0 1 .02-.258.781.781 0 0 1 .05-.172.276.276 0 0 1 .07-.1.167.167 0 0 1 .11-.033.626.626 0 0 1 .305.129 4.5 4.5 0 0 0 .525.287 4.967 4.967 0 0 0 .815.292 4.557 4.557 0 0 0 1.2.134 3.7 3.7 0 0 0 .9-.1 2.043 2.043 0 0 0 .68-.3 1.368 1.368 0 0 0 .435-.493 1.466 1.466 0 0 0 .155-.689 1.211 1.211 0 0 0-.15-.6 1.231 1.231 0 0 0-.47-.455 2.773 2.773 0 0 0-.82-.292 5.985 5.985 0 0 0-1.211-.1h-1a.327.327 0 0 1-.16-.033.3.3 0 0 1-.1-.1.469.469 0 0 1-.06-.191 2.3 2.3 0 0 1-.015-.282 1.567 1.567 0 0 1 .02-.268.541.541 0 0 1 .06-.182.272.272 0 0 1 .1-.1.306.306 0 0 1 .15-.033h.97a5.355 5.355 0 0 0 1.086-.1 2.4 2.4 0 0 0 .76-.282 1.2 1.2 0 0 0 .45-.459 1.313 1.313 0 0 0 .145-.626 1.078 1.078 0 0 0-.14-.555 1.211 1.211 0 0 0-.375-.4 1.758 1.758 0 0 0-.575-.239 3.139 3.139 0 0 0-.73-.081 4.007 4.007 0 0 0-1.086.134 5.716 5.716 0 0 0-.82.292q-.345.158-.565.287a.771.771 0 0 1-.31.129.2.2 0 0 1-.1-.024.206.206 0 0 1-.08-.086.486.486 0 0 1-.05-.172 1.977 1.977 0 0 1-.015-.263 1.714 1.714 0 0 1 .045-.44.6.6 0 0 1 .165-.277 1.883 1.883 0 0 1 .42-.268 4.166 4.166 0 0 1 .705-.273 7.738 7.738 0 0 1 .881-.2 5.773 5.773 0 0 1 .976-.081 5.676 5.676 0 0 1 1.34.148 3.115 3.115 0 0 1 1.046.449 2.061 2.061 0 0 1 .915 1.784 1.9 1.9 0 0 1-.12.674 1.993 1.993 0 0 1-.345.588 2.412 2.412 0 0 1-.555.478 2.785 2.785 0 0 1-.73.325l-.02.01a2.367 2.367 0 0 1 .77.215 2.574 2.574 0 0 1 .68.459 2.228 2.228 0 0 1 .485.67 1.961 1.961 0 0 1 .181.854zM127.039 61.086a.207.207 0 0 1-.04.129.311.311 0 0 1-.13.091.961.961 0 0 1-.25.057 3.486 3.486 0 0 1-.4.019 3.593 3.593 0 0 1-.41-.019.961.961 0 0 1-.25-.057.311.311 0 0 1-.13-.091.2.2 0 0 1-.04-.129v-3.783H120.8v3.778a.207.207 0 0 1-.04.129.312.312 0 0 1-.13.091.963.963 0 0 1-.25.057 3.6 3.6 0 0 1-.41.019 3.486 3.486 0 0 1-.4-.019 1.045 1.045 0 0 1-.255-.057.271.271 0 0 1-.13-.091.226.226 0 0 1-.035-.129v-8.6a.227.227 0 0 1 .035-.129.3.3 0 0 1 .13-.1.8.8 0 0 1 .255-.057q.16-.014.4-.014a3.494 3.494 0 0 1 .41.014.747.747 0 0 1 .25.057.35.35 0 0 1 .13.1.208.208 0 0 1 .04.129v3.5h4.592v-3.5a.206.206 0 0 1 .04-.129.35.35 0 0 1 .13-.1.745.745 0 0 1 .25-.057q.16-.014.41-.014t.4.014a.745.745 0 0 1 .25.057.35.35 0 0 1 .13.1.208.208 0 0 1 .04.129zM137.784 56.409a.644.644 0 0 1-.2.531.693.693 0 0 1-.447.158h-5.93a5.084 5.084 0 0 0 .151 1.291 2.444 2.444 0 0 0 .5.985 2.26 2.26 0 0 0 .915.631 3.8 3.8 0 0 0 1.377.22 5.893 5.893 0 0 0 1.146-.1 7 7 0 0 0 .87-.225q.367-.124.6-.225a1.025 1.025 0 0 1 .357-.1.239.239 0 0 1 .126.033.22.22 0 0 1 .085.1.677.677 0 0 1 .045.187 2.4 2.4 0 0 1 .015.292 2.019 2.019 0 0 1-.01.215 1.831 1.831 0 0 1-.025.163.409.409 0 0 1-.05.129.554.554 0 0 1-.09.11 1.485 1.485 0 0 1-.325.172 4.889 4.889 0 0 1-.7.234 10.034 10.034 0 0 1-1 .206 7.607 7.607 0 0 1-1.206.091 5.818 5.818 0 0 1-1.946-.3 3.629 3.629 0 0 1-1.406-.88 3.722 3.722 0 0 1-.86-1.463 6.538 6.538 0 0 1-.29-2.047 6.184 6.184 0 0 1 .3-1.994 4.173 4.173 0 0 1 .865-1.5 3.777 3.777 0 0 1 1.366-.947 4.658 4.658 0 0 1 1.791-.33 4.506 4.506 0 0 1 1.806.325 3.4 3.4 0 0 1 1.226.875 3.464 3.464 0 0 1 .705 1.291 5.42 5.42 0 0 1 .225 1.583zm-1.661-.469a2.787 2.787 0 0 0-.579-1.951 2.254 2.254 0 0 0-1.807-.708 2.482 2.482 0 0 0-1.077.22 2.317 2.317 0 0 0-.775.583 2.639 2.639 0 0 0-.483.847 3.4 3.4 0 0 0-.191 1.009zM146.769 59.776q0 .163-.01.282a.981.981 0 0 1-.035.2.715.715 0 0 1-.06.144.951.951 0 0 1-.16.182 2.468 2.468 0 0 1-.425.3 4.164 4.164 0 0 1-.675.316 5.268 5.268 0 0 1-.815.225 4.739 4.739 0 0 1-.911.086 4.531 4.531 0 0 1-1.721-.306 3.238 3.238 0 0 1-1.256-.894 4 4 0 0 1-.77-1.444 6.685 6.685 0 0 1-.265-1.975 6.537 6.537 0 0 1 .325-2.186 4.085 4.085 0 0 1 .891-1.5 3.527 3.527 0 0 1 1.33-.865 4.748 4.748 0 0 1 1.656-.282 4.494 4.494 0 0 1 .835.076 4.771 4.771 0 0 1 .745.2 3.4 3.4 0 0 1 .6.287 2.408 2.408 0 0 1 .385.278 1.255 1.255 0 0 1 .165.182.645.645 0 0 1 .075.158.917.917 0 0 1 .04.206q.01.115.01.287a1.078 1.078 0 0 1-.09.521.259.259 0 0 1-.22.148.582.582 0 0 1-.345-.158 5.516 5.516 0 0 0-.5-.349 3.852 3.852 0 0 0-.725-.349 2.891 2.891 0 0 0-1.006-.158 2.118 2.118 0 0 0-1.826.875 4.285 4.285 0 0 0-.635 2.539 5.767 5.767 0 0 0 .165 1.459 2.95 2.95 0 0 0 .485 1.047 1.98 1.98 0 0 0 .785.626 2.611 2.611 0 0 0 1.066.206 2.681 2.681 0 0 0 1-.172 4.254 4.254 0 0 0 .745-.378q.315-.206.53-.373a.639.639 0 0 1 .335-.167.193.193 0 0 1 .12.038.291.291 0 0 1 .085.129.92.92 0 0 1 .05.229 3.111 3.111 0 0 1 .027.33zM153.011 56.498a1.045 1.045 0 0 1-.09.516.289.289 0 0 1-.26.144h-4.182a.3.3 0 0 1-.27-.148 1.049 1.049 0 0 1-.09-.512 1.02 1.02 0 0 1 .09-.507.3.3 0 0 1 .27-.144h4.182a.357.357 0 0 1 .145.029.242.242 0 0 1 .11.11.728.728 0 0 1 .07.206 1.613 1.613 0 0 1 .025.306zM164.507 64.252q-.01.1-.18.158a1.855 1.855 0 0 1-.51.052 1.835 1.835 0 0 1-.54-.057c-.114-.038-.17-.089-.17-.153v-2.927h-7.364a.5.5 0 0 1-.375-.139.574.574 0 0 1-.135-.416v-8.292a.228.228 0 0 1 .035-.129.3.3 0 0 1 .13-.1.8.8 0 0 1 .255-.057q.16-.014.4-.014a3.494 3.494 0 0 1 .41.014.747.747 0 0 1 .25.057.35.35 0 0 1 .13.1.208.208 0 0 1 .04.129v7.489h4.317v-7.489a.207.207 0 0 1 .04-.129.346.346 0 0 1 .135-.1.8.8 0 0 1 .255-.057q.16-.014.4-.014t.41.014a.747.747 0 0 1 .25.057.352.352 0 0 1 .13.1.209.209 0 0 1 .04.129v7.489h1.25a.441.441 0 0 1 .32.086.452.452 0 0 1 .08.306zM173.821 56.409a.644.644 0 0 1-.2.531.693.693 0 0 1-.447.158h-5.93a5.084 5.084 0 0 0 .151 1.291 2.444 2.444 0 0 0 .5.985 2.26 2.26 0 0 0 .915.631 3.8 3.8 0 0 0 1.377.22 5.893 5.893 0 0 0 1.146-.1 7 7 0 0 0 .87-.225q.367-.124.6-.225a1.025 1.025 0 0 1 .357-.1.239.239 0 0 1 .126.033.22.22 0 0 1 .085.1.676.676 0 0 1 .045.187 2.4 2.4 0 0 1 .015.292 2.019 2.019 0 0 1-.01.215 1.831 1.831 0 0 1-.025.163.409.409 0 0 1-.05.129.554.554 0 0 1-.09.11 1.486 1.486 0 0 1-.325.172 4.888 4.888 0 0 1-.7.234 10.034 10.034 0 0 1-1 .206 7.607 7.607 0 0 1-1.206.091 5.818 5.818 0 0 1-1.946-.3 3.629 3.629 0 0 1-1.406-.88 3.722 3.722 0 0 1-.86-1.463 6.538 6.538 0 0 1-.29-2.047 6.185 6.185 0 0 1 .3-1.994 4.173 4.173 0 0 1 .865-1.5 3.777 3.777 0 0 1 1.366-.947 4.658 4.658 0 0 1 1.791-.33 4.506 4.506 0 0 1 1.806.325 3.4 3.4 0 0 1 1.226.875 3.464 3.464 0 0 1 .705 1.291 5.42 5.42 0 0 1 .225 1.583zm-1.661-.469a2.787 2.787 0 0 0-.579-1.951 2.254 2.254 0 0 0-1.807-.708 2.482 2.482 0 0 0-1.077.22 2.317 2.317 0 0 0-.775.583 2.638 2.638 0 0 0-.483.847 3.394 3.394 0 0 0-.191 1.009zM184.226 61.086a.207.207 0 0 1-.04.129.311.311 0 0 1-.13.091.961.961 0 0 1-.25.057 3.486 3.486 0 0 1-.4.019 3.593 3.593 0 0 1-.41-.019.961.961 0 0 1-.25-.057.311.311 0 0 1-.13-.091.2.2 0 0 1-.04-.129v-3.783h-4.592v3.778a.207.207 0 0 1-.04.129.312.312 0 0 1-.13.091.963.963 0 0 1-.25.057 3.6 3.6 0 0 1-.41.019 3.486 3.486 0 0 1-.4-.019 1.045 1.045 0 0 1-.255-.057.271.271 0 0 1-.13-.091.226.226 0 0 1-.035-.129v-8.6a.227.227 0 0 1 .035-.129.3.3 0 0 1 .13-.1.8.8 0 0 1 .255-.057q.16-.014.4-.014t.41.014a.747.747 0 0 1 .25.057.35.35 0 0 1 .13.1.208.208 0 0 1 .04.129v3.5h4.592v-3.5a.206.206 0 0 1 .04-.129.35.35 0 0 1 .13-.1.745.745 0 0 1 .25-.057q.16-.014.41-.014t.4.014a.745.745 0 0 1 .25.057.349.349 0 0 1 .13.1.208.208 0 0 1 .04.129zM193.59 52.946a2.272 2.272 0 0 1-.02.325.7.7 0 0 1-.065.22.362.362 0 0 1-.1.129.252.252 0 0 1-.15.043h-2.7v7.422a.207.207 0 0 1-.04.129.31.31 0 0 1-.13.091.963.963 0 0 1-.25.057 3.6 3.6 0 0 1-.41.019 3.478 3.478 0 0 1-.4-.019 1.039 1.039 0 0 1-.255-.057.272.272 0 0 1-.13-.091.226.226 0 0 1-.035-.129v-7.421h-2.7a.257.257 0 0 1-.145-.043.3.3 0 0 1-.1-.129.925.925 0 0 1-.065-.225 1.891 1.891 0 0 1-.025-.33 1.683 1.683 0 0 1 .025-.306.864.864 0 0 1 .07-.225.357.357 0 0 1 .1-.134.235.235 0 0 1 .14-.043h7.053a.258.258 0 0 1 .145.043.3.3 0 0 1 .1.134 1.032 1.032 0 0 1 .065.229 1.766 1.766 0 0 1 .022.311zM203.505 56.648a7.426 7.426 0 0 1-.255 2.028 4.336 4.336 0 0 1-.75 1.526 3.331 3.331 0 0 1-1.226.966 3.925 3.925 0 0 1-1.671.339 3.369 3.369 0 0 1-.74-.076 2.9 2.9 0 0 1-.665-.239 3.875 3.875 0 0 1-.645-.411q-.32-.249-.68-.583v4.3a.229.229 0 0 1-.04.134.293.293 0 0 1-.13.1.954.954 0 0 1-.25.057 3.536 3.536 0 0 1-.41.019 3.428 3.428 0 0 1-.4-.019 1.034 1.034 0 0 1-.255-.057.257.257 0 0 1-.13-.1.252.252 0 0 1-.035-.134v-12.02a.278.278 0 0 1 .03-.139.241.241 0 0 1 .12-.091.809.809 0 0 1 .23-.052q.14-.014.34-.014a3.392 3.392 0 0 1 .345.014.8.8 0 0 1 .225.052.274.274 0 0 1 .125.091.245.245 0 0 1 .035.139v1.157a9.446 9.446 0 0 1 .79-.7 4.76 4.76 0 0 1 .765-.492 3.7 3.7 0 0 1 .79-.3 3.909 3.909 0 0 1 2.526.263 3.1 3.1 0 0 1 1.125.995 4.337 4.337 0 0 1 .635 1.468 7.615 7.615 0 0 1 .201 1.779zm-1.711.182a7.572 7.572 0 0 0-.1-1.277 3.586 3.586 0 0 0-.363-1.1 2.079 2.079 0 0 0-.689-.765 1.908 1.908 0 0 0-1.077-.285 2.266 2.266 0 0 0-.634.091 2.665 2.665 0 0 0-.634.287 4.475 4.475 0 0 0-.674.517 8.1 8.1 0 0 0-.745.789v3.426a7.02 7.02 0 0 0 1.3 1.215 2.242 2.242 0 0 0 1.288.421 1.944 1.944 0 0 0 1.072-.287 2.2 2.2 0 0 0 .725-.765 3.724 3.724 0 0 0 .408-1.071 5.524 5.524 0 0 0 .123-1.196z"/><g><path d="M62.313 33.379c-1.3-.593-3.6-1.992-4.629-2.458-1.25-.562-4.163-2.623-5.875-2.75a17.693 17.693 0 0 0-5.833 1.042c-1.75.562-6.6 2.771-9.1 2.583s-6.5-2.375-6.5-2.375.077 1.2.3 2.619c.874 5.637 4.71 5.808 9.682 5.63 2.333-.083 8.145-3.5 8.145-3.5 1.845-1.2-11.342 11.827-27.894 7.916C8.289 39.178 4.667 30.991 4.9 24.63a43.1 43.1 0 0 1 1.083-7.541 6.2 6.2 0 0 0 .143-1.291S-.064 24.924 0 33.859C.075 44.021 5.126 51.39 12.312 53.878c4.914 1.7 11.35 2.977 17.332 1.042 7.638-2.47 13.984-9.321 16.1-11.312 3.437-3.229 5.875-5.625 5.875-5.625s-17 19.436-26.623 19S4.5 51.546 4.5 51.546a2.656 2.656 0 0 1 .437.917c2.213 7.457 12.216 16.74 19.629 16.581 11.939-.261 20.971-6.851 27.956-22.5 2.3-5.143 7.677-10.64 9.541-10.749 1.37-.08 1.863-1.679.25-2.416z"/><path d="M27.936 32.838a24.04 24.04 0 0 1 1.458-10.874C35.577 6.338 51.748 5.48 63.708 9.264a26.02 26.02 0 0 1 7.141 3.366 27.033 27.033 0 0 0-7.873-7.248C49.387-2.897 30 5.233 26.7 19.365c-1.533 6.583.862 12.377 1.236 13.473z"/><path d="M39.873.303c-16.292 1.918-27.1 19.708-19.247 33.431a14.809 14.809 0 0 0 5.386 5.414 15.5 15.5 0 0 1-4.824-3.04c-8.7-8.229-5.014-22.835 2.562-29.5a11.294 11.294 0 0 0 3.521-4.775c-.687-.021-2.7-.526-6.9 1.463C6.461 9.889 1.7 29.498 14.6 39.085c5.428 4.035 16.147 1.353 17.27 1.583a.914.914 0 0 0-.24-.063h.053a23.443 23.443 0 0 1-5.083-8.018c-5.091-12.5 3.788-25.008 14.314-29.184A24.007 24.007 0 0 0 46.685.359c-.645-.245-1.899-.64-6.812-.056zM72.434 14.503s1.917 8.166 2.333 12c1.331 12.252-3.212 20.513-12.5 23.415a28.843 28.843 0 0 1-8.416 1.585l.667 1.667-3.333-.833.166 2.083-1.916-1.25-.417 2.916-.583-.917s-3 5.916-6.833 8.749-13.916 7.249-13.916 7.249 4.583 1.083 8 1.75 12.832 1.5 16.165-.083 4.416-3.25 4.416-3.25a8 8 0 0 0 8.166-2.333c3.75-3.916 3.75-6 3.75-6s4.333-.25 7.249-5.75a23.227 23.227 0 0 0 2.834-10.247s3-4.833 1.333-15.916-7.165-14.835-7.165-14.835z"/></g></symbol></svg>