<svg xmlns="http://www.w3.org/2000/svg" width="34" height="34" viewBox="0 0 34 34"><title>24x7-guard</title><path d="M34,17A17,17,0,1,1,17,0,17,17,0,0,1,34,17Z" style="fill:#303030"/><path d="M32,17A15,15,0,1,1,17,2,15,15,0,0,1,32,17Z" style="fill:#f6f6f6"/><path d="M17,7A28.051,28.051,0,0,1,8,9.5v6.9C8,24.219,15.509,27.42,17,28c1.491-.58,9-3.781,9-11.6V9.5A28.049,28.049,0,0,1,17,7Zm-.792,18.941c-3.7-1.939-6.646-5.008-6.646-9.388V10.71a26.112,26.112,0,0,0,6.646-1.8Zm8.229-9.388c0,4.4-2.968,7.472-6.687,9.41V8.9a26.172,26.172,0,0,0,6.688,1.813Z" style="fill:#303030"/></svg>