<svg xmlns="http://www.w3.org/2000/svg" width="34" height="34" viewBox="0 0 34 34"><title>cctv</title><path d="M34,17A17,17,0,1,1,17,0,17,17,0,0,1,34,17Z" style="fill:#303030"/><path d="M32,17A15,15,0,1,1,17,2,15,15,0,0,1,32,17Z" style="fill:#f6f6f6"/><path d="M8,9.772V14.46H26V9.772ZM25.031,13.46h-16V10.8h16Z" style="fill:#303030"/><path d="M14.054,19.524A2.946,2.946,0,1,0,17,16.577,2.946,2.946,0,0,0,14.054,19.524ZM17,18a1.524,1.524,0,1,1-1.5,1.524A1.512,1.512,0,0,1,17,18Z" style="fill:none"/><path d="M19.457,16.46a3.946,3.946,0,1,1-4.913,0H9.75S8.917,25,17,25s7.25-8.545,7.25-8.545Z" style="fill:none"/><path d="M25.245,16.363l-.088-.9H8.843l-.088.9c-.018.179-.4,4.424,2.164,7.249A7.826,7.826,0,0,0,17,26a7.826,7.826,0,0,0,6.081-2.394C25.644,20.787,25.263,16.542,25.245,16.363Zm-5.3,3.161A2.946,2.946,0,1,1,17,16.577,2.946,2.946,0,0,1,19.946,19.524ZM17,25C8.917,25,9.75,16.46,9.75,16.46h4.793a3.946,3.946,0,1,0,4.913,0H24.25S25.083,25,17,25Z" style="fill:#303030"/><ellipse cx="16.998" cy="19.524" rx="1.5" ry="1.524" style="fill:#303030"/></svg>