<svg xmlns="http://www.w3.org/2000/svg" width="34" height="34" viewBox="0 0 34 34"><title>cleaning</title><path d="M34,17A17,17,0,1,1,17,0,17,17,0,0,1,34,17Z" style="fill:#303030"/><path d="M32,17A15,15,0,1,1,17,2,15,15,0,0,1,32,17Z" style="fill:#f6f6f6"/><path d="M17.867,16.4H7.667a.6.6,0,1,0,0,1.2h.4l.378,5.42A3.187,3.187,0,0,0,11.778,26h2a3.2,3.2,0,0,0,3.333-2.98l.333-5.42h.4a.625.625,0,0,0,.667-.6A.6.6,0,0,0,17.867,16.4Zm-2.111,6.56V23a1.9,1.9,0,0,1-2,1.8h-2a1.914,1.914,0,0,1-2-1.8l-.378-5.4h6.733Z" style="fill:#303030"/><path d="M8.824,15.6a.425.425,0,0,0,.444-.4,2.126,2.126,0,0,1,2.222-2h2.667a2.126,2.126,0,0,1,2.222,2,.447.447,0,0,0,.889,0,2.977,2.977,0,0,0-3.111-2.8H11.491A2.977,2.977,0,0,0,8.38,15.2.425.425,0,0,0,8.824,15.6Z" style="fill:#303030"/><path d="M19.907,21.2h5.756a.4.4,0,1,0,0-.8H23.44V8.6a.67.67,0,0,0-1.333,0V20.4H19.884a.425.425,0,0,0-.444.4A.447.447,0,0,0,19.907,21.2Z" style="fill:#303030"/><path d="M24.891,21.8h-4.2a2.027,2.027,0,0,0-2.111,1.9V25a1.05,1.05,0,0,0,1.111,1h6.2A1.063,1.063,0,0,0,27,25V23.7A2.013,2.013,0,0,0,24.891,21.8Zm.778,3H19.913V23.7a.751.751,0,0,1,.778-.7h4.2a.751.751,0,0,1,.778.7Z" style="fill:#303030"/></svg>