<svg xmlns="http://www.w3.org/2000/svg" width="34" height="34" viewBox="0 0 34 34"><title>green-zone</title><path d="M34,17A17,17,0,1,1,17,0,17,17,0,0,1,34,17Z" style="fill:#303030"/><path d="M32,17A15,15,0,1,1,17,2,15,15,0,0,1,32,17Z" style="fill:#f6f6f6"/><path d="M24.183,13.858A3.524,3.524,0,0,0,20.135,9.82a3.618,3.618,0,0,0-6.28,0,3.516,3.516,0,0,0-4.039,4.038,3.605,3.605,0,0,0,1.762,6.733,3.609,3.609,0,0,0,.479-.045,3.616,3.616,0,0,0,3.135,1.848,3.45,3.45,0,0,0,.9-.126V25.1a.9.9,0,0,0,1.807,0v-2.83a3.45,3.45,0,0,0,.9.126,3.616,3.616,0,0,0,3.135-1.848,3.595,3.595,0,0,0,2.241-6.688Zm-1.762,4.931h-.479a1.808,1.808,0,0,0-1.572.9,1.756,1.756,0,0,1-2.458.676v-3.38a2.708,2.708,0,0,0,2.711-2.7.9.9,0,0,0-1.807,0,.9.9,0,0,1-.9.9v-.9a.9.9,0,0,0-1.807,0v2.7a.9.9,0,0,1-.9-.9.9.9,0,0,0-1.807,0,2.707,2.707,0,0,0,2.711,2.7V20.33a1.754,1.754,0,0,1-2.476-.64,1.808,1.808,0,0,0-1.572-.9h-.479a1.8,1.8,0,0,1-.9-3.362,1.8,1.8,0,0,0,.9-1.8V13.38a1.8,1.8,0,0,1,1.807-1.8h.479a1.808,1.808,0,0,0,1.572-.9,1.809,1.809,0,0,1,3.126,0,1.808,1.808,0,0,0,1.572.9h.479a1.8,1.8,0,0,1,1.807,1.8v.243a1.8,1.8,0,0,0,.9,1.8,1.8,1.8,0,0,1-.9,3.362Z" style="fill:#303030"/></svg>