<svg xmlns="http://www.w3.org/2000/svg" width="34" height="34" viewBox="0 0 34 34"><title>quite-zone</title><path d="M34,17A17,17,0,1,1,17,0,17,17,0,0,1,34,17Z" style="fill:#303030"/><path d="M32,17A15,15,0,1,1,17,2,15,15,0,0,1,32,17Z" style="fill:#f6f6f6"/><path d="M26.286,19.5H7.714A.733.733,0,0,0,7,20.25v1.5a.733.733,0,0,0,.714.75h.714v.75a.715.715,0,1,0,1.429,0V22.5H24.143v.75a.715.715,0,1,0,1.429,0V22.5h.714A.733.733,0,0,0,27,21.75v-1.5A.733.733,0,0,0,26.286,19.5ZM24,21.5H10V21H24Z" style="fill:#303030"/><path d="M24.859,12a.733.733,0,0,0-.714.75v.75H9.859v-.75a.715.715,0,1,0-1.429,0v4.5a.733.733,0,0,0,.714.75H24.859a.733.733,0,0,0,.714-.75v-4.5A.733.733,0,0,0,24.859,12ZM24,16.5H10V16H24ZM24,15H10v-.5H24Z" style="fill:#303030"/></svg>