<svg xmlns="http://www.w3.org/2000/svg" width="34" height="34" viewBox="0 0 34 34"><title>energy-save</title><path d="M34,17A17,17,0,1,1,17,0,17,17,0,0,1,34,17Z" style="fill:#303030"/><path d="M32,17A15,15,0,1,1,17,2,15,15,0,0,1,32,17Z" style="fill:#f6f6f6"/><path d="M19.586,8,14,17.812l2.793-.459L14.586,26,20,15.447l-2.724.424Z" style="fill:#303030"/><path d="M24.506,10.684A.459.459,0,0,1,24.854,10a.312.312,0,0,1,.243.108c.4.476,1.9,2.556,1.9,6.892s-1.5,6.416-1.9,6.892a.312.312,0,0,1-.243.108.459.459,0,0,1-.347-.684A11.871,11.871,0,0,0,26,17,11.871,11.871,0,0,0,24.506,10.684Z" style="fill:#303030"/><path d="M21.54,12.66a.422.422,0,0,1,.313-.66.325.325,0,0,1,.245.106A7.658,7.658,0,0,1,24,17a7.658,7.658,0,0,1-1.9,4.894.325.325,0,0,1-.245.106.422.422,0,0,1-.313-.66A7.541,7.541,0,0,0,23,17,7.541,7.541,0,0,0,21.54,12.66Z" style="fill:#303030"/><path d="M9.49,23.32a.455.455,0,0,1-.34.68.325.325,0,0,1-.25-.11C8.5,23.42,7,21.34,7,17s1.5-6.42,1.9-6.89A.325.325,0,0,1,9.15,10a.455.455,0,0,1,.34.68A11.926,11.926,0,0,0,8,17,11.926,11.926,0,0,0,9.49,23.32Z" style="fill:#303030"/><path d="M12.46,21.34a.422.422,0,0,1-.313.66.325.325,0,0,1-.245-.106A7.658,7.658,0,0,1,10,17a7.658,7.658,0,0,1,1.9-4.894A.325.325,0,0,1,12.146,12a.422.422,0,0,1,.313.66A7.541,7.541,0,0,0,11,17,7.541,7.541,0,0,0,12.46,21.34Z" style="fill:#303030"/></svg>