<svg xmlns="http://www.w3.org/2000/svg" width="34" height="34" viewBox="0 0 34 34"><title>location</title><path d="M34,17A17,17,0,1,1,17,0,17,17,0,0,1,34,17Z" style="fill:#303030"/><path d="M32,17A15,15,0,1,1,17,2,15,15,0,0,1,32,17Z" style="fill:#f6f6f6"/><path d="M17,22.39a.659.659,0,0,1-.549-.289l-4.021-6.031a5.085,5.085,0,0,1-.862-2.832A5.344,5.344,0,0,1,17,8a5.344,5.344,0,0,1,5.432,5.237,5.084,5.084,0,0,1-.863,2.833L17.551,22.1A.659.659,0,0,1,17,22.39ZM17,9.259a4.059,4.059,0,0,0-4.127,3.978,3.861,3.861,0,0,0,.654,2.15L17,20.6l3.472-5.208a3.861,3.861,0,0,0,.655-2.151A4.059,4.059,0,0,0,17,9.259Z" style="fill:#303030"/><ellipse cx="16.998" cy="13.242" rx="2.107" ry="2.032" style="fill:#303030"/><path d="M17,26c-3.991,0-7-1.448-7-3.368,0-.912.683-1.75,1.923-2.362a.665.665,0,0,1,.879.274.619.619,0,0,1-.284.847c-.77.38-1.212.833-1.212,1.242,0,.881,2.166,2.109,5.694,2.109s5.694-1.229,5.694-2.109c0-.409-.442-.862-1.213-1.242a.619.619,0,0,1-.284-.847.665.665,0,0,1,.879-.274C23.317,20.881,24,21.72,24,22.632,24,24.552,20.991,26,17,26Z" style="fill:#303030"/></svg>