<svg xmlns="http://www.w3.org/2000/svg" width="336.688" height="73.742" viewBox="0 0 336.688 73.742" fill="#fff"><title>ochakovski-bc</title><g id="text"><path d="M106.707,15.766A11.6,11.6,0,0,1,119.28,27.7a12.472,12.472,0,0,1-2.6,7.83,11.578,11.578,0,0,1-9.745,4.484q-6.312,0-9.762-4.277a12.384,12.384,0,0,1-2.725-8.02,11.664,11.664,0,0,1,3.544-8.684A11.284,11.284,0,0,1,106.707,15.766Zm.207,1.1a5.27,5.27,0,0,0-4.881,3.277,17.513,17.513,0,0,0-1.363,7.727q0,5.985,2.1,8.848a4.8,4.8,0,0,0,4.1,2,4.922,4.922,0,0,0,2.966-.862,7.084,7.084,0,0,0,2.363-3.527,19.6,19.6,0,0,0,.845-6.321,21,21,0,0,0-.862-6.942,6.759,6.759,0,0,0-2.2-3.251,5.186,5.186,0,0,0-3.068-.945Z" transform="translate(0 -0.002)" /><path d="M132.884,20.105h9.332v.529a4.094,4.094,0,0,0-2.286.379,2.642,2.642,0,0,0-.414,1.822V36.5a5.631,5.631,0,0,0,.136,1.508,1.177,1.177,0,0,0,.586.672,2.82,2.82,0,0,0,1.336.25q.157,0,.643.014v.529H132.141v-.529a6.621,6.621,0,0,0,1.793-.2,1.236,1.236,0,0,0,.707-.615,3,3,0,0,0,.229-1.329V30.55a13.622,13.622,0,0,1-6.144,1.755,6.108,6.108,0,0,1-2.579-.493,3.019,3.019,0,0,1-1.515-1.415,6.334,6.334,0,0,1-.45-2.694v-4.53q0-1.629-.572-2.086a3.474,3.474,0,0,0-2.086-.457v-.525h9.317v.529a2.424,2.424,0,0,0-1.472.393,1.967,1.967,0,0,0-.529,1.636v5.2a4.619,4.619,0,0,0,.143,1.329,1.537,1.537,0,0,0,.7.793,2.676,2.676,0,0,0,1.443.35,8.174,8.174,0,0,0,3.744-1V23.376a8.113,8.113,0,0,0-.121-1.744,1.213,1.213,0,0,0-.55-.729,2.509,2.509,0,0,0-1.315-.271Z" transform="translate(0 -0.002)" /><path d="M155.678,33.965h-6.845l-.815,1.886a4.2,4.2,0,0,0-.4,1.558,1.294,1.294,0,0,0,.657,1.2,5.525,5.525,0,0,0,1.9.343v.529H143.73v-.529a2.882,2.882,0,0,0,1.715-.864,11.492,11.492,0,0,0,1.658-2.922L154.035,19.7h.271L161.294,35.6a9.671,9.671,0,0,0,1.643,2.844,2.243,2.243,0,0,0,1.372.514v.529h-9.375v-.529h.392a2.935,2.935,0,0,0,1.586-.314.763.763,0,0,0,.314-.657,1.751,1.751,0,0,0-.086-.529q-.029-.129-.429-1.072Zm-.486-1.057-2.887-6.674L149.334,32.9Z" transform="translate(0 -0.002)" /><path d="M177.5,27.52l6.817,8.531A10.941,10.941,0,0,0,186.8,38.5a3.047,3.047,0,0,0,1.6.457v.529H178.316v-.529a2.7,2.7,0,0,0,1.236-.3.645.645,0,0,0,.279-.529,5.23,5.23,0,0,0-1.315-2.258l-4.444-5.588-.715.6v5.287a6,6,0,0,0,.172,1.886,1.441,1.441,0,0,0,.657.636,3.425,3.425,0,0,0,1.558.264v.529h-9.775V38.95h.643a2.681,2.681,0,0,0,1.358-.3,1.3,1.3,0,0,0,.572-.686,5.89,5.89,0,0,0,.157-1.8V23.419a6.373,6.373,0,0,0-.157-1.858,1.431,1.431,0,0,0-.636-.65,2.568,2.568,0,0,0-1.293-.279h-.643v-.527h9.646v.529a3.15,3.15,0,0,0-1.5.286,1.368,1.368,0,0,0-.586.672,5.633,5.633,0,0,0-.172,1.829v6.031l7.188-5.816q1.5-1.215,1.5-1.943a.954.954,0,0,0-.614-.858,4.915,4.915,0,0,0-1.558-.2v-.53h7.56v.529a4.258,4.258,0,0,0-1.593.364,22.786,22.786,0,0,0-2.665,1.979Z" transform="translate(0 -0.002)" /><path d="M199.467,38.952v.529H189.336v-.529h.643a2.681,2.681,0,0,0,1.358-.3,1.3,1.3,0,0,0,.572-.686,5.89,5.89,0,0,0,.157-1.8V23.419a6.374,6.374,0,0,0-.157-1.858,1.431,1.431,0,0,0-.636-.65,2.568,2.568,0,0,0-1.293-.279h-.643v-.527h10.132v.529h-.643a2.68,2.68,0,0,0-1.358.3,1.367,1.367,0,0,0-.586.686,5.881,5.881,0,0,0-.157,1.8V36.166a6.1,6.1,0,0,0,.164,1.858,1.472,1.472,0,0,0,.643.65,2.568,2.568,0,0,0,1.293.279Z" transform="translate(0 -0.002)" /><path d="M213.826,29.2a9.9,9.9,0,0,1,3.873,1.558,4.145,4.145,0,0,1,1.6,3.373,4.465,4.465,0,0,1-1.758,3.615q-2.158,1.729-6.273,1.729h-9.842v-.529a4.45,4.45,0,0,0,1.822-.25,1.46,1.46,0,0,0,.672-.65,5.92,5.92,0,0,0,.193-1.972V23.505a6,6,0,0,0-.193-1.979,1.412,1.412,0,0,0-.679-.65,4.575,4.575,0,0,0-1.815-.243v-.528h9.289a13.193,13.193,0,0,1,4.716.593,4.909,4.909,0,0,1,2.186,1.772,4.388,4.388,0,0,1,.8,2.508,3.563,3.563,0,0,1-1.015,2.494A7.286,7.286,0,0,1,213.826,29.2Zm-5.2.729V36.15l-.014.715a1.384,1.384,0,0,0,1.557,1.558,4.457,4.457,0,0,0,2.108-.507,3.472,3.472,0,0,0,1.479-1.472,4.5,4.5,0,0,0,.515-2.151,4.75,4.75,0,0,0-.629-2.437,3.391,3.391,0,0,0-1.729-1.508,9.392,9.392,0,0,0-3.287-.413Zm0-1.115a7.367,7.367,0,0,0,2.994-.457,3.4,3.4,0,0,0,1.479-1.286,3.951,3.951,0,0,0,.515-2.115,3.961,3.961,0,0,0-.507-2.108,3.223,3.223,0,0,0-1.451-1.25,7.714,7.714,0,0,0-3.03-.414Z" transform="translate(0 -0.002)" /><path d="M240.541,19.66v6.717h-.557a7.157,7.157,0,0,0-2.344-4.03,5.981,5.981,0,0,0-3.887-1.4,5.746,5.746,0,0,0-3.33,1.043,6.082,6.082,0,0,0-2.215,2.73,12.354,12.354,0,0,0-.9,4.8,16.053,16.053,0,0,0,.657,4.737,6.3,6.3,0,0,0,2.058,3.23,5.728,5.728,0,0,0,3.63,1.093,7.087,7.087,0,0,0,3.351-.8,11.587,11.587,0,0,0,3.208-2.758v1.672a10.582,10.582,0,0,1-3.394,2.465,10.307,10.307,0,0,1-4.123.765,11.836,11.836,0,0,1-5.509-1.243,8.786,8.786,0,0,1-3.716-3.573,9.972,9.972,0,0,1-1.308-4.959,10.576,10.576,0,0,1,10.6-10.489,11.885,11.885,0,0,1,4.316.886,6.643,6.643,0,0,0,1.672.514,1.085,1.085,0,0,0,.793-.336,1.825,1.825,0,0,0,.436-1.065Z" transform="translate(0 -0.002)" /><path d="M250.774,28.9h2.558q4.144,0,6.016,1.458a4.678,4.678,0,0,1,1.872,3.887,4.465,4.465,0,0,1-.95,2.858,5.773,5.773,0,0,1-2.387,1.786,11.6,11.6,0,0,1-4.194.586H243.3v-.529a3.951,3.951,0,0,0,2.308-.479,2.689,2.689,0,0,0,.507-1.965V23.633a4.463,4.463,0,0,0-.422-2.515,3.487,3.487,0,0,0-2.236-.486v-.527h9.975v.529a4.545,4.545,0,0,0-1.822.257,1.522,1.522,0,0,0-.643.6,4.8,4.8,0,0,0-.193,1.772Zm0,1.257V36a3.622,3.622,0,0,0,.386,1.951,1.612,1.612,0,0,0,1.429.564,2.959,2.959,0,0,0,2.522-1.129,4.547,4.547,0,0,0,.85-2.815,4.671,4.671,0,0,0-.772-2.737,3.34,3.34,0,0,0-1.722-1.393,9.831,9.831,0,0,0-2.693-.282Z" transform="translate(0 -0.002)" /><path d="M275.026,27.52l6.816,8.531a10.941,10.941,0,0,0,2.484,2.444,3.047,3.047,0,0,0,1.6.457v.529H275.841v-.529a2.706,2.706,0,0,0,1.236-.3.645.645,0,0,0,.279-.529,5.228,5.228,0,0,0-1.315-2.258L271.6,30.277l-.715.6v5.287a6.009,6.009,0,0,0,.171,1.886,1.442,1.442,0,0,0,.657.636,3.424,3.424,0,0,0,1.558.264v.529h-9.775V38.95h.643a2.681,2.681,0,0,0,1.358-.3,1.3,1.3,0,0,0,.572-.686,5.9,5.9,0,0,0,.157-1.8V23.419a6.386,6.386,0,0,0-.157-1.858,1.431,1.431,0,0,0-.636-.65,2.569,2.569,0,0,0-1.293-.279h-.643v-.527h9.646v.529a3.151,3.151,0,0,0-1.5.286,1.37,1.37,0,0,0-.586.672,5.643,5.643,0,0,0-.171,1.829v6.031l7.188-5.816q1.5-1.215,1.5-1.943a.954.954,0,0,0-.614-.858,4.916,4.916,0,0,0-1.558-.2v-.53h7.56v.529a4.26,4.26,0,0,0-1.593.364,22.808,22.808,0,0,0-2.665,1.979Z" transform="translate(0 -0.002)" /><path d="M301.08,23.3a4.294,4.294,0,0,0-.379-2.122q-.364-.55-1.822-.55h-.643v-.528h10.39v.529h-.672a2.309,2.309,0,0,0-1.779.514,3.853,3.853,0,0,0-.436,2.257V36.151a3.869,3.869,0,0,0,.443,2.294,2.333,2.333,0,0,0,1.772.507h.672v.529h-10.39v-.529h.643a2.223,2.223,0,0,0,1.779-.536,4.046,4.046,0,0,0,.422-2.265V25.634l-6.831,10.718a4.279,4.279,0,0,0,.343,1.994q.343.608,1.858.607h.672v.529h-10.39v-.529h.643a2.248,2.248,0,0,0,1.786-.536,3.991,3.991,0,0,0,.429-2.265V23.4a4.733,4.733,0,0,0-.343-2.258q-.343-.515-1.872-.514h-.643v-.528h10.394v.529h-.672a2.159,2.159,0,0,0-1.758.564,3.828,3.828,0,0,0-.447,2.207V34.022Z" transform="translate(0 -0.002)" /><path d="M327.581,19.957a5.181,5.181,0,0,0-.457-2.561q-.44-.664-2.2-.664h-.776v-.638h12.539v.638h-.811a2.787,2.787,0,0,0-2.147.621,4.65,4.65,0,0,0-.526,2.725V35.463a4.67,4.67,0,0,0,.535,2.768,2.816,2.816,0,0,0,2.139.612h.811v.638h-12.54v-.638h.776a2.683,2.683,0,0,0,2.147-.647,4.884,4.884,0,0,0,.509-2.734V22.769L319.336,35.7a5.163,5.163,0,0,0,.414,2.406q.414.733,2.242.733h.811v.638H310.265v-.638h.776A2.712,2.712,0,0,0,313.2,38.2a4.815,4.815,0,0,0,.518-2.734V20.078a5.712,5.712,0,0,0-.414-2.725q-.414-.621-2.259-.621h-.776v-.638h12.539v.638h-.811a2.606,2.606,0,0,0-2.121.681,4.62,4.62,0,0,0-.535,2.665V32.893Zm-4.174-6.123a10.493,10.493,0,0,1-5.122-.94,2.71,2.71,0,0,1-1.587-2.32,1.534,1.534,0,0,1,.5-1.173,1.731,1.731,0,0,1,1.225-.466q1.4,0,2.139,1.811a2.887,2.887,0,0,0,1.043,1.38,3.2,3.2,0,0,0,1.716.4,3.492,3.492,0,0,0,1.88-.4,3.571,3.571,0,0,0,1.125-1.465q.81-1.708,2.156-1.708a1.761,1.761,0,0,1,1.233.466,1.645,1.645,0,0,1,.509,1.276,2.6,2.6,0,0,1-1.639,2.242,11.269,11.269,0,0,1-5.178.9Z" transform="translate(0 -0.002)" /><path d="M103.258,56.65a5.955,5.955,0,0,1-.31,1.97,4.384,4.384,0,0,1-.9,1.535,4.021,4.021,0,0,1-1.436,1,5.414,5.414,0,0,1-3.812.014,3.229,3.229,0,0,1-1.331-1.024,4.533,4.533,0,0,1-.775-1.712,10.307,10.307,0,0,1-.25-2.415,18.83,18.83,0,0,1,.115-2.167,12.584,12.584,0,0,1,.325-1.779,6.542,6.542,0,0,1,.5-1.344,3.986,3.986,0,0,1,.6-.88,3.473,3.473,0,0,1,.6-.521,4.963,4.963,0,0,1,.655-.363,5.151,5.151,0,0,1,.815-.292q.455-.124,1.025-.22l3.212-.507a1.391,1.391,0,0,1,.28-.024.224.224,0,0,1,.17.076.456.456,0,0,1,.08.234,3.908,3.908,0,0,1,.02.45,2.248,2.248,0,0,1-.02.325.621.621,0,0,1-.07.22.337.337,0,0,1-.15.134,1.031,1.031,0,0,1-.26.076l-2.991.478q-.45.067-.79.153a4.931,4.931,0,0,0-.605.191,2.668,2.668,0,0,0-.465.234,2.418,2.418,0,0,0-.4.33,2.246,2.246,0,0,0-.365.5,3.444,3.444,0,0,0-.28.674,6.562,6.562,0,0,0-.19.823q-.075.445-.145.952a5.885,5.885,0,0,1,.7-.607,4.575,4.575,0,0,1,.78-.464,4.161,4.161,0,0,1,.865-.292,4.474,4.474,0,0,1,.965-.1,4.278,4.278,0,0,1,1.7.311,3.134,3.134,0,0,1,1.2.885,3.807,3.807,0,0,1,.71,1.377A6.29,6.29,0,0,1,103.258,56.65Zm-1.711.134a5.649,5.649,0,0,0-.125-1.205,3.114,3.114,0,0,0-.4-1.009,2.055,2.055,0,0,0-.74-.7,2.3,2.3,0,0,0-1.146-.263,2.839,2.839,0,0,0-1.5.406,4.822,4.822,0,0,0-.7.507q-.35.3-.75.713-.01.153-.01.354V56a10.83,10.83,0,0,0,.135,1.817,3.857,3.857,0,0,0,.445,1.31,2.045,2.045,0,0,0,.82.794,2.969,2.969,0,0,0,2.411.024,2.37,2.37,0,0,0,.855-.684,3.084,3.084,0,0,0,.525-1.071A5.118,5.118,0,0,0,101.547,56.784Z" transform="translate(0 -0.002)" /><path d="M107.62,49.572a1.009,1.009,0,0,1-.22.756,1.222,1.222,0,0,1-.81.2,1.2,1.2,0,0,1-.8-.2.989.989,0,0,1-.215-.741,1.008,1.008,0,0,1,.22-.756,1.222,1.222,0,0,1,.81-.2,1.2,1.2,0,0,1,.8.2A.989.989,0,0,1,107.62,49.572Zm-.19,11.516a.207.207,0,0,1-.04.129.313.313,0,0,1-.13.091.963.963,0,0,1-.25.057,3.6,3.6,0,0,1-.41.019,3.485,3.485,0,0,1-.4-.019,1.044,1.044,0,0,1-.255-.057.273.273,0,0,1-.13-.091.226.226,0,0,1-.035-.129V52.48a.234.234,0,0,1,.035-.124.259.259,0,0,1,.13-.1,1.031,1.031,0,0,1,.255-.058,3.485,3.485,0,0,1,.4-.019,3.6,3.6,0,0,1,.41.019.952.952,0,0,1,.25.058.294.294,0,0,1,.13.1.214.214,0,0,1,.04.124Z" transform="translate(0 -0.002)" /><path d="M116.715,58.7a2.483,2.483,0,0,1-.27,1.167,2.554,2.554,0,0,1-.776.885,3.642,3.642,0,0,1-1.235.56,6.576,6.576,0,0,1-1.661.191,6.3,6.3,0,0,1-.976-.072,6.643,6.643,0,0,1-.83-.182,3.746,3.746,0,0,1-.63-.239,2.136,2.136,0,0,1-.36-.215.841.841,0,0,1-.155-.158.448.448,0,0,1-.07-.158,1.926,1.926,0,0,1-.035-.21,2.52,2.52,0,0,1-.015-.3,1.4,1.4,0,0,1,.02-.258.781.781,0,0,1,.05-.172.276.276,0,0,1,.07-.1.167.167,0,0,1,.11-.033.626.626,0,0,1,.305.129,4.5,4.5,0,0,0,.525.287,4.967,4.967,0,0,0,.815.292,4.557,4.557,0,0,0,1.2.134,3.7,3.7,0,0,0,.9-.1,2.043,2.043,0,0,0,.68-.3,1.368,1.368,0,0,0,.435-.493,1.466,1.466,0,0,0,.155-.689,1.211,1.211,0,0,0-.15-.6,1.231,1.231,0,0,0-.47-.455,2.773,2.773,0,0,0-.82-.292,5.985,5.985,0,0,0-1.211-.1h-1a.327.327,0,0,1-.16-.033.3.3,0,0,1-.1-.1.469.469,0,0,1-.06-.191,2.3,2.3,0,0,1-.015-.282,1.567,1.567,0,0,1,.02-.268.541.541,0,0,1,.06-.182.272.272,0,0,1,.1-.1.306.306,0,0,1,.15-.033h.97a5.355,5.355,0,0,0,1.086-.1,2.4,2.4,0,0,0,.76-.282,1.2,1.2,0,0,0,.45-.459,1.313,1.313,0,0,0,.145-.626,1.078,1.078,0,0,0-.14-.555,1.211,1.211,0,0,0-.375-.4,1.758,1.758,0,0,0-.575-.239,3.139,3.139,0,0,0-.73-.081,4.007,4.007,0,0,0-1.086.134,5.716,5.716,0,0,0-.82.292q-.345.158-.565.287a.771.771,0,0,1-.31.129.2.2,0,0,1-.1-.024.206.206,0,0,1-.08-.086.486.486,0,0,1-.05-.172,1.977,1.977,0,0,1-.015-.263,1.714,1.714,0,0,1,.045-.44.6.6,0,0,1,.165-.277,1.883,1.883,0,0,1,.42-.268,4.166,4.166,0,0,1,.705-.273,7.738,7.738,0,0,1,.881-.2,5.773,5.773,0,0,1,.976-.081,5.676,5.676,0,0,1,1.34.148,3.115,3.115,0,0,1,1.046.449,2.061,2.061,0,0,1,.915,1.784,1.9,1.9,0,0,1-.12.674,1.993,1.993,0,0,1-.345.588,2.412,2.412,0,0,1-.555.478,2.785,2.785,0,0,1-.73.325l-.02.01a2.367,2.367,0,0,1,.77.215,2.574,2.574,0,0,1,.68.459,2.228,2.228,0,0,1,.485.67A1.961,1.961,0,0,1,116.715,58.7Z" transform="translate(0 -0.002)" /><path d="M127.039,61.088a.207.207,0,0,1-.04.129.311.311,0,0,1-.13.091.961.961,0,0,1-.25.057,3.486,3.486,0,0,1-.4.019,3.593,3.593,0,0,1-.41-.019.961.961,0,0,1-.25-.057.311.311,0,0,1-.13-.091.2.2,0,0,1-.04-.129V57.305H120.8v3.778a.207.207,0,0,1-.04.129.312.312,0,0,1-.13.091.963.963,0,0,1-.25.057,3.6,3.6,0,0,1-.41.019,3.486,3.486,0,0,1-.4-.019,1.045,1.045,0,0,1-.255-.057.271.271,0,0,1-.13-.091.226.226,0,0,1-.035-.129v-8.6a.227.227,0,0,1,.035-.129.3.3,0,0,1,.13-.1.8.8,0,0,1,.255-.057q.16-.014.4-.014a3.494,3.494,0,0,1,.41.014.747.747,0,0,1,.25.057.35.35,0,0,1,.13.1.208.208,0,0,1,.04.129v3.5h4.592v-3.5a.206.206,0,0,1,.04-.129.35.35,0,0,1,.13-.1.745.745,0,0,1,.25-.057q.16-.014.41-.014t.4.014a.745.745,0,0,1,.25.057.35.35,0,0,1,.13.1.208.208,0,0,1,.04.129Z" transform="translate(0 -0.002)" /><path d="M137.784,56.411a.644.644,0,0,1-.2.531.693.693,0,0,1-.447.158h-5.93a5.084,5.084,0,0,0,.151,1.291,2.444,2.444,0,0,0,.5.985,2.26,2.26,0,0,0,.915.631,3.8,3.8,0,0,0,1.377.22,5.893,5.893,0,0,0,1.146-.1,7,7,0,0,0,.87-.225q.367-.124.6-.225a1.025,1.025,0,0,1,.357-.1.239.239,0,0,1,.126.033.22.22,0,0,1,.085.1.677.677,0,0,1,.045.187,2.4,2.4,0,0,1,.015.292,2.019,2.019,0,0,1-.01.215c-.007.061-.015.115-.025.163a.409.409,0,0,1-.05.129.554.554,0,0,1-.09.11,1.485,1.485,0,0,1-.325.172,4.889,4.889,0,0,1-.7.234,10.034,10.034,0,0,1-1,.206,7.607,7.607,0,0,1-1.206.091,5.818,5.818,0,0,1-1.946-.3,3.629,3.629,0,0,1-1.406-.88,3.722,3.722,0,0,1-.86-1.463,6.538,6.538,0,0,1-.29-2.047,6.184,6.184,0,0,1,.3-1.994,4.173,4.173,0,0,1,.865-1.5,3.777,3.777,0,0,1,1.366-.947,4.658,4.658,0,0,1,1.791-.33,4.506,4.506,0,0,1,1.806.325,3.4,3.4,0,0,1,1.226.875,3.464,3.464,0,0,1,.705,1.291,5.42,5.42,0,0,1,.225,1.583Zm-1.661-.469a2.787,2.787,0,0,0-.579-1.951,2.254,2.254,0,0,0-1.807-.708,2.482,2.482,0,0,0-1.077.22,2.317,2.317,0,0,0-.775.583,2.639,2.639,0,0,0-.483.847,3.4,3.4,0,0,0-.191,1.009Z" transform="translate(0 -0.002)" /><path d="M146.769,59.778q0,.163-.01.282a.981.981,0,0,1-.035.2.715.715,0,0,1-.06.144.951.951,0,0,1-.16.182,2.468,2.468,0,0,1-.425.3,4.164,4.164,0,0,1-.675.316,5.268,5.268,0,0,1-.815.225,4.739,4.739,0,0,1-.911.086,4.531,4.531,0,0,1-1.721-.306,3.238,3.238,0,0,1-1.256-.894,4,4,0,0,1-.77-1.444,6.685,6.685,0,0,1-.265-1.975,6.537,6.537,0,0,1,.325-2.186,4.085,4.085,0,0,1,.891-1.5,3.527,3.527,0,0,1,1.33-.865,4.748,4.748,0,0,1,1.656-.282,4.494,4.494,0,0,1,.835.076,4.771,4.771,0,0,1,.745.2,3.4,3.4,0,0,1,.6.287,2.408,2.408,0,0,1,.385.278,1.255,1.255,0,0,1,.165.182.645.645,0,0,1,.075.158.917.917,0,0,1,.04.206q.01.115.01.287a1.078,1.078,0,0,1-.09.521.259.259,0,0,1-.22.148.582.582,0,0,1-.345-.158,5.516,5.516,0,0,0-.5-.349,3.852,3.852,0,0,0-.725-.349,2.891,2.891,0,0,0-1.006-.158,2.118,2.118,0,0,0-1.826.875,4.285,4.285,0,0,0-.635,2.539,5.767,5.767,0,0,0,.165,1.459,2.95,2.95,0,0,0,.485,1.047,1.98,1.98,0,0,0,.785.626,2.611,2.611,0,0,0,1.066.206,2.681,2.681,0,0,0,1-.172,4.254,4.254,0,0,0,.745-.378q.315-.206.53-.373a.639.639,0,0,1,.335-.167.193.193,0,0,1,.12.038.291.291,0,0,1,.085.129.92.92,0,0,1,.05.229A3.111,3.111,0,0,1,146.769,59.778Z" transform="translate(0 -0.002)" /><path d="M153.011,56.5a1.045,1.045,0,0,1-.09.516.289.289,0,0,1-.26.144h-4.182a.3.3,0,0,1-.27-.148,1.049,1.049,0,0,1-.09-.512,1.02,1.02,0,0,1,.09-.507.3.3,0,0,1,.27-.144h4.182a.357.357,0,0,1,.145.029.242.242,0,0,1,.11.11.728.728,0,0,1,.07.206A1.613,1.613,0,0,1,153.011,56.5Z" transform="translate(0 -0.002)" /><path d="M164.507,64.254q-.01.1-.18.158a1.855,1.855,0,0,1-.51.052,1.835,1.835,0,0,1-.54-.057c-.114-.038-.17-.089-.17-.153V61.327h-7.364a.5.5,0,0,1-.375-.139.574.574,0,0,1-.135-.416V52.48a.228.228,0,0,1,.035-.129.3.3,0,0,1,.13-.1.8.8,0,0,1,.255-.057q.16-.014.4-.014a3.494,3.494,0,0,1,.41.014.747.747,0,0,1,.25.057.35.35,0,0,1,.13.1.208.208,0,0,1,.04.129v7.489H161.2V52.48a.207.207,0,0,1,.04-.129.346.346,0,0,1,.135-.1.8.8,0,0,1,.255-.057q.16-.014.4-.014t.41.014a.747.747,0,0,1,.25.057.352.352,0,0,1,.13.1.209.209,0,0,1,.04.129v7.489h1.25a.441.441,0,0,1,.32.086.452.452,0,0,1,.08.306Z" transform="translate(0 -0.002)" /><path d="M173.821,56.411a.644.644,0,0,1-.2.531.693.693,0,0,1-.447.158h-5.93a5.084,5.084,0,0,0,.151,1.291,2.444,2.444,0,0,0,.5.985,2.26,2.26,0,0,0,.915.631,3.8,3.8,0,0,0,1.377.22,5.893,5.893,0,0,0,1.146-.1,7,7,0,0,0,.87-.225q.367-.124.6-.225a1.025,1.025,0,0,1,.357-.1.239.239,0,0,1,.126.033.22.22,0,0,1,.085.1.676.676,0,0,1,.045.187,2.4,2.4,0,0,1,.015.292,2.019,2.019,0,0,1-.01.215c-.007.061-.015.115-.025.163a.409.409,0,0,1-.05.129.554.554,0,0,1-.09.11,1.486,1.486,0,0,1-.325.172,4.888,4.888,0,0,1-.7.234,10.034,10.034,0,0,1-1,.206,7.607,7.607,0,0,1-1.206.091,5.818,5.818,0,0,1-1.946-.3,3.629,3.629,0,0,1-1.406-.88,3.722,3.722,0,0,1-.86-1.463,6.538,6.538,0,0,1-.29-2.047,6.185,6.185,0,0,1,.3-1.994,4.173,4.173,0,0,1,.865-1.5,3.777,3.777,0,0,1,1.366-.947,4.658,4.658,0,0,1,1.791-.33,4.506,4.506,0,0,1,1.806.325,3.4,3.4,0,0,1,1.226.875,3.464,3.464,0,0,1,.705,1.291,5.42,5.42,0,0,1,.225,1.583Zm-1.661-.469a2.787,2.787,0,0,0-.579-1.951,2.254,2.254,0,0,0-1.807-.708,2.482,2.482,0,0,0-1.077.22,2.317,2.317,0,0,0-.775.583,2.638,2.638,0,0,0-.483.847,3.394,3.394,0,0,0-.191,1.009Z" transform="translate(0 -0.002)" /><path d="M184.226,61.088a.207.207,0,0,1-.04.129.311.311,0,0,1-.13.091.961.961,0,0,1-.25.057,3.486,3.486,0,0,1-.4.019,3.593,3.593,0,0,1-.41-.019.961.961,0,0,1-.25-.057.311.311,0,0,1-.13-.091.2.2,0,0,1-.04-.129V57.305h-4.592v3.778a.207.207,0,0,1-.04.129.312.312,0,0,1-.13.091.963.963,0,0,1-.25.057,3.6,3.6,0,0,1-.41.019,3.486,3.486,0,0,1-.4-.019,1.045,1.045,0,0,1-.255-.057.271.271,0,0,1-.13-.091.226.226,0,0,1-.035-.129v-8.6a.227.227,0,0,1,.035-.129.3.3,0,0,1,.13-.1.8.8,0,0,1,.255-.057q.16-.014.4-.014t.41.014a.747.747,0,0,1,.25.057.35.35,0,0,1,.13.1.208.208,0,0,1,.04.129v3.5h4.592v-3.5a.206.206,0,0,1,.04-.129.35.35,0,0,1,.13-.1.745.745,0,0,1,.25-.057q.16-.014.41-.014t.4.014a.745.745,0,0,1,.25.057.349.349,0,0,1,.13.1.208.208,0,0,1,.04.129Z" transform="translate(0 -0.002)" /><path d="M193.59,52.948a2.272,2.272,0,0,1-.02.325.7.7,0,0,1-.065.22.362.362,0,0,1-.1.129.252.252,0,0,1-.15.043h-2.7v7.422a.207.207,0,0,1-.04.129.31.31,0,0,1-.13.091.963.963,0,0,1-.25.057,3.6,3.6,0,0,1-.41.019,3.478,3.478,0,0,1-.4-.019,1.039,1.039,0,0,1-.255-.057.272.272,0,0,1-.13-.091.226.226,0,0,1-.035-.129V53.666h-2.7a.257.257,0,0,1-.145-.043.3.3,0,0,1-.1-.129.925.925,0,0,1-.065-.225,1.891,1.891,0,0,1-.025-.33,1.683,1.683,0,0,1,.025-.306.864.864,0,0,1,.07-.225.357.357,0,0,1,.1-.134.235.235,0,0,1,.14-.043h7.053a.258.258,0,0,1,.145.043.3.3,0,0,1,.1.134,1.032,1.032,0,0,1,.065.229A1.766,1.766,0,0,1,193.59,52.948Z" transform="translate(0 -0.002)" /><path d="M203.505,56.65a7.426,7.426,0,0,1-.255,2.028,4.336,4.336,0,0,1-.75,1.526,3.331,3.331,0,0,1-1.226.966,3.925,3.925,0,0,1-1.671.339,3.369,3.369,0,0,1-.74-.076,2.9,2.9,0,0,1-.665-.239,3.875,3.875,0,0,1-.645-.411q-.32-.249-.68-.583v4.3a.229.229,0,0,1-.04.134.293.293,0,0,1-.13.1.954.954,0,0,1-.25.057,3.536,3.536,0,0,1-.41.019,3.428,3.428,0,0,1-.4-.019,1.034,1.034,0,0,1-.255-.057.257.257,0,0,1-.13-.1.252.252,0,0,1-.035-.134V52.48a.278.278,0,0,1,.03-.139.241.241,0,0,1,.12-.091.809.809,0,0,1,.23-.052q.14-.014.34-.014a3.392,3.392,0,0,1,.345.014.8.8,0,0,1,.225.052.274.274,0,0,1,.125.091.245.245,0,0,1,.035.139v1.157a9.446,9.446,0,0,1,.79-.7,4.76,4.76,0,0,1,.765-.492,3.7,3.7,0,0,1,.79-.3,3.909,3.909,0,0,1,2.526.263,3.1,3.1,0,0,1,1.125.995,4.337,4.337,0,0,1,.635,1.468A7.615,7.615,0,0,1,203.505,56.65Zm-1.711.182a7.572,7.572,0,0,0-.1-1.277,3.586,3.586,0,0,0-.363-1.1,2.079,2.079,0,0,0-.689-.765,1.908,1.908,0,0,0-1.077-.285,2.266,2.266,0,0,0-.634.091,2.665,2.665,0,0,0-.634.287,4.475,4.475,0,0,0-.674.517,8.1,8.1,0,0,0-.745.789v3.426a7.02,7.02,0,0,0,1.3,1.215,2.242,2.242,0,0,0,1.288.421,1.944,1.944,0,0,0,1.072-.287,2.2,2.2,0,0,0,.725-.765,3.724,3.724,0,0,0,.408-1.071A5.524,5.524,0,0,0,201.794,56.832Z" transform="translate(0 -0.002)" /></g><g id="logo"><g id="light"><path d="M62.313,33.381c-1.3-.593-3.6-1.992-4.629-2.458-1.25-.562-4.163-2.623-5.875-2.75a17.693,17.693,0,0,0-5.833,1.042c-1.75.562-6.6,2.771-9.1,2.583s-6.5-2.375-6.5-2.375.077,1.2.3,2.619c.874,5.637,4.71,5.808,9.682,5.63,2.333-.083,8.145-3.5,8.145-3.5,1.845-1.2-11.342,11.827-27.894,7.916C8.289,39.18,4.667,30.993,4.9,24.632a43.1,43.1,0,0,1,1.083-7.541A6.2,6.2,0,0,0,6.126,15.8S-.064,24.926,0,33.861C.075,44.023,5.126,51.392,12.312,53.88c4.914,1.7,11.35,2.977,17.332,1.042,7.638-2.47,13.984-9.321,16.1-11.312,3.437-3.229,5.875-5.625,5.875-5.625s-17,19.436-26.623,19S4.5,51.548,4.5,51.548a2.656,2.656,0,0,1,.437.917c2.213,7.457,12.216,16.74,19.629,16.581,11.939-.261,20.971-6.851,27.956-22.5,2.3-5.143,7.677-10.64,9.541-10.749C63.433,35.717,63.926,34.118,62.313,33.381Z" transform="translate(0 -0.002)"/><path d="M27.936,32.84a24.04,24.04,0,0,1,1.458-10.874C35.577,6.34,51.748,5.482,63.708,9.266a26.02,26.02,0,0,1,7.141,3.366,27.033,27.033,0,0,0-7.873-7.248C49.387-2.895,30,5.235,26.7,19.367,25.167,25.95,27.562,31.744,27.936,32.84Z" transform="translate(0 -0.002)"/><path d="M39.873.305c-16.292,1.918-27.1,19.708-19.247,33.431a14.809,14.809,0,0,0,5.386,5.414,15.5,15.5,0,0,1-4.824-3.04c-8.7-8.229-5.014-22.835,2.562-29.5a11.294,11.294,0,0,0,3.521-4.775c-.687-.021-2.7-.526-6.9,1.463C6.461,9.891,1.7,29.5,14.6,39.087c5.428,4.035,16.147,1.353,17.27,1.583a.914.914,0,0,0-.24-.063h.053A23.443,23.443,0,0,1,26.6,32.589c-5.091-12.5,3.788-25.008,14.314-29.184A24.007,24.007,0,0,0,46.685.361C46.04.116,44.786-.279,39.873.305Z" transform="translate(0 -0.002)"/></g><path id="dark" d="M72.434,14.505s1.917,8.166,2.333,12c1.331,12.252-3.212,20.513-12.5,23.415a28.843,28.843,0,0,1-8.416,1.585l.667,1.667-3.333-.833.166,2.083-1.916-1.25-.417,2.916-.583-.917s-3,5.916-6.833,8.749-13.916,7.249-13.916,7.249,4.583,1.083,8,1.75,12.832,1.5,16.165-.083,4.416-3.25,4.416-3.25a8,8,0,0,0,8.166-2.333c3.75-3.916,3.75-6,3.75-6s4.333-.25,7.249-5.75a23.227,23.227,0,0,0,2.834-10.247s3-4.833,1.333-15.916S72.434,14.505,72.434,14.505Z" transform="translate(0 -0.002)"/></g></svg>
