<svg xmlns="http://www.w3.org/2000/svg" width="90.001" height="32" viewBox="0 0 90.001 32"><title>it-doors-logo</title><g id="doors"><path d="M43.66,22.8a3.091,3.091,0,0,0-.5.037,1.62,1.62,0,0,0-.416.123.755.755,0,0,0-.318.271.867.867,0,0,0-.11.456v2.306c0,.555.441.839,1.347.839s1.335-.259,1.335-.826V23.7C44.995,23.1,44.554,22.8,43.66,22.8Z" style="fill:none"/><path d="M58.2,11.478a2.448,2.448,0,0,0-1.445.3,1.224,1.224,0,0,0-.367,1.011V16.1a1.165,1.165,0,0,0,.355.962,3.983,3.983,0,0,0,2.89,0A1.071,1.071,0,0,0,60,16.1V12.785a1.3,1.3,0,0,0-.355-1.011A2.448,2.448,0,0,0,58.2,11.478Z" style="fill:none"/><path d="M48.374,9.371A4.969,4.969,0,0,0,46.3,9.05H44.162v7.744h2.057a6.885,6.885,0,0,0,2.228-.247c.416-.16.612-.543.612-1.147V10.555A1.209,1.209,0,0,0,48.374,9.371Z" style="fill:none"/><path d="M68.858,11.478a2.448,2.448,0,0,0-1.445.3,1.221,1.221,0,0,0-.355,1.011V16.1a1.165,1.165,0,0,0,.355.962,2.565,2.565,0,0,0,1.445.271,2.538,2.538,0,0,0,1.445-.271,1.1,1.1,0,0,0,.367-.962V12.785a1.257,1.257,0,0,0-.367-1.011A2.448,2.448,0,0,0,68.858,11.478Z" style="fill:none"/><path d="M88.117,24.012a1.338,1.338,0,0,0-.722.123.583.583,0,0,0-.171.481v1.64a.562.562,0,0,0,.184.493,1.609,1.609,0,0,0,.735.111,1.579,1.579,0,0,0,.735-.123c.135-.062.208-.222.208-.469v-1.64a.551.551,0,0,0-.184-.481A1.546,1.546,0,0,0,88.117,24.012Z" style="fill:none"/><path d="M62.535,24a1.588,1.588,0,0,0-.771.123c-.135.086-.2.284-.2.617v1.467a1.528,1.528,0,0,0,.049.382.365.365,0,0,0,.2.21.859.859,0,0,0,.294.074,7.886,7.886,0,0,0,.882,0,1.284,1.284,0,0,0,.294-.074.365.365,0,0,0,.2-.21,2.982,2.982,0,0,0,.024-.382V24.744c0-.333-.073-.543-.2-.617A1.755,1.755,0,0,0,62.535,24Z" style="fill:none"/><path d="M50.6,7.78a9.031,9.031,0,0,0-4.261-.74H41.37V18.8h4.983a9.345,9.345,0,0,0,4.3-.7,2.833,2.833,0,0,0,1.224-2.7V10.616A3.022,3.022,0,0,0,50.6,7.78ZM49.059,15.4c0,.6-.2.987-.612,1.147a6.885,6.885,0,0,1-2.228.247H44.162V9.05H46.3a4.969,4.969,0,0,1,2.069.321,1.209,1.209,0,0,1,.686,1.184Z" style="fill:#fff"/><path d="M62.365,17.249a3.467,3.467,0,0,0,.269-1.455V13.2a3.744,3.744,0,0,0-.282-1.554,2.65,2.65,0,0,0-.686-.987,2.919,2.919,0,0,0-1.053-.53A5.873,5.873,0,0,0,59.451,9.9a15.838,15.838,0,0,0-2.5,0,5.873,5.873,0,0,0-1.163.234,2.736,2.736,0,0,0-1.053.53,2.65,2.65,0,0,0-.686.987A3.953,3.953,0,0,0,53.77,13.2v2.59a3.506,3.506,0,0,0,.269,1.455,2.469,2.469,0,0,0,.661.937,2.847,2.847,0,0,0,1.041.518,8.063,8.063,0,0,0,1.175.222c.355.037.784.049,1.286.049s.931-.025,1.286-.049a5.721,5.721,0,0,0,1.175-.222,2.848,2.848,0,0,0,1.041-.518A2.649,2.649,0,0,0,62.365,17.249ZM60,16.1a1.071,1.071,0,0,1-.367.962,3.983,3.983,0,0,1-2.89,0,1.165,1.165,0,0,1-.355-.962V12.785a1.224,1.224,0,0,1,.367-1.011,3.675,3.675,0,0,1,2.89,0A1.3,1.3,0,0,1,60,12.785Z" style="fill:#fff"/><path d="M72.347,10.664a2.92,2.92,0,0,0-1.053-.53A5.868,5.868,0,0,0,70.131,9.9a15.838,15.838,0,0,0-2.5,0,5.869,5.869,0,0,0-1.163.234,2.737,2.737,0,0,0-1.053.53,2.651,2.651,0,0,0-.686.987A3.953,3.953,0,0,0,64.45,13.2v2.59a3.506,3.506,0,0,0,.269,1.455,2.629,2.629,0,0,0,.673.937,2.693,2.693,0,0,0,1.029.518,8.063,8.063,0,0,0,1.175.222c.355.037.784.049,1.286.049s.931-.025,1.286-.049a5.725,5.725,0,0,0,1.175-.222,2.888,2.888,0,0,0,1.029-.518,2.65,2.65,0,0,0,.661-.937,3.467,3.467,0,0,0,.269-1.455V13.2a4.2,4.2,0,0,0-.269-1.554A2.65,2.65,0,0,0,72.347,10.664ZM70.67,16.1a1.1,1.1,0,0,1-.367.962,2.538,2.538,0,0,1-1.445.271,2.565,2.565,0,0,1-1.445-.271,1.165,1.165,0,0,1-.355-.962V12.785a1.221,1.221,0,0,1,.355-1.011,3.675,3.675,0,0,1,2.89,0,1.257,1.257,0,0,1,.367,1.011Z" style="fill:#fff"/><path d="M78.585,10.38a1.542,1.542,0,0,0-.747,1.184V10.023h-2.5V18.8h2.633V13.525a1.231,1.231,0,0,1,.551-1.147,3.187,3.187,0,0,1,1.628-.333h.894V9.85H80.1A2.527,2.527,0,0,0,78.585,10.38Z" style="fill:#fff"/><path d="M86.8,13.266H85.654a1.076,1.076,0,0,1-.7-.185.491.491,0,0,1-.22-.395v-.469a.591.591,0,0,1,.282-.592,3.809,3.809,0,0,1,1.384-.148c.245,0,1.3.074,3.171.222V10.01c-1.494-.111-2.522-.16-3.1-.16a9.069,9.069,0,0,0-3.2.456,1.653,1.653,0,0,0-1.139,1.652v1.073a1.878,1.878,0,0,0,.771,1.628,3.591,3.591,0,0,0,2.13.555H86.18a1.657,1.657,0,0,1,1,.21.8.8,0,0,1,.233.629V16.6a.6.6,0,0,1-.429.6,3.809,3.809,0,0,1-1.2.148,26.519,26.519,0,0,1-3.477-.382v1.763A25.823,25.823,0,0,0,85.752,19c.49,0,.918-.025,1.286-.049a6.424,6.424,0,0,0,1.139-.185,2.829,2.829,0,0,0,.967-.407,2.041,2.041,0,0,0,.612-.74A2.3,2.3,0,0,0,90,16.5v-1.11C90,13.981,88.935,13.278,86.8,13.266Z" style="fill:#fff"/><path d="M43.66,22.32c-1.347,0-2.02.469-2.02,1.393v2.294c0,.888.673,1.319,2.02,1.319a3.987,3.987,0,0,0,.686-.049,3.208,3.208,0,0,0,.649-.185,1.064,1.064,0,0,0,.514-.407,1.192,1.192,0,0,0,.184-.678V23.713C45.693,22.8,45.019,22.332,43.66,22.32Zm1.335,3.687c0,.567-.441.839-1.335.826s-1.347-.284-1.347-.839V23.689a.867.867,0,0,1,.11-.456.755.755,0,0,1,.318-.271,1.62,1.62,0,0,1,.416-.123,3.091,3.091,0,0,1,.5-.037c.894,0,1.335.3,1.335.9Z" style="fill:#fff"/><path d="M50.044,26.365a.389.389,0,0,1-.22.382,2.185,2.185,0,0,1-.771.1,1.329,1.329,0,0,1-.416-.049.393.393,0,0,1-.233-.136.625.625,0,0,1-.086-.185,1.112,1.112,0,0,1-.025-.222V23.64H47.62v2.651a1.063,1.063,0,0,0,.269.777,1.417,1.417,0,0,0,.98.259q1.065,0,1.175-.518v.444h.673V23.64h-.673Z" style="fill:#fff"/><path d="M53.858,26.762a.686.686,0,0,1-.147-.518V24.086h1.273v-.444H53.7V22.52h-.673v1.122h-.8v.444h.8v2.121a1.2,1.2,0,0,0,.269.888,1.428,1.428,0,0,0,.943.234,4.82,4.82,0,0,0,.747-.062H55v-.432c-.282.037-.465.062-.539.062A.948.948,0,0,1,53.858,26.762Z" style="fill:#fff"/><path d="M58.089,25.116h-.416q-.661,0-.661-.37v-.308a.38.38,0,0,1,.2-.345,1.581,1.581,0,0,1,.722-.111,6.633,6.633,0,0,1,1.114.111v-.481c-.612-.037-.967-.062-1.09-.062-1.065,0-1.6.284-1.6.851v.333a.781.781,0,0,0,.294.641,1.318,1.318,0,0,0,.857.234h.416a.994.994,0,0,1,.5.1.357.357,0,0,1,.159.333v.37a.345.345,0,0,1-.22.358,1.9,1.9,0,0,1-.673.086,8.567,8.567,0,0,1-1.249-.136v.518a8.939,8.939,0,0,0,1.237.086,2.47,2.47,0,0,0,1.163-.222.826.826,0,0,0,.4-.8v-.308C59.24,25.412,58.86,25.128,58.089,25.116Z" style="fill:#fff"/><path d="M63.894,23.868a.67.67,0,0,0-.355-.21,2.129,2.129,0,0,0-.441-.086c-.135-.012-.331-.012-.563-.012s-.429,0-.563.012a2.129,2.129,0,0,0-.441.086.877.877,0,0,0-.367.21,1.111,1.111,0,0,0-.208.382,1.751,1.751,0,0,0-.086.6v1.258a1.741,1.741,0,0,0,.11.678.7.7,0,0,0,.355.37,1.941,1.941,0,0,0,.5.148c.171.012.4.025.7.025.233,0,.416,0,.563-.012a2.129,2.129,0,0,0,.441-.086.894.894,0,0,0,.355-.2.835.835,0,0,0,.208-.358,1.536,1.536,0,0,0,.086-.567V24.855a1.751,1.751,0,0,0-.086-.6A1.112,1.112,0,0,0,63.894,23.868ZM63.5,26.211a2.982,2.982,0,0,1-.024.382.365.365,0,0,1-.2.21,1.284,1.284,0,0,1-.294.074,7.886,7.886,0,0,1-.882,0,.859.859,0,0,1-.294-.074.365.365,0,0,1-.2-.21,1.528,1.528,0,0,1-.049-.382V24.744c0-.333.061-.53.2-.617A1.588,1.588,0,0,1,62.535,24a1.755,1.755,0,0,1,.771.123c.122.074.2.284.2.617Z" style="fill:#fff"/><path d="M68.537,26.365a.389.389,0,0,1-.22.382,2.185,2.185,0,0,1-.771.1,1.328,1.328,0,0,1-.416-.049.394.394,0,0,1-.233-.136.454.454,0,0,1-.1-.185.615.615,0,0,1-.025-.222V23.64H66.1v2.651a1.015,1.015,0,0,0,.269.777,1.417,1.417,0,0,0,.98.259q1.065,0,1.175-.518v.444H69.2V23.64h-.661Z" style="fill:#fff"/><path d="M72.165,23.767a.584.584,0,0,0-.318.469v-.592H71.21v3.613h.673V24.7a.46.46,0,0,1,.22-.444,1.366,1.366,0,0,1,.673-.123h.38V23.57h-.331A1.213,1.213,0,0,0,72.165,23.767Z" style="fill:#fff"/><path d="M75.342,26.729a.6.6,0,0,1-.2-.53v-1.48a.725.725,0,0,1,.171-.567,1.31,1.31,0,0,1,.722-.136,4.45,4.45,0,0,1,1.1.148v-.493a4.864,4.864,0,0,0-1.029-.111c-.2,0-.343,0-.453.012s-.233.025-.38.049a.8.8,0,0,0-.343.111,1.376,1.376,0,0,0-.245.222.828.828,0,0,0-.171.345,2.144,2.144,0,0,0-.061.518V26.15a1.536,1.536,0,0,0,.086.567.919.919,0,0,0,.208.345.7.7,0,0,0,.355.185,3.326,3.326,0,0,0,.416.074c.122.012.294.012.514.012a5.281,5.281,0,0,0,1.151-.111H77.2v-.493a4.878,4.878,0,0,1-1.09.136A1.492,1.492,0,0,1,75.342,26.729Z" style="fill:#fff"/><rect x="78.9" y="23.637" width="0.661" height="3.613" style="fill:#fff"/><rect x="78.9" y="22.33" width="0.661" height="0.703" style="fill:#fff"/><path d="M83.437,23.55q-1.065,0-1.175.518v-.444H81.6v3.613h.661V24.623a.515.515,0,0,1,.2-.469,1.614,1.614,0,0,1,.784-.123,1.328,1.328,0,0,1,.416.049.477.477,0,0,1,.233.148.453.453,0,0,1,.1.185,1.111,1.111,0,0,1,.025.222v2.614h.673V24.586a1.014,1.014,0,0,0-.269-.777A1.4,1.4,0,0,0,83.437,23.55Z" style="fill:#fff"/><line x1="89.758" y1="23.629" x2="89.758" y2="23.666" style="fill:none;stroke:#fff;stroke-linecap:round;stroke-linejoin:round;stroke-width:0px"/><path d="M89.121,24.012c-.11-.3-.477-.432-1.1-.432a1.8,1.8,0,0,0-1.126.271,1.128,1.128,0,0,0-.343.925v1.467a1.051,1.051,0,0,0,.306.851,1.875,1.875,0,0,0,1.126.247,2.4,2.4,0,0,0,.759-.111c.22-.074.331-.185.343-.358v.863a.616.616,0,0,1-.233.543,1.432,1.432,0,0,1-.747.16,11.076,11.076,0,0,1-1.3-.111v.481a6.741,6.741,0,0,0,1.237.086,2.5,2.5,0,0,0,1.286-.271,1.123,1.123,0,0,0,.429-1.036V23.666h-.637Zm-.037,2.257c0,.247-.073.407-.208.469a1.579,1.579,0,0,1-.735.123,1.609,1.609,0,0,1-.735-.111.562.562,0,0,1-.184-.493v-1.64a.583.583,0,0,1,.171-.481,1.338,1.338,0,0,1,.722-.123,1.546,1.546,0,0,1,.784.136.551.551,0,0,1,.184.481Z" style="fill:#fff"/></g><g id="it"><path d="M0,32l14.362-2.8V2.8L0,0ZM6.54,10.06H8.7V21.948H6.54Z" /><path d="M17.53,29.2,31.892,32V0L17.53,2.8ZM19.82,10.06h8.914v1.813h-3.4V21.935H23.187V11.873H19.82Z"/></g></svg>
